<?xml version="1.0" standalone="no"?>
<!DOCTYPE svg PUBLIC "-//W3C//DTD SVG 1.1//EN" "http://www.w3.org/Graphics/SVG/1.1/DTD/svg11.dtd" >
<svg>
<metadata>
Created by FontForge 20090914 at Tue Dec  7 11:13:26 2021
 By www-data
Copyright &#194;&#169; 2017 by Deni Anggara. All rights reserved.
</metadata>
<defs>
<font id="Gelion-SemiBold" horiz-adv-x="0" >
  <font-face 
    font-family="Gelion Semi Bold"
    font-weight="600"
    font-stretch="normal"
    units-per-em="2048"
    panose-1="0 0 7 0 0 0 0 0 0 0"
    ascent="1638"
    descent="-410"
    x-height="918"
    cap-height="1313"
    bbox="-1153 -518 3920 1937"
    underline-thickness="0"
    underline-position="0"
    unicode-range="U+000D-U+FB02"
  />
<missing-glyph horiz-adv-x="950" 
d="M475 586l-379 549h758zM455 563l-383 -547v1094zM496 563l383 547v-1094zM475 541l379 -549h-758z" />
    <glyph glyph-name="uniFB01" unicode="fi" horiz-adv-x="1179" 
d="M1104 0l-251.999 0.000976562v709h-442v-709h-254l-2 709h-125v209h125v71c0 135.333 42 243.666 126 324.999s201.667 122 353 122c136.667 0 246.167 -35.5 328.5 -106.5s129.166 -166.167 140.499 -285.5h-254c-8 53.333 -30.833 94.333 -68.5 123
s-85.167 43 -142.5 43c-69.333 0 -124.5 -19.667 -165.5 -59s-61.5 -93.333 -61.5 -162v-71h694v-918z" />
    <glyph glyph-name="uniFB02" unicode="fl" horiz-adv-x="1236" 
d="M992 1315c84 -80.667 126.001 -189.334 126.001 -326.001v-989h-254l-2 989c0 68 -20.5 121.833 -61.5 161.5s-95.5 59.5 -163.5 59.5c-69.333 0 -124.5 -20 -165.5 -60s-61.5 -93.667 -61.5 -161v-71h338v-209h-338v-709h-254l-2 709h-125v209h125v71
c0 136.667 42.667 245.334 128 326.001s203.666 121 354.999 121c152.667 0 271 -40.333 355 -121z" />
    <glyph glyph-name="f_f.liga" unicode="ff" horiz-adv-x="1349" 
d="M1118.5 1154c-17.667 -32 -26.501 -72.667 -26.501 -122v-114h221v-209h-221v-709h-254v709h-387v-709h-254v709h-168v209h168v155c0 229.333 118.667 344 356 344c40.667 0 80.334 -4 119.001 -12v-209c-12 4 -34 6 -66 6c-68 0 -110.833 -16 -128.5 -48
s-26.5 -72.667 -26.5 -122v-114h387v155c0 229.333 119.333 344 358 344c38 0 77 -4 117 -12v-209c-12 4 -34 6 -66 6c-68 0 -110.833 -16 -128.5 -48z" />
    <glyph glyph-name="f_f_i.liga" unicode="ffi" horiz-adv-x="1802" 
d="M1061 918h664.999v-918h-256v709h-409v-709h-254v709h-399v-709h-252l-2 709h-125v209h125v98c0 82 18.667 154.667 56 218s89.833 112.833 157.5 148.5s145.834 53.5 234.501 53.5c72.667 0 137.334 -12.333 194.001 -37s102.667 -59.667 138 -105
c79.333 94 192.666 141.333 339.999 142c128.667 0 233.5 -34.5 314.5 -103.5s126.833 -165.167 137.5 -288.5h-249c-8 52 -30.5 92.667 -67.5 122s-82.833 44 -137.5 44c-64 0 -115.167 -18.333 -153.5 -55s-57.5 -87 -57.5 -151v-86zM806.999 1014
c0 64 -17.833 112.667 -53.5 146s-84.167 50 -145.5 50c-62.667 0 -111.667 -17 -147 -51s-53 -80.333 -53 -139v-102h399v96z" />
    <glyph glyph-name="f_f_l.liga" unicode="ffl" horiz-adv-x="1888" 
d="M1641 1316c85.333 -80 127.999 -190.998 127.999 -332.998v-983h-253v983c0 72.667 -19.833 128.667 -59.5 168s-95.834 59 -168.501 59c-69.333 0 -124.5 -20 -165.5 -60s-61.5 -93.667 -61.5 -161v-71h338v-209h-338v-709h-254v709h-399v-709h-252l-2 709h-125v209h125
v98c0 82 18.333 154.667 55 218s88.5 112.833 155.5 148.5s142.833 53.5 227.5 53.5c72.667 0 138.334 -13.333 197.001 -40s105 -63.334 139 -110.001c40.667 49.333 92.834 86.666 156.501 111.999s134.167 38 211.5 38c144.667 0 259.667 -40 345 -120zM806.999 1014
c0 64 -17.833 112.667 -53.5 146s-84.167 50 -145.5 50c-62.667 0 -111.667 -17 -147 -51s-53 -80.333 -53 -139v-102h399v96z" />
    <glyph glyph-name="f_f_t.liga" unicode="fft" horiz-adv-x="1978" 
d="M1948 709l-179.001 0.00195312v-709h-253v709h-152v209h152v65c0 72.667 -19.833 128.667 -59.5 168s-95.834 59 -168.501 59c-69.333 0 -124.5 -20 -165.5 -60s-61.5 -93.667 -61.5 -161v-71h217v-209h-217v-709h-254v709h-399v-709h-252l-2 709h-125v209h125v98
c0 82 18.333 154.667 55 218s88.5 112.833 155.5 148.5s142.833 53.5 227.5 53.5c72.667 0 138.334 -13.333 197.001 -40s105 -63.334 139 -110.001c40.667 49.333 92.834 86.666 156.501 111.999s134.167 38 211.5 38c144.667 0 259.667 -40 345 -120s128 -191 128 -333
v-65h179v-209zM806.999 1014c0 64 -17.833 112.667 -53.5 146s-84.167 50 -145.5 50c-62.667 0 -111.667 -17 -147 -51s-53 -80.333 -53 -139v-102h399v96z" />
    <glyph glyph-name="f_t.liga" unicode="ft" horiz-adv-x="1314" 
d="M1284 709h-165.999v-709h-254l-2 709h-157v209h157v71c0 68 -20.5 121.833 -61.5 161.5s-95.5 59.5 -163.5 59.5c-69.333 0 -124.5 -20 -165.5 -60s-61.5 -93.667 -61.5 -161v-71h211v-209h-211v-709h-254l-2 709h-125v209h125v71c0 136.667 42.667 245.334 128 326.001
s203.666 121 354.999 121c152.667 0 271 -40.333 355 -121s126 -189.334 126 -326.001v-71h166v-209z" />
    <glyph glyph-name="f_y.liga" unicode="fy" horiz-adv-x="1622" 
d="M1597 918l-423.001 -1074c-34 -86 -79.333 -155.667 -136 -209c-56 -53.333 -139.333 -79.666 -250 -78.999c-53.333 0 -111.333 7.33301 -174 22l2 207c57.333 -9.33301 100.333 -14 129 -14c64 0 109.667 11.667 137 35c26.667 24 49.334 60 68.001 108l19 51l-394 953
h277l235 -642l242 642h268zM476.999 1154c-18 -32 -26.668 -72.667 -26.001 -122v-114h221v-209h-221v-709h-254v709h-168v209h168v155c0 229.333 118.667 344 356 344c40.667 0 80.334 -4 119.001 -12v-209c-12 4 -34 6 -66 6c-68 0 -111 -16 -129 -48z" />
    <glyph glyph-name="i_j.liga" unicode="ij" horiz-adv-x="989" 
d="M124 1125.5c-33.333 32.333 -50 71.5 -50 117.5c0 46.667 16.667 86 50 118s74.666 48 123.999 48c50.667 0 92 -15.667 124 -47s48 -71 48 -119c0 -46.667 -16.333 -86 -49 -118s-73.667 -48 -123 -48s-90.666 16.167 -123.999 48.5zM617.5 1125.5
c-33.667 32.333 -50.5 71.5 -50.5 117.5c0 46.667 16.833 86 50.5 118s74.834 48 123.501 48c50.667 0 92 -15.667 124 -47s48 -71 48 -119c0 -46.667 -16.333 -86 -49 -118s-73.667 -48 -123 -48c-48.667 0 -89.834 16.167 -123.501 48.5zM868 -428h-254v1137h-239v-709
h-254v918h747v-1346z" />
    <glyph glyph-name="i_t_i.liga" unicode="iti" horiz-adv-x="1652" 
d="M1283 1133.5c-33.333 32.333 -50 71.5 -50 117.5c0 46.667 16.667 86 50 118s74.666 48 123.999 48c48 0 88.667 -16 122 -48s50 -71.333 50 -118s-16.667 -86 -50 -118s-74 -48 -122 -48c-49.333 0 -90.666 16.167 -123.999 48.5zM124 1125.5
c-33.333 32.333 -50 71.5 -50 117.5c0 46.667 16.667 86 50 118s74.666 48 123.999 48c50.667 0 92 -15.667 124 -47s48 -71 48 -119c0 -46.667 -16.333 -86 -49 -118s-73.667 -48 -123 -48s-90.666 16.167 -123.999 48.5zM954 918h580v-918h-256v709h-324v-709h-254v709
h-325v-709h-254v918h579v239h254v-239z" />
    <glyph glyph-name="i_t_y.liga" unicode="ity" horiz-adv-x="2078" 
d="M124 1125.5c-33.333 32.333 -50 71.5 -50 117.5c0 46.667 16.667 86 50 118s74.666 48 123.999 48c50.667 0 92 -15.667 124 -47s48 -71 48 -119c0 -46.667 -16.333 -86 -49 -118s-73.667 -48 -123 -48s-90.666 16.167 -123.999 48.5zM2056 918l-424 -1074
c-35.333 -86 -80.666 -155.5 -135.999 -208.5s-138.333 -79.5 -249 -79.5c-52 0 -110.667 7.33301 -176 22l4 207c57.333 -9.33301 99.666 -14 126.999 -14c64 0 109.667 11.833 137 35.5s50 59.5 68 107.5l20 51l-307 744h-205v-709h-253v709h-287v-709h-254v918h541v239
h253v-239h394l235 -639l242 639h270z" />
    <glyph glyph-name="t_i.liga" unicode="ti" horiz-adv-x="1159" 
d="M788.5 1133.5c-33 32.333 -49.5 71.5 -49.5 117.5c0 48 16.5 87.667 49.5 119s73.833 47 122.5 47c49.333 0 90.666 -16 123.999 -48s50 -71.333 50 -118s-16.667 -86 -50 -118s-74.666 -48 -123.999 -48c-48.667 0 -89.5 16.167 -122.5 48.5zM461 918h577v-918h-254v709
h-323v-709h-254v709h-174v209h174v239h254v-239z" />
    <glyph glyph-name="t_t.liga" unicode="tt" horiz-adv-x="1312" 
d="M1280 709h-172v-709h-254v709h-393v-709h-254v709h-174v209h174v239h254v-239h393v239h254v-239h172v-209z" />
    <glyph glyph-name="t_u.liga" unicode="tu" horiz-adv-x="1753" 
d="M1645 918l-0.000976562 -918.001h-211l-19 109c-64 -90 -159 -135.333 -285 -136c-109.333 0 -193.666 32.833 -252.999 98.5s-89 153.834 -89 264.501v373h-329v-709h-254v709h-172v209h172v239h254v-239h583v-541c0 -65.333 15.167 -112 45.5 -140s72.5 -42 126.5 -42
c53.333 0 95.833 17.667 127.5 53s47.5 82.333 47.5 141v529h256z" />
    <glyph glyph-name="t_y.liga" unicode="ty" horiz-adv-x="1624" 
d="M1599 918l-423.001 -1074c-34 -86 -79.167 -155.5 -135.5 -208.5s-139.5 -79.5 -249.5 -79.5c-53.333 0 -111.666 7.33301 -174.999 22l2 207c57.333 -9.33301 100.666 -14 129.999 -14c64 0 109.333 11.833 136 35.5s49.334 59.5 68.001 107.5l19 51l-307 744h-203v-709
h-254v709h-174v209h174v239h254v-239h393l236 -642l241 642h268z" />
    <glyph glyph-name=".notdef" horiz-adv-x="950" 
d="M475 586l-379 549h758zM455 563l-383 -547v1094zM496 563l383 547v-1094zM475 541l379 -549h-758z" />
    <glyph glyph-name="uni000D" unicode="&#xd;" horiz-adv-x="421" 
 />
    <glyph glyph-name="space" unicode=" " horiz-adv-x="487" 
 />
    <glyph glyph-name="exclam" unicode="!" horiz-adv-x="628" 
d="M229 483l-55 830h281l-54 -830h-172zM181.5 19.5c-36.333 33.667 -54.5 77.167 -54.5 130.5c0 54.667 18.5 98.667 55.5 132s81.833 50 134.5 50c50.667 0 94.167 -16.833 130.5 -50.5s54.5 -77.5 54.5 -131.5c0 -53.333 -17.833 -96.833 -53.5 -130.5
s-79.5 -50.5 -131.5 -50.5c-54 0 -99.167 16.833 -135.5 50.5z" />
    <glyph glyph-name="quotedbl" unicode="&#x22;" horiz-adv-x="768" 
d="M102 1269c26 26.667 59 40 99 40c38 0 69.667 -13.333 95 -40s38 -60.667 38 -102c0 -18 -1.33301 -31 -4 -39l-94 -446h-74l-92 442c-4 20.667 -6.33301 35 -7 43c0 41.333 13 75.333 39 102zM472 1269c25.333 26.667 57.667 40.001 97 40.001s71.833 -13.333 97.5 -40
s38.5 -60.667 38.5 -102c0 -13.333 -2.33301 -26.333 -7 -39l-94 -446h-74l-92 442c-2.66699 13.333 -4 27.666 -4 42.999c0 41.333 12.667 75.333 38 102z" />
    <glyph glyph-name="numbersign" unicode="#" horiz-adv-x="1351" 
d="M1040 741l-32 -170h209l-48 -245h-213l-65 -326h-254l65 326h-208l-66 -326h-250l66 326h-172l47 245h176l33 170h-193l47 246h197l65 326h252l-65 -326h209l65 326h252l-65 -326h188l-49 -246h-191zM788 741h-208l-35 -170h209z" />
    <glyph glyph-name="dollar" unicode="$" horiz-adv-x="1206" 
d="M958.5 155.5c-72.333 -64.333 -167.17 -101.836 -284.503 -112.503v-193h-142v193c-116 12 -209.5 51.833 -280.5 119.5s-109.167 153.5 -114.5 257.5h250c2.66699 -53.333 23.167 -95.666 61.5 -126.999s91.5 -47 159.5 -47c64 0 113.5 13.333 148.5 40
s52.5 62.334 52.5 107.001c0 45.333 -14.667 78.5 -44 99.5s-76 41.167 -140 60.5l-142 43c-90 27.333 -167 67 -231 119s-96 129.667 -96 233c0 101.333 33.667 185.833 101 253.5s159 106.834 275 117.501v194h142v-196c108 -15.333 194.333 -56 259 -122
s97.667 -149.667 99 -251h-248c-1.33301 53.333 -19.666 95.333 -54.999 126s-83.666 46 -144.999 46c-57.333 0 -101.833 -13.333 -133.5 -40s-47.5 -62.334 -47.5 -107.001c0 -42 16.833 -74.667 50.5 -98s80.5 -43.333 140.5 -60l176 -51
c102.667 -30 177.834 -75.5 225.501 -136.5s71.5 -132.167 71.5 -213.5c0 -105.333 -36.167 -190.166 -108.5 -254.499z" />
    <glyph glyph-name="percent" unicode="%" horiz-adv-x="1579" 
d="M126 1222.5c26.667 46.333 63.501 83.5 110.501 111.5s100.5 42 160.5 42c61.333 0 116 -14 164 -42s85 -65.167 111 -111.5s39 -96.166 39 -149.499s-12.667 -102.833 -38 -148.5s-61.166 -82.167 -107.499 -109.5s-100.5 -41 -162.5 -41
c-62.667 0 -117.834 13.667 -165.501 41s-84.834 63.833 -111.501 109.5s-40 95.167 -40 148.5s13.333 103.166 40 149.499zM193.001 0l1032 1360h186l-1032 -1360h-186zM301.001 977c26 -26 58.667 -39.001 98 -39.001c40.667 0 73.5 13.333 98.5 40
s37.5 58.334 37.5 95.001s-12.333 68.667 -37 96s-57.667 41 -99 41c-40.667 0 -74 -13.333 -100 -40s-39 -59 -39 -97c1.33301 -38 15 -70 41 -96zM907.001 417.499c26 46.333 62.5 83.499 109.5 111.499s101.5 42 163.5 42c61.333 0 115.833 -14 163.5 -42
s84.5 -65.167 110.5 -111.5s39 -96.166 39 -149.499s-12.667 -102.5 -38 -147.5s-61.5 -81.167 -108.5 -108.5s-101.167 -41 -162.5 -41s-116 13.333 -164 40s-85.333 62.834 -112 108.501s-40 95.167 -40 148.5s13 103.166 39 149.499zM1081 173.998
c26 -26 59.667 -39.001 101 -39.001c40.667 0 73.334 13 98.001 39s37 57.333 37 94s-12.333 68.834 -37 96.501s-58 41.5 -100 41.5c-40.667 0 -73.834 -13.333 -99.501 -40s-38.5 -58.667 -38.5 -96c0 -38 13 -70 39 -96z" />
    <glyph glyph-name="ampersand" unicode="&#x26;" horiz-adv-x="1492" 
d="M1061 -2l-88.002 95.999c-49.333 -38 -107.833 -66.5 -175.5 -85.5s-139.5 -28.5 -215.5 -28.5c-130 0 -235 31.333 -315 94s-120 147.334 -120 254.001c0 58.667 12.333 110.5 37 155.5s50.334 79.833 77.001 104.5s57.667 50 93 76l56 41l-48 51
c-31.333 32.667 -59.166 70.5 -83.499 113.5s-36.5 94.5 -36.5 154.5s16 113.833 48 161.5s76.667 85.167 134 112.5s123.666 41 198.999 41c112 0 202.667 -28 272 -84s104 -130.333 104 -223c0 -61.333 -16 -115.833 -48 -163.5s-75.333 -92.834 -130 -135.501l-63 -47
l203 -221c22 56 32.667 122.333 32 199l-2 53h373v-199h-154c-9.33301 -101.333 -33.666 -182.666 -72.999 -243.999l254 -276h-330zM530.498 1107c-21.667 -22.667 -32.5 -50.334 -32.5 -83.001c0 -27.333 6.5 -51.166 19.5 -71.499s25.833 -36.666 38.5 -48.999
s21.334 -20.5 26.001 -24.5l30 -33l43 35c23.333 19.333 43.833 40.166 61.5 62.499s26.5 49.833 26.5 82.5s-10.5 60 -31.5 82s-51.167 33 -90.5 33c-38.667 0 -68.834 -11.333 -90.501 -34zM814.998 263.999l-262.001 285l-43 -35
c-27.333 -20.667 -48.166 -43.167 -62.499 -67.5s-21.5 -53.833 -21.5 -88.5c0 -48 17.333 -85.833 52 -113.5s83 -41.5 145 -41.5c78.667 0 142.667 20.333 192 61z" />
    <glyph glyph-name="quotesingle" unicode="'" horiz-adv-x="405" 
d="M105.5 1269c25 26.667 57.501 40 97.501 40c39.333 0 71.666 -13.333 96.999 -40s38 -60.667 38 -102c0 -13.333 -2 -26.333 -6 -39l-92 -446h-76l-90 442c-4 20.667 -6 35 -6 43c0 41.333 12.5 75.333 37.5 102z" />
    <glyph glyph-name="parenleft" unicode="(" horiz-adv-x="598" 
d="M401 -365c-100 105.333 -178.833 235.5 -236.5 390.5s-86.5 319.167 -86.5 492.5c0 166.667 28 328.834 84 486.501s135.667 290.5 239 398.5h197c-79.333 -104 -142.833 -233.833 -190.5 -389.5s-71.5 -320.834 -71.5 -495.501c0 -161.333 22.5 -320.833 67.5 -478.5
s109.833 -292.5 194.5 -404.5h-197z" />
    <glyph glyph-name="parenright" unicode=")" horiz-adv-x="593" 
d="M194.5 38.5c45 157 67.5 316.834 67.5 479.501c0 172 -23.5 336.5 -70.5 493.5s-110.833 287.5 -191.5 391.5h197c104 -108 183.833 -240.833 239.5 -398.5s83.5 -319.834 83.5 -486.501c0 -173.333 -29 -337.5 -87 -492.5s-136.667 -285.167 -236 -390.5h-197
c84.667 112 149.5 246.5 194.5 403.5z" />
    <glyph glyph-name="asterisk" unicode="*" horiz-adv-x="772" 
d="M612 969l112.997 -63.999l-61 -108l-113 65c-45.333 26 -85 55.333 -119 88c10.667 -54.667 16.334 -103.667 17.001 -147v-131h-123v131c0 54.667 5.33301 103.667 16 147c-32.667 -30 -73 -59.333 -121 -88l-110 -65l-62 108l111 64
c46.667 26 92.334 45.667 137.001 59c-56 16.667 -101.667 36.334 -137 59.001l-111 66l62 104l110 -65c46.667 -24.667 87 -53.334 121 -86.001c-10.667 44 -16 93 -16 147v129h123v-129c0 -46.667 -5.66699 -95.667 -17 -147c36.667 34 76.334 62.667 119.001 86l113 65
l61 -104l-113 -66c-34 -22 -79 -41.667 -135 -59c44.667 -14.667 89.667 -34.334 135 -59.001z" />
    <glyph glyph-name="plus" unicode="+" horiz-adv-x="1222" 
d="M1044 524h-325v-340h-213v340h-328v195h328v342h213v-342h325v-195z" />
    <glyph glyph-name="comma" unicode="," horiz-adv-x="491" 
d="M357.5 243.5c35 -35.667 52.5 -82.833 52.5 -141.5c0 -95.333 -32.167 -175.5 -96.5 -240.5s-144.833 -100.833 -241.5 -107.5v76c61.333 8 108.333 28.5 141 61.5s49 71.167 49 114.5c-13.333 -6.66699 -30.333 -10 -51 -10c-44 0 -79.667 13 -107 39
s-41 60.667 -41 104c0 45.333 15.5 83 46.5 113s70.167 45 117.5 45c52 0 95.5 -17.833 130.5 -53.5z" />
    <glyph glyph-name="hyphen" unicode="-" horiz-adv-x="1157" 
d="M1014 606v-227h-871v227h871z" />
    <glyph glyph-name="period" unicode="." horiz-adv-x="450" 
d="M107.5 20.5c-31 30.333 -46.501 67.167 -46.501 110.5c0 44 15.5 81.667 46.5 113s70.167 47 117.5 47c46.667 0 85.334 -15.667 116.001 -47s46 -69 46 -113c0 -42 -15 -78.5 -45 -109.5s-69 -46.5 -117 -46.5c-47.333 0 -86.5 15.167 -117.5 45.5z" />
    <glyph glyph-name="slash" unicode="/" horiz-adv-x="886" 
d="M573 1313h252l-512 -1313h-252z" />
    <glyph glyph-name="zero" unicode="0" horiz-adv-x="1181" 
d="M314.5 59c-77 54.667 -135.999 133.333 -176.999 236s-61.5 222.667 -61.5 360c0 139.333 20.5 260.166 61.5 362.499s100 181.166 177 236.499s168.833 83 275.5 83s198.5 -27.667 275.5 -83s136.333 -134.166 178 -236.499s62.5 -223.166 62.5 -362.499
c0 -138 -20.833 -258.167 -62.5 -360.5s-101.334 -180.833 -179.001 -235.5s-169.167 -82 -274.5 -82c-106.667 0 -198.5 27.333 -275.5 82zM776.501 324.499c42.333 78.333 63.5 188.5 63.5 330.5c0 143.333 -21.167 254 -63.5 332s-104.5 117 -186.5 117
s-144.167 -38.667 -186.5 -116s-63.5 -188.333 -63.5 -333c0 -143.333 21.5 -253.833 64.5 -331.5s104.833 -116.5 185.5 -116.5c82 0 144.167 39.167 186.5 117.5z" />
    <glyph glyph-name="one" unicode="1" horiz-adv-x="804" 
d="M68 1087c113.333 0 198.333 18.833 255 56.5s93 94.167 109 169.5h232v-1313h-261v893h-335v194z" />
    <glyph glyph-name="two" unicode="2" horiz-adv-x="1060" 
d="M514 233l459 -0.000976562v-233h-844v184l467 500c38 39.333 68 77.5 90 114.5s33 78.833 33 125.5c0 54.667 -17.167 98.334 -51.5 131.001s-79.5 49 -135.5 49c-60 0 -107.667 -17.833 -143 -53.5s-53 -80.834 -53 -135.501l2 -24h-254
c-5.33301 87.333 11 164.833 49 232.5s93.333 120.167 166 157.5s155.334 56 248.001 56c84.667 0 159.667 -16.333 225 -49s116.166 -78.667 152.499 -138s54.5 -128 54.5 -206c0 -83.333 -16.667 -154.666 -50 -213.999s-78 -121 -134 -185z" />
    <glyph glyph-name="three" unicode="3" horiz-adv-x="1118" 
d="M942 684.5c64 -71 96 -160.499 96 -268.499c0 -84.667 -20.5 -160.167 -61.5 -226.5s-98.333 -117.833 -172 -154.5s-157.5 -55 -251.5 -55c-92.667 0 -175.167 18.333 -247.5 55s-128.333 88.5 -168 155.5s-58.834 144.833 -57.501 233.5h256
c0 -62.667 20.833 -114.167 62.5 -154.5s94.5 -60.5 158.5 -60.5c65.333 0 118.5 19.167 159.5 57.5s61.5 90.166 61.5 155.499c0 60 -18.667 108.167 -56 144.5s-88.333 56.5 -153 60.5c-19.333 1.33301 -65.666 2 -138.999 2h-76v174l293 287h-493v223h817v-215l-287 -287
c108 -13.333 194 -55.5 258 -126.5z" />
    <glyph glyph-name="four" unicode="4" horiz-adv-x="1134" 
d="M1077 481v-215h-166v-266h-252v266h-602v195l537 852h317v-832h166zM659 481v520l-325 -520h325z" />
    <glyph glyph-name="five" unicode="5" horiz-adv-x="1157" 
d="M850 815c68 -38 121.169 -90.502 159.502 -157.502s57.5 -142.167 57.5 -225.5c0 -88.667 -21.833 -167.167 -65.5 -235.5s-103.334 -121.166 -179.001 -158.499s-160.167 -56 -253.5 -56c-92.667 0 -175.5 18.333 -248.5 55s-130 88.834 -171 156.501
s-61.5 145.167 -61.5 232.5h256c0 -62.667 21.167 -114.167 63.5 -154.5s96.166 -60.5 161.499 -60.5c66.667 0 122.667 20.5 168 61.5s68 94.833 68 161.5c0 65.333 -21.833 118.833 -65.5 160.5s-100.5 62.5 -170.5 62.5c-42 0 -82.167 -8.5 -120.5 -25.5
s-67.833 -39.833 -88.5 -68.5l-247 29l170 721h702v-223h-506l-67 -263c56 30 124 45 204 45c88 0 166 -19 234 -57z" />
    <glyph glyph-name="six" unicode="6" horiz-adv-x="1167" 
d="M860.5 824.5c71 -36.333 127 -87.667 168 -154s61.5 -143.166 61.5 -230.499c0 -88.667 -22 -167.834 -66 -237.501s-104.5 -124.167 -181.5 -163.5s-165.167 -59 -264.5 -59c-100 0 -187.167 19.667 -261.5 59s-131.666 93.5 -171.999 162.5s-60.5 145.833 -60.5 230.5
c0 83.333 16.333 159.5 49 228.5s77.667 144.5 135 226.5l297 426h281l-311 -441c31.333 4 60.666 6.33301 87.999 7c87.333 0 166.5 -18.167 237.5 -54.5zM756.5 271.499c47 41.667 70.501 96.5 70.501 164.5s-22.833 121.833 -68.5 161.5s-101.834 59.5 -168.501 59.5
c-68 0 -125.667 -20 -173 -60s-71 -94.333 -71 -163c0 -68 22.833 -122.5 68.5 -163.5s102.167 -61.5 169.5 -61.5c68 0 125.5 20.833 172.5 62.5z" />
    <glyph glyph-name="seven" unicode="7" horiz-adv-x="952" 
d="M915 1313v-203l-509 -1110h-277l500 1090h-592v223h878z" />
    <glyph glyph-name="eight" unicode="8" horiz-adv-x="1122" 
d="M991 575.5c35.333 -55.667 53.002 -119.833 53.002 -192.5c0 -82 -20.667 -153.333 -62 -214s-99 -107 -173 -139s-156.667 -48 -248 -48c-92.667 0 -175.5 16.333 -248.5 49s-130.667 79 -173 139s-63.5 131 -63.5 213c0 74 17.667 138.5 53 193.5s83 96.167 143 123.5
c-46.667 28.667 -83.834 68 -111.501 118s-41.5 103.667 -41.5 161c0 68 18.667 129.333 56 184s89.833 97.334 157.5 128.001s144.5 46 230.5 46s162.167 -15.333 228.5 -46s118.333 -73.334 156 -128.001s56.5 -116.667 56.5 -186c0 -60 -14.833 -114.667 -44.5 -164
s-67.5 -87 -113.5 -113c61.333 -27.333 109.666 -68.833 144.999 -124.5zM427.002 1069c-34.667 -28.667 -51.999 -66.333 -51.999 -113c0 -48 18 -86.5 54 -115.5s80.667 -43.5 134 -43.5c52 0 95.833 14.667 131.5 44s53.5 67 53.5 113c0 46.667 -17.167 84.667 -51.5 114
s-79.5 44 -135.5 44c-54.667 0 -99.334 -14.333 -134.001 -43zM719.503 260.002c41.667 34 62.501 79 62.501 135s-20.5 100.5 -61.5 133.5s-93.5 49.5 -157.5 49.5c-66.667 0 -120.834 -16.5 -162.501 -49.5s-62.5 -77.5 -62.5 -133.5s20.833 -101 62.5 -135
s94.5 -51 158.5 -51c65.333 0 118.833 17 160.5 51z" />
    <glyph glyph-name="nine" unicode="9" horiz-adv-x="1175" 
d="M858 1277c75.333 -40 133.167 -94.5 173.5 -163.5s60.5 -145.833 60.5 -230.5c0 -58.667 -9.33301 -115 -28 -169s-39.5 -100.167 -62.5 -138.5s-55.167 -86.833 -96.5 -145.5l-295 -430h-282l311 440c-26 -5.33301 -54.667 -8 -86 -8c-87.333 0 -166.5 18.5 -237.5 55.5
s-127 88.833 -168 155.5s-61.5 142.334 -61.5 227.001c0 90 21.833 170.667 65.5 242s104.167 126.666 181.5 165.999s164.333 59 261 59c100.667 0 188.667 -20 264 -60zM414.501 715.5c45.667 -40.333 102.833 -60.5 171.5 -60.5c68 0 125.167 20.167 171.5 60.5
s69.5 94.833 69.5 163.5c0 68 -23.167 122.167 -69.5 162.5s-102.833 60.5 -169.5 60.5c-68 0 -125.333 -20.5 -172 -61.5s-70 -94.833 -70 -161.5c0 -68.667 22.833 -123.167 68.5 -163.5z" />
    <glyph glyph-name="colon" unicode=":" horiz-adv-x="626" 
d="M203 662.5c-31.333 31 -47 67.501 -47 109.501s15.667 78.5 47 109.5s68 46.5 110 46.5c44 0 81.667 -15.333 113 -46s47 -67.334 47 -110.001c0 -42 -15.667 -78.5 -47 -109.5s-69 -46.5 -113 -46.5c-42 0 -78.667 15.5 -110 46.5zM202 35.001
c-30.667 30 -46 66.667 -46 110c0 42 15.333 78.833 46 110.5s67.667 47.5 111 47.5c42 0 79.167 -16 111.5 -48s48.5 -68.667 48.5 -110c0 -42 -15.667 -78.333 -47 -109s-69 -46 -113 -46c-43.333 0 -80.333 15 -111 45z" />
    <glyph glyph-name="semicolon" unicode=";" horiz-adv-x="593" 
d="M190.5 661.5c-31.667 30.333 -47.5 67.168 -47.5 110.501c0 42 15.833 78.5 47.5 109.5s69.167 46.5 112.5 46.5c44 0 81.667 -15.333 113 -46s47 -67.334 47 -110.001c0 -44 -15.667 -81 -47 -111s-69 -45 -113 -45c-43.333 0 -80.833 15.167 -112.5 45.5zM425 243.502
c33.333 -35.667 49.999 -82.833 49.999 -141.5c0 -95.333 -31.667 -175.5 -95 -240.5s-143.666 -100.833 -240.999 -107.5v76c61.333 8 108.5 28.5 141.5 61.5s49.5 71.167 49.5 114.5c-13.333 -6.66699 -30.333 -10 -51 -10c-44 0 -79.667 13 -107 39s-41 60.667 -41 104
c0 46.667 15.333 84.667 46 114s70.667 44 120 44c52 0 94.667 -17.833 128 -53.5z" />
    <glyph glyph-name="less" unicode="&#x3c;" horiz-adv-x="800" 
d="M66 598l659 330v-281l-383 -184l383 -184v-279l-659 330v268z" />
    <glyph glyph-name="equal" unicode="=" horiz-adv-x="1120" 
d="M913 938v-213h-706v213h706zM913 494v-215h-706v215h706z" />
    <glyph glyph-name="greater" unicode="&#x3e;" horiz-adv-x="813" 
d="M76 279l383 184l-383 184v281l659 -330v-268l-659 -330v279z" />
    <glyph glyph-name="question" unicode="?" horiz-adv-x="1007" 
d="M728 1294c63.333 -28.667 112.834 -68.5 148.501 -119.5s53.5 -110.833 53.5 -179.5c0 -70.667 -17.5 -130.334 -52.5 -179.001s-85.167 -101.667 -150.5 -159c-49.333 -44 -85.5 -80.167 -108.5 -108.5s-35.833 -59.5 -38.5 -93.5v-25h-236v25
c0 65.333 16.333 121.166 49 167.499s80.667 96.833 144 151.5c49.333 42 85.5 77.833 108.5 107.5s34.5 62.834 34.5 99.501c0 44 -16 79.5 -48 106.5s-74 40.5 -126 40.5c-58.667 0 -105.834 -17.667 -141.501 -53s-52.167 -79.666 -49.5 -132.999h-237
c-2.66699 72.667 13.333 139 48 199s85.5 107.667 152.5 143s144.833 53 233.5 53c80.667 0 152.667 -14.333 216 -43zM589.001 262c33.333 -30 50.002 -70.333 50.002 -121s-16.333 -90.667 -49 -120s-74.334 -44 -125.001 -44c-49.333 0 -90.666 14.833 -123.999 44.5
s-50 69.5 -50 119.5c0 50.667 16.667 91 50 121s74.666 45 123.999 45s90.666 -15 123.999 -45z" />
    <glyph glyph-name="at" unicode="@" horiz-adv-x="1961" 
d="M1423.5 1231.5c131 -70.333 234.334 -167.829 310.001 -292.496s113.5 -265.667 113.5 -423c0 -96.667 -16.333 -182.334 -49 -257.001s-79.334 -132.667 -140.001 -174s-130.667 -62 -210 -62c-86 0 -152.833 22.167 -200.5 66.5s-76.5 97.166 -86.5 158.499
c-26 -36.667 -60.833 -65.667 -104.5 -87s-92.167 -32 -145.5 -32c-102.667 0 -186 33.833 -250 101.5s-96 156.167 -96 265.5s33.5 198.333 100.5 267s153.833 103 260.5 103c53.333 0 101.833 -10.167 145.5 -30.5s77.834 -48.833 102.501 -85.5l10 96h155v-522
c0 -40.667 11.333 -72.667 34 -96s51 -35 85 -35c61.333 0 108.5 27.833 141.5 83.5s49.5 132.167 49.5 229.5c0 126.667 -28 239.5 -84 338.5s-134.167 175.833 -234.5 230.5s-215.5 82 -345.5 82s-246.167 -28.333 -348.5 -85s-181.833 -135.834 -238.5 -237.501
s-85 -217.5 -85 -347.5c0 -132.667 28.667 -249.667 86 -351s136.5 -180.333 237.5 -237s216.5 -85 346.5 -85c139.333 0 264.333 34 375 102l86 -164c-138 -79.333 -291.667 -119 -461 -119c-164 0 -311.833 35.833 -443.5 107.5s-235.334 172.167 -311.001 301.5
s-113.5 277.666 -113.5 444.999c0 166.667 38.167 314.5 114.5 443.5s180.333 229 312 300s279.5 106.5 443.5 106.5c161.333 0 307.5 -35.167 438.5 -105.5zM1096.5 340.004c37.667 39.333 56.502 92 56.502 158c0 64 -18.833 115.833 -56.5 155.5
s-85.834 59.5 -144.501 59.5c-62.667 0 -112.834 -20.167 -150.501 -60.5s-56.5 -91.833 -56.5 -154.5c0 -64 19.167 -116.167 57.5 -156.5s88.166 -60.5 149.499 -60.5c58.667 0 106.834 19.667 144.501 59z" />
    <glyph glyph-name="A" unicode="A" horiz-adv-x="1275" 
d="M506 1313h264l487 -1313h-280l-103 287h-477l-104 -287h-275zM797 508l-68.001 192c-20.667 56 -39.167 109.333 -55.5 160s-27.166 85 -32.499 103c-5.33301 -18 -18 -55.667 -38 -113s-38.667 -108 -56 -152l-72 -190h322z" />
    <glyph glyph-name="B" unicode="B" horiz-adv-x="1216" 
d="M1085.5 539.5c41 -52.333 61.501 -117.502 61.501 -195.502c0 -109.333 -41 -194 -123 -254s-193.333 -90 -334 -90h-545v1313h545c138 0 246.333 -32.833 325 -98.5s118 -152.5 118 -260.5c0 -76.667 -18.833 -140.167 -56.5 -190.5s-89.834 -87.166 -156.501 -110.499
c69.333 -23.333 124.5 -61.166 165.5 -113.499zM406.001 1087v-335h272c61.333 0 108.333 16.333 141 49s49 71.667 49 117c0 44 -16.333 83.167 -49 117.5s-79.667 51.5 -141 51.5h-272zM834.501 268.998c35 29.333 52.5 68.667 52.5 118
c0 50.667 -18.167 91.667 -54.5 123s-81.833 47 -136.5 47h-290v-332h290c57.333 0 103.5 14.667 138.5 44z" />
    <glyph glyph-name="C" unicode="C" horiz-adv-x="1470" 
d="M399.5 58c-103.667 56.667 -184.502 136.666 -242.502 239.999s-87 223 -87 359c0 135.333 28.333 254.5 85 357.5s136.834 182.833 240.501 239.5s223.167 85 358.5 85c110.667 0 212.334 -19 305.001 -57s169 -93.167 229 -165.5s97.667 -157.166 113 -254.499h-297
c-18 68 -59 123.667 -123 167s-141 65 -231 65c-122.667 0 -220 -40 -292 -120s-108 -186.333 -108 -319c0 -134 36.5 -239.833 109.5 -317.5s169.833 -116.5 290.5 -116.5c87.333 0 163.333 21.167 228 63.5s106.667 98.5 126 168.5h297
c-13.333 -94 -49.5 -177.333 -108.5 -250s-135.167 -129.167 -228.5 -169.5s-196.666 -60.5 -309.999 -60.5c-132.667 0 -250.834 28.333 -354.501 85z" />
    <glyph glyph-name="D" unicode="D" horiz-adv-x="1384" 
d="M994.5 1229c100.333 -56 178.834 -134.168 235.501 -234.501s85 -214.166 85 -341.499c0 -126.667 -28 -239.5 -84 -338.5s-134.167 -176.167 -234.5 -231.5s-214.833 -83 -343.5 -83h-508v1313h508c127.333 0 241.166 -28 341.499 -84zM924.501 354.499
c73 75 109.501 174.5 109.501 298.5c0 125.333 -36.833 226.333 -110.5 303s-171.834 115 -294.501 115h-217v-829h217c124 0 222.5 37.5 295.5 112.5z" />
    <glyph glyph-name="E" unicode="E" horiz-adv-x="1101" 
d="M410 1071v-293h524v-231h-524v-305h587v-242h-852v1313h852v-242h-587z" />
    <glyph glyph-name="F" unicode="F" horiz-adv-x="1058" 
d="M412 1071v-313h493l-2 -232h-491v-526h-267v1313h854v-242h-587z" />
    <glyph glyph-name="G" unicode="G" horiz-adv-x="1472" 
d="M1405 719l-0.00195312 -131c0 -121.333 -28.333 -228.5 -85 -321.5s-135.167 -165.167 -235.5 -216.5s-214.833 -77 -343.5 -77c-134 0 -251.667 28 -353 84s-179.666 134.833 -234.999 236.5s-83 219.5 -83 353.5c0 136.667 28.667 257.167 86 361.5
s137.833 185.5 241.5 243.5s222.5 87 356.5 87c108 0 206.333 -19 295 -57s161.667 -91.5 219 -160.5s94 -148.5 110 -238.5h-282c-23.333 66.667 -66.5 118.5 -129.5 155.5s-135.833 55.5 -218.5 55.5c-124 0 -222 -40.333 -294 -121s-108 -188 -108 -322
s35.833 -239.167 107.5 -315.5s169.834 -114.5 294.501 -114.5c98 0 180.5 23.5 247.5 70.5s107.833 113.833 122.5 200.5h-387v227h674z" />
    <glyph glyph-name="H" unicode="H" horiz-adv-x="1357" 
d="M145 1313h267v-535h549v535h268v-1313h-268v547h-549v-547h-267v1313z" />
    <glyph glyph-name="I" unicode="I" horiz-adv-x="540" 
d="M145 0v1313h267v-1313h-267z" />
    <glyph glyph-name="J" unicode="J" horiz-adv-x="1056" 
d="M922 383c0 -125.333 -40.668 -225.002 -122.001 -299.002s-189 -111 -323 -111c-131.333 1.33301 -236.166 39.333 -314.499 114s-117.5 173.334 -117.5 296.001v72h256v-62c0 -57.333 16 -101.666 48 -132.999s74.667 -47 128 -47c57.333 0 101.333 16 132 48
s46 76 46 132v678h-395v242h662v-930z" />
    <glyph glyph-name="K" unicode="K" horiz-adv-x="1275" 
d="M801 748l452 -748h-321l-314 520l-206 -258v-266h-267v1317h267v-639l510 639h331z" />
    <glyph glyph-name="L" unicode="L" horiz-adv-x="999" 
d="M952 240v-240h-807v1313h269v-1073h538z" />
    <glyph glyph-name="M" unicode="M" horiz-adv-x="1593" 
d="M1450 1313v-1313h-260v236c0 164 6.66699 326.333 20 487l-307 -686h-237l-291 682c16.667 -180 24.667 -341 24 -483v-236h-254v1313h236l412 -979l419 979h238z" />
    <glyph glyph-name="N" unicode="N" horiz-adv-x="1374" 
d="M1231 1313v-1313h-248l-573 852v-852h-265v1313h248l576 -858v858h262z" />
    <glyph glyph-name="O" unicode="O" horiz-adv-x="1538" 
d="M1378 301c-60 -104 -143.167 -184.665 -249.5 -241.998s-226.5 -86 -360.5 -86s-253.833 28.667 -359.5 86s-188.5 137.666 -248.5 240.999s-90 221.666 -90 354.999c0 132.667 30 250.834 90 354.501s142.833 184.5 248.5 242.5s225.5 87 359.5 87
s254.167 -28.667 360.5 -86s189.5 -137.833 249.5 -241.5s90 -221.834 90 -354.501c0 -133.333 -30 -252 -90 -356zM1132.5 883.502c-35.667 66.333 -85.1699 117.666 -148.503 153.999s-134.666 54.5 -213.999 54.5c-80.667 0 -152.667 -18.5 -216 -55.5
s-113.166 -88.333 -149.499 -154s-54.5 -141.5 -54.5 -227.5s17.833 -161.667 53.5 -227s85.167 -116.166 148.5 -152.499s135.333 -54.5 216 -54.5s152.334 18.5 215.001 55.5s112.167 88.5 148.5 154.5s54.5 141.333 54.5 226s-17.833 160.167 -53.5 226.5z" />
    <glyph glyph-name="P" unicode="P" horiz-adv-x="1193" 
d="M1022 1196c80.667 -78 120.999 -183.667 120.999 -317c0 -86 -18.167 -161.833 -54.5 -227.5s-89 -117 -158 -154s-150.5 -55.5 -244.5 -55.5h-274v-442h-267v1313h545c140.667 0 251.334 -39 332.001 -117zM806.999 733.5c38 41 57 91.5 57 151.5
c0 52 -18.667 97.333 -56 136s-93 58 -167 58h-229v-407h225c75.333 0 132 20.5 170 61.5z" />
    <glyph glyph-name="Q" unicode="Q" horiz-adv-x="1538" 
d="M1395.5 333.5c-48.333 -95.667 -116.167 -174.167 -203.5 -235.5s-187.666 -100 -300.999 -116v-68c0 -46.667 9.5 -82.167 28.5 -106.5s57.833 -36.5 116.5 -36.5c30 0 56 2 78 6v-209c-54.667 -10.667 -102.334 -16.334 -143.001 -17.001
c-221.333 0 -332 106.667 -332 320v113c-112 16.667 -211 55.167 -297 115.5s-152.833 138.333 -200.5 234s-71.5 202.834 -71.5 321.501c0 132.667 30 250.834 90 354.501s142.833 184.5 248.5 242.5s225.5 87 359.5 87s254.167 -28.667 360.5 -86
s189.5 -137.833 249.5 -241.5s90 -221.834 90 -354.501c0 -120 -24.167 -227.833 -72.5 -323.5zM403.499 428c35.667 -65.333 85.1641 -116.166 148.497 -152.499s135.333 -54.5 216 -54.5s152.334 18.5 215.001 55.5s112.167 88.5 148.5 154.5s54.5 141.333 54.5 226
s-17.833 160.167 -53.5 226.5s-85.167 117.666 -148.5 153.999s-134.666 54.5 -213.999 54.5c-80.667 0 -152.667 -18.5 -216 -55.5s-113.166 -88.333 -149.499 -154s-54.5 -141.5 -54.5 -227.5s17.833 -161.667 53.5 -227z" />
    <glyph glyph-name="R" unicode="R" horiz-adv-x="1253" 
d="M145 1313l523 -0.000976562c166.667 0 292.167 -35.833 376.5 -107.5s126.5 -175.167 126.5 -310.5c0 -90 -20 -167.167 -60 -231.5s-97.667 -112.166 -173 -143.499l244 -520h-299l-211 475h-260v-475h-267v1313zM668 706.999c75.333 0 131.333 17.332 168 51.999
s55 79.334 55 134.001c0 56 -18.5 101.333 -55.5 136s-92.833 52 -167.5 52h-256v-374h256z" />
    <glyph glyph-name="S" unicode="S" horiz-adv-x="1167" 
d="M161.5 1147c39.667 61.333 96.002 108.668 169.002 142.001s157.5 50 253.5 50c94 0 176.833 -16.333 248.5 -49s128 -78.667 169 -138s61.5 -128.666 61.5 -207.999h-275c-1.33301 52 -22 93.333 -62 124s-92.333 46 -157 46c-58.667 0 -105.334 -13.667 -140.001 -41
s-52 -63.333 -52 -108c0 -45.333 15 -78.5 45 -99.5s72.333 -37.833 127 -50.5l211 -51c106.667 -23.333 189.667 -67.333 249 -132s89 -145.667 89 -243c0 -84.667 -20.833 -158.334 -62.5 -221.001s-100.834 -110.834 -177.501 -144.501s-165.334 -50.5 -266.001 -50.5
c-151.333 0 -274.166 36.667 -368.499 110s-145.5 173.333 -153.5 300h274c2.66699 -57.333 26.5 -102.333 71.5 -135s104.5 -49 178.5 -49c69.333 0 123.833 14.333 163.5 43s59.5 68 59.5 118c0 42 -13.333 74 -40 96s-63 39.333 -109 52l-217 53
c-114.667 26 -201.5 70.833 -260.5 134.5s-88.5 142.5 -88.5 236.5c0 82 19.833 153.667 59.5 215z" />
    <glyph glyph-name="T" unicode="T" horiz-adv-x="1124" 
d="M1092 1071h-396v-1071h-266v1071h-397v242h1059v-242z" />
    <glyph glyph-name="U" unicode="U" horiz-adv-x="1384" 
d="M135 1313h266v-821c0 -94 27 -163.667 81 -209s124 -68 210 -68c91.333 0 163 23.5 215 70.5s78 115.833 78 206.5v821h266v-832c0 -108 -23.833 -200.167 -71.5 -276.5s-113.5 -134 -197.5 -173s-180.667 -58.5 -290 -58.5c-169.333 0 -304.5 44.833 -405.5 134.5
s-151.5 214.167 -151.5 373.5v832z" />
    <glyph glyph-name="V" unicode="V" horiz-adv-x="1341" 
d="M309 1313l178 -455l90 -255l97 -277l97.5 277.5l90.5 254.5l176 455h285l-512 -1313h-272l-521 1313h291z" />
    <glyph glyph-name="W" unicode="W" horiz-adv-x="1931" 
d="M309 1313l141.999 -466.999c34 -113.333 60.5 -208.333 79.5 -285s30.5 -124.334 34.5 -143.001c26 80.667 67.667 220.667 125 420l133 440h289l166 -551l92 -309c0 5.33301 10.333 50 31 134s48.667 182 84 294l141 467h285l-414 -1313h-258l-80 256l-114.5 375.5
c-38.333 129 -64.166 218.833 -77.499 269.5l-85 -293l-106 -352l-80 -256h-258l-413 1313h284z" />
    <glyph glyph-name="X" unicode="X" horiz-adv-x="1337" 
d="M375 1313l138.999 -198.999c22 -31.333 51.333 -78 88 -140l74 -124l293 463h336l-465 -658l465 -657h-342l-119 172l-102.5 164c-34.333 57.333 -56.166 94.666 -65.499 111.999l-311 -446h-332l471 655l-473 658h344z" />
    <glyph glyph-name="Y" unicode="Y" horiz-adv-x="1245" 
d="M328 1313l143.001 -250l104 -187.5c27.333 -49.667 44.666 -82.167 51.999 -97.5c6.66699 15.333 24.667 50.333 54 105l101 180l144 250h299l-467 -793v-520h-269v520l-471 793h310z" />
    <glyph glyph-name="Z" unicode="Z" horiz-adv-x="1124" 
d="M1049 1108l-627 -866h622v-242h-968v215l626 856h-614v242h961v-205z" />
    <glyph glyph-name="bracketleft" unicode="[" horiz-adv-x="579" 
d="M569 -188h-436v1716h436v-195h-221v-1327h221v-194z" />
    <glyph glyph-name="backslash" unicode="\" horiz-adv-x="782" 
d="M530 0l-530 1313h254l528 -1313h-252z" />
    <glyph glyph-name="bracketright" unicode="]" horiz-adv-x="577" 
d="M231 6v1327h-221v195h434v-1716h-434v194h221z" />
    <glyph glyph-name="asciicircum" unicode="^" horiz-adv-x="962" 
d="M596 887l-115 217l-112 -217h-217l221 426h217l221 -426h-215z" />
    <glyph glyph-name="underscore" unicode="_" horiz-adv-x="790" 
d="M795 -31v-182h-799v182h799z" />
    <glyph glyph-name="grave" unicode="`" horiz-adv-x="679" 
d="M109 1690l127 127l311 -334l-76 -78z" />
    <glyph glyph-name="a" unicode="a" horiz-adv-x="1185" 
d="M1069 918l0.000976562 -918h-244v117c-31.333 -44 -75.666 -79 -132.999 -105s-120 -39 -188 -39c-84.667 0 -159.834 19.833 -225.501 59.5s-116.834 95.667 -153.501 168s-55 156.5 -55 252.5c0 98 19 184.5 57 259.5s91.833 133 161.5 174s148.834 61.5 237.501 61.5
c68 0 128.667 -11.5 182 -34.5s96.666 -56.5 129.999 -100.5l20 105h211zM745.501 275.5c45 47 67.5 109.502 67.5 187.502s-22.167 140.5 -66.5 187.5s-102.833 70.5 -175.5 70.5c-74 0 -132.667 -23.833 -176 -71.5s-65 -109.834 -65 -186.501
s22.167 -138.834 66.5 -186.501s101.833 -71.5 172.5 -71.5c72.667 0 131.5 23.5 176.5 70.5z" />
    <glyph glyph-name="b" unicode="b" horiz-adv-x="1189" 
d="M902.5 887.5c69 -40.333 122.499 -97.6699 160.499 -172.003s57 -159.166 57 -254.499s-19 -180.333 -57 -255s-91.167 -132.167 -159.5 -172.5s-146.166 -60.5 -233.499 -60.5c-69.333 0 -132.833 13.333 -190.5 40s-102.167 63.334 -133.5 110.001l-16 -123h-211v1405
h254v-571c31.333 36.667 72.5 64.834 123.5 84.501s108.167 29.5 171.5 29.5c87.333 0 165.5 -20.167 234.5 -60.5zM793.499 276.496c44.333 47.667 66.5 109.832 66.5 186.499s-22.167 138.834 -66.5 186.501s-102.833 71.5 -175.5 71.5s-131 -23.5 -175 -70.5
s-66 -109.5 -66 -187.5s22.5 -140.5 67.5 -187.5s103.833 -70.5 176.5 -70.5c70.667 0 128.167 23.833 172.5 71.5z" />
    <glyph glyph-name="c" unicode="c" horiz-adv-x="1095" 
d="M131.5 716.5c41 73.667 98.6641 130.667 172.997 171s159.833 60.5 256.5 60.5c130 0 237.333 -34.167 322 -102.5s132.334 -159.833 143.001 -274.5h-260c-12 49.333 -36.5 87 -73.5 113s-82.167 39 -135.5 39c-68 0 -122.833 -23.833 -164.5 -71.5
s-62.5 -111.834 -62.5 -192.501c0 -79.333 20.5 -142.833 61.5 -190.5s96.167 -71.5 165.5 -71.5c54.667 0 100.834 14 138.501 42s61.167 64.333 70.5 109h260c-12 -112 -60.667 -202.5 -146 -271.5s-191.666 -103.5 -318.999 -103.5
c-96.667 0 -182.167 20.167 -256.5 60.5s-132 97.333 -173 171s-61.5 159.167 -61.5 256.5c0 96.667 20.5 181.834 61.5 255.501z" />
    <glyph glyph-name="d" unicode="d" horiz-adv-x="1179" 
d="M1069 1405v-1405h-211l-16 123c-31.333 -45.333 -75.666 -81.666 -132.999 -108.999s-120.333 -41 -189 -41c-87.333 0 -165.166 20.167 -233.499 60.5s-121.5 97.666 -159.5 171.999s-57 159.5 -57 255.5c0 95.333 19 180.166 57 254.499s91.167 131.666 159.5 171.999
s146.166 60.5 233.499 60.5c64 0 121.667 -9.83301 173 -29.5s92.666 -47.834 123.999 -84.501v571h252zM745.5 275.503c45 47 67.5 109.502 67.5 187.502s-22.167 140.5 -66.5 187.5s-102.833 70.5 -175.5 70.5c-74 0 -132.667 -23.833 -176 -71.5
s-65 -109.834 -65 -186.501s22.167 -138.834 66.5 -186.501s101.833 -71.5 172.5 -71.5c72.667 0 131.5 23.5 176.5 70.5z" />
    <glyph glyph-name="e" unicode="e" horiz-adv-x="1062" 
d="M850 60c-83.333 -58 -182.335 -87.002 -297.002 -87.002c-95.333 0 -179.666 20.5 -252.999 61.5s-130 98.667 -170 173s-60 159.5 -60 255.5c0 96.667 20 181.834 60 255.501s96.333 130.334 169 170.001s155.334 59.5 248.001 59.5c90 0 169.5 -18.667 238.5 -56
s122.667 -89.5 161 -156.5s57.5 -142.833 57.5 -227.5c0 -34 -3.66699 -73.667 -11 -119h-671c2.66699 -62.667 25.167 -113.167 67.5 -151.5s96.833 -57.5 163.5 -57.5c49.333 0 92 10 128 30s61.667 47 77 81h248c-20.667 -96 -72.667 -173 -156 -231zM742.998 558.998
c-1.33301 56 -20.999 100.001 -58.999 132.001s-86.333 48 -145 48c-61.333 0 -111.833 -16.333 -151.5 -49s-60.834 -76.334 -63.501 -131.001h419z" />
    <glyph glyph-name="f" unicode="f" horiz-adv-x="708" 
d="M477.5 1154c-17.667 -32 -26.501 -72.667 -26.501 -122v-114h221v-209h-221v-709h-254v709h-168v209h168v155c0 229.333 118.667 344 356 344c40.667 0 80.334 -4 119.001 -12v-209c-12 4 -34 6 -66 6c-68 0 -110.833 -16 -128.5 -48z" />
    <glyph glyph-name="g" unicode="g" horiz-adv-x="1169" 
d="M1061 918v-917.999c0 -91.333 -20.167 -171.5 -60.5 -240.5s-98 -122.333 -173 -160s-163.833 -56.5 -266.5 -56.5c-134 0 -245 35.167 -333 105.5s-138 164.833 -150 283.5h252c9.33301 -54.667 35.166 -95.834 77.499 -123.501s94.166 -41.5 155.499 -41.5
c76.667 0 136.167 20 178.5 60s63.5 94.333 63.5 163v153c-28.667 -39.333 -69 -70.666 -121 -93.999s-110.667 -35 -176 -35c-84.667 0 -160.167 19.5 -226.5 58.5s-118.166 93.333 -155.499 163s-56 149.5 -56 239.5c0 91.333 19 173.166 57 245.499
s90.5 128.333 157.5 168s142.833 59.5 227.5 59.5c66.667 0 126.334 -12.667 179.001 -38s92.667 -59 120 -101l14 109h236zM730.5 305.501c44.333 46.333 66.499 104.831 66.499 175.498c0 72.667 -22.167 131.834 -66.5 177.501s-101.5 68.5 -171.5 68.5
c-68 0 -123.167 -23.167 -165.5 -69.5s-63.5 -105.166 -63.5 -176.499c0 -72.667 21.833 -131.667 65.5 -177s98.834 -68 165.501 -68c68.667 0 125.167 23.167 169.5 69.5z" />
    <glyph glyph-name="h" unicode="h" horiz-adv-x="1101" 
d="M119 1405l255.999 -0.000976562v-586c27.333 40.667 65.833 72.334 115.5 95.001s103.167 34 160.5 34c108 0 191.667 -33.833 251 -101.5s89 -160.167 89 -277.5v-569h-254v510c0 80.667 -17.667 135.667 -53 165s-73.666 44 -114.999 44
c-48 0 -92.667 -14.333 -134 -43s-62 -80.667 -62 -156v-520h-254v1405z" />
    <glyph glyph-name="i" unicode="i" horiz-adv-x="493" 
d="M124 1125.5c-33.333 32.333 -50 71.5 -50 117.5c0 46.667 16.667 86 50 118s74.666 48 123.999 48c50.667 0 92 -15.667 124 -47s48 -71 48 -119c0 -46.667 -16.333 -86 -49 -118s-73.667 -48 -123 -48s-90.666 16.167 -123.999 48.5zM121 918h254v-918h-254v918z" />
    <glyph glyph-name="j" unicode="j" horiz-adv-x="493" 
d="M124 1125.5c-33.333 32.333 -50 71.5 -50 117.5c0 46.667 16.667 86 50 118s74.666 48 123.999 48c50.667 0 92 -15.667 124 -47s48 -71 48 -119c0 -46.667 -16.333 -86 -49 -118s-73.667 -48 -123 -48s-90.666 16.167 -123.999 48.5zM121 918h254v-1346h-254v1346z" />
    <glyph glyph-name="k" unicode="k" horiz-adv-x="1052" 
d="M698 578l312 -578h-289l-203 389l-143 -147v-242h-256v1405h256v-850l338 363h313z" />
    <glyph glyph-name="l" unicode="l" horiz-adv-x="493" 
d="M119 1405h256v-1405h-256v1405z" />
    <glyph glyph-name="m" unicode="m" horiz-adv-x="1662" 
d="M1459 855c62 -62 92.999 -145.666 92.999 -250.999v-604h-254v543c0 60 -14.333 106 -43 138s-66.667 48 -114 48c-56 0 -99.667 -18.5 -131 -55.5s-47 -84.833 -47 -143.5v-530h-250v543c0 57.333 -15 102.333 -45 135s-70.333 49 -121 49
c-52 0 -93.667 -18.833 -125 -56.5s-47 -84.5 -47 -140.5v-530h-256v918h233l13 -93c27.333 38 64.833 68 112.5 90s97.5 33 149.5 33c66.667 0 126 -15 178 -45s90.333 -71 115 -123c27.333 53.333 66.833 94.666 118.5 123.999s111.834 44 180.501 44
c98 0 178 -31 240 -93z" />
    <glyph glyph-name="n" unicode="n" horiz-adv-x="1093" 
d="M893 845.5c61.333 -68.333 92 -160.5 92 -276.5v-569h-256v510c0 139.333 -56 209 -168 209c-61.333 0 -108 -18.167 -140 -54.5s-48 -84.5 -48 -144.5v-520h-254v918h213l16 -107c28.667 42 69 75.333 121 100s108.667 37 170 37c108 0 192.667 -34.167 254 -102.5z" />
    <glyph glyph-name="o" unicode="o" horiz-adv-x="1153" 
d="M133.5 712.5c42.333 73.667 102.001 131.332 179.001 172.999s164.5 62.5 262.5 62.5s185.667 -20.833 263 -62.5s137.166 -99.334 179.499 -173.001s63.5 -157.5 63.5 -251.5s-21.167 -178 -63.5 -252s-102 -131.833 -179 -173.5s-164.833 -62.5 -263.5 -62.5
c-98 0 -185.167 20.833 -261.5 62.5s-136 99.334 -179 173.001s-64.5 157.834 -64.5 252.501c0 94 21.167 177.833 63.5 251.5zM398.501 273.498c45.667 -49.667 104.499 -74.5 176.499 -74.5c72.667 0 131.834 24.833 177.501 74.5s68.5 112.167 68.5 187.5
c0 76.667 -22.5 139.167 -67.5 187.5s-104.5 72.5 -178.5 72.5c-72.667 0 -131.667 -24.333 -177 -73s-68 -111 -68 -187c0 -75.333 22.833 -137.833 68.5 -187.5z" />
    <glyph glyph-name="p" unicode="p" horiz-adv-x="1189" 
d="M903.5 887.5c68.333 -40.333 121.504 -97.668 159.504 -172.001s57 -159.166 57 -254.499s-19 -180 -57 -254s-91.5 -131.5 -160.5 -172.5s-147.167 -61.5 -234.5 -61.5c-62.667 0 -119.334 10 -170.001 30s-92.334 48.333 -125.001 85v-516h-254v1346h211l16 -119
c31.333 46.667 75.666 83.167 132.999 109.5s121 39.5 191 39.5c87.333 0 165.166 -20.167 233.499 -60.5zM793.504 274.498c44.333 47.667 66.5 109.832 66.5 186.499s-22.167 138.834 -66.5 186.501s-101.833 71.5 -172.5 71.5c-72.667 0 -131.5 -23.5 -176.5 -70.5
s-67.5 -110.167 -67.5 -189.5c0 -78 22.167 -140.167 66.5 -186.5s102.5 -69.5 174.5 -69.5c72.667 0 131.167 23.833 175.5 71.5z" />
    <glyph glyph-name="q" unicode="q" horiz-adv-x="1179" 
d="M1069 918v-1346h-252v520c-34 -38 -77.667 -67.333 -131 -88s-110.666 -31 -171.999 -31c-87.333 1.33301 -164.5 22.5 -231.5 63.5s-119.167 98.333 -156.5 172s-56 158.5 -56 254.5c0 95.333 19 179.833 57 253.5s91.167 130.667 159.5 171s146.166 60.5 233.499 60.5
c69.333 0 132.833 -13 190.5 -39s101.5 -62 131.5 -108l16 117h211zM745.5 272.5c45 46.333 67.5 108.5 67.5 186.5s-22.5 140.833 -67.5 188.5s-103.833 71.5 -176.5 71.5c-70.667 0 -128.167 -24 -172.5 -72s-66.5 -110 -66.5 -186c0 -78 21.833 -140.5 65.5 -187.5
s102.167 -70.5 175.5 -70.5c71.333 0 129.5 23.167 174.5 69.5z" />
    <glyph glyph-name="r" unicode="r" horiz-adv-x="708" 
d="M678 918l0.000976562 -220c-10.667 1.33301 -27 2 -49 2c-82 0 -144.833 -22.167 -188.5 -66.5s-65.5 -106.833 -65.5 -187.5v-446h-256v918h231l21 -132c13.333 46.667 40.166 82 80.499 106s87.833 36 142.5 36c35.333 0 63.333 -3.33301 84 -10z" />
    <glyph glyph-name="s" unicode="s" horiz-adv-x="931" 
d="M188.5 55c-72.333 54.667 -111.833 127.668 -118.5 219.001h252c1.33301 -35.333 15.666 -62.833 42.999 -82.5s62 -29.5 104 -29.5c39.333 0 70.666 7.83301 93.999 23.5s35 37.834 35 66.501s-8.83301 49.167 -26.5 61.5s-41.5 21.833 -71.5 28.5l-152 35
c-87.333 20.667 -151.833 54.167 -193.5 100.5s-62.5 102.833 -62.5 169.5c0 90 34.5 162.667 103.5 218s159.5 83 271.5 83c109.333 0 198.5 -27.333 267.5 -82s104.833 -126.334 107.5 -215.001h-250c-1.33301 32.667 -13.666 58.667 -36.999 78s-54.666 29 -93.999 29
c-34 0 -61.333 -7.5 -82 -22.5s-31 -36.167 -31 -63.5c0 -26 8.16699 -44.5 24.5 -55.5s41.833 -20.5 76.5 -28.5l176 -41c80.667 -19.333 140 -52.5 178 -99.5s57 -103.167 57 -168.5c0 -92.667 -35.5 -166.834 -106.5 -222.501s-165.167 -83.5 -282.5 -83.5
c-116 0 -210.167 27.333 -282.5 82z" />
    <glyph glyph-name="t" unicode="t" horiz-adv-x="665" 
d="M633 709h-174v-709h-254v709h-172v209h172v239h254v-239h174v-209z" />
    <glyph glyph-name="u" unicode="u" horiz-adv-x="1075" 
d="M965 918l-0.00195312 -918.001h-211l-17 109c-32.667 -45.333 -73.167 -79.333 -121.5 -102s-103.166 -34 -164.499 -34c-109.333 0 -193.666 32.833 -252.999 98.5s-89 153.834 -89 264.501v582h256v-541c0 -65.333 14.667 -112 44 -140s71.333 -42 126 -42
s97.667 17.667 129 53s47 82.333 47 141v529h254z" />
    <glyph glyph-name="v" unicode="v" horiz-adv-x="1042" 
d="M297 918l98 -277l72 -213c26 -79.333 42.333 -131.333 49 -156c8 26 26.667 79.667 56 161l77 208l107 277h264l-383 -918h-252l-362 918h274z" />
    <glyph glyph-name="w" unicode="w" horiz-adv-x="1542" 
d="M307 918l70 -234.002c46.667 -160 77.334 -275.333 92.001 -346l99 333.5c32 106.333 55.667 182.833 71 229.5h268c15.333 -48 39.666 -131.667 72.999 -251s62.333 -228.666 87 -327.999c22 88.667 54 204.667 96 348l76 248h270l-323 -918h-248
c-42 138 -78.5 262.667 -109.5 374s-49.833 182 -56.5 212c-40.667 -157.333 -98 -352.666 -172 -585.999h-260l-307 918h274z" />
    <glyph glyph-name="x" unicode="x" horiz-adv-x="989" 
d="M315 0h-279.999l301 449l-311 469h292l187 -295l176 295h285l-310 -465l301 -453h-292l-148 236c-20.667 34 -30.334 49.667 -29.001 47z" />
    <glyph glyph-name="y" unicode="y" horiz-adv-x="1069" 
d="M1044 918l-423.001 -1074c-34 -86 -79.167 -155.5 -135.5 -208.5s-139.5 -79.5 -249.5 -79.5c-53.333 0 -111.666 7.33301 -174.999 22l2 207c57.333 -9.33301 100.666 -14 129.999 -14c64 0 109.333 11.833 136 35.5s49.334 59.5 68.001 107.5l19 51l-393 953h276
l236 -642l241 642h268z" />
    <glyph glyph-name="z" unicode="z" horiz-adv-x="921" 
d="M84 223l434 471h-434v224h754v-226l-447 -465h447v-227h-754v223z" />
    <glyph glyph-name="braceleft" unicode="{" horiz-adv-x="663" 
d="M458.5 771.5c-20.333 -44.333 -54.5 -80.168 -102.5 -107.501c49.333 -27.333 83.833 -64 103.5 -110s29.5 -103 29.5 -171v-258c0 -70.667 13.667 -121.167 41 -151.5s66.333 -46.166 117 -47.499v-176c-126.667 -1.33301 -220.167 29.834 -280.5 93.501
s-90.5 152.834 -90.5 267.501v229c0 84.667 -13.5 145 -40.5 181s-70.833 55 -131.5 57v170c60 1.33301 103.667 20 131 56s41 96.333 41 181v229c0 125.333 32.5 217.166 97.5 275.499s156.167 86.166 273.5 83.499v-176c-58.667 -1.33301 -99.667 -18.833 -123 -52.5
s-35 -81.834 -35 -144.501v-258c0 -69.333 -10.167 -126.166 -30.5 -170.499z" />
    <glyph glyph-name="bar" unicode="|" horiz-adv-x="712" 
d="M455 1413v-1575h-197v1575h197z" />
    <glyph glyph-name="braceright" unicode="}" horiz-adv-x="669" 
d="M428 804c27.333 -36 70.999 -54.6621 130.999 -55.9951v-170c-60 -1.33301 -103.667 -20.166 -131 -56.499s-41 -96.833 -41 -181.5v-229c0 -114.667 -30 -203.834 -90 -267.501s-153 -94.834 -279 -93.501v176c52 2.66699 91 19.5 117 50.5s39 80.5 39 148.5v258
c0 68 10.333 125 31 171s55.334 82.667 104.001 110c-49.333 27.333 -84.166 63.166 -104.499 107.499s-30.5 101.166 -30.5 170.499v258c0 65.333 -12.333 114.166 -37 146.499s-64.334 49.166 -119.001 50.499v176c116 2.66699 206.5 -25 271.5 -83s97.5 -150 97.5 -276
v-229c0 -84.667 13.667 -145 41 -181z" />
    <glyph glyph-name="asciitilde" unicode="~" horiz-adv-x="870" 
d="M813 686c6.66699 -92.667 -11.8311 -164.668 -55.498 -216.001s-99.5 -77 -167.5 -77c-38 0 -72.167 7.5 -102.5 22.5s-62.5 35.5 -96.5 61.5c-27.333 20.667 -49.833 35.5 -67.5 44.5s-35.5 13.5 -53.5 13.5c-20.667 0 -37.667 -7.16699 -51 -21.5
s-20 -35.833 -20 -64.5c0 -10.667 0.666992 -19.667 2 -27h-142c-1.33301 8 -2 20.333 -2 37c0 78 21.167 139.5 63.5 184.5s95.833 67.5 160.5 67.5c36.667 0 69 -7.16699 97 -21.5s61 -35.166 99 -62.499c27.333 -20.667 50.166 -36.167 68.499 -46.5
s37.166 -15.5 56.499 -15.5c48 0 72 31.333 72 94l-2 27h141z" />
    <glyph glyph-name="uni00A0" unicode="&#xa0;" horiz-adv-x="487" 
 />
    <glyph glyph-name="exclamdown" unicode="&#xa1;" horiz-adv-x="628" 
d="M448.5 1291c35.667 -33.333 53.5 -76.666 53.5 -129.999c0 -54.667 -17.833 -98.334 -53.5 -131.001s-79.5 -49 -131.5 -49c-54.667 0 -100 16.333 -136 49s-54 76.334 -54 131.001c0 53.333 18.167 96.666 54.5 129.999s81.5 50 135.5 50c52 0 95.833 -16.667 131.5 -50
zM455 -2h-281l45 829h193z" />
    <glyph glyph-name="cent" unicode="&#xa2;" horiz-adv-x="1257" 
d="M777.5 462c37.667 28 61.168 64.3359 70.501 109.003h260c-10.667 -102.667 -52.667 -187.334 -126 -254.001s-165 -105.334 -275 -116.001v-201h-156v203c-121.333 19.333 -218.166 71.833 -290.499 157.5s-108.5 193.5 -108.5 323.5s36.167 238 108.5 324
s169.166 138.333 290.499 157v195h156v-193c113.333 -10.667 206.166 -49.167 278.499 -115.5s113.166 -151.833 122.499 -256.5h-260c-12 49.333 -36.5 86.833 -73.5 112.5s-82.167 38.5 -135.5 38.5c-68 0 -122.833 -23.833 -164.5 -71.5s-62.5 -111.834 -62.5 -192.501
c0 -79.333 20.5 -142.833 61.5 -190.5s96.167 -71.5 165.5 -71.5c54.667 0 100.834 14 138.501 42z" />
    <glyph glyph-name="sterling" unicode="&#xa3;" horiz-adv-x="1327" 
d="M1198 432v-432.001h-1053v221c61.333 4 110.166 28.5 146.499 73.5s54.5 101.167 54.5 168.5c0 19.333 -2.66699 45.333 -8 78h-188v188h118c-20.667 61.333 -30.667 117.333 -30 168c0 86 20 162.5 60 229.5s96.667 118.833 170 155.5s157.666 55 252.999 55
c91.333 0 171.833 -17.333 241.5 -52s124.334 -83.5 164.001 -146.5s59.5 -135.167 59.5 -216.5h-248c-1.33301 58.667 -22.166 105.334 -62.499 140.001s-93.833 52 -160.5 52c-68 0 -123 -20.167 -165 -60.5s-63 -94.5 -63 -162.5c0 -48 13.667 -102 41 -162h371v-188
h-309c1.33301 -10.667 2 -27 2 -49c0 -56 -12 -108 -36 -156s-58.333 -86.333 -103 -115l524 -2v213h221z" />
    <glyph glyph-name="currency" unicode="&#xa4;" horiz-adv-x="1368" 
d="M1106 410l151 -130.999l-163 -166l-136 149c-84.667 -54.667 -176 -82 -274 -82s-189.333 27.333 -274 82l-136 -149l-163 166l153 135c-52 80.667 -78 168.667 -78 264c0 98 26 188 78 270l-153 133l163 166l136 -149c84.667 54.667 176 82 274 82
s189.333 -27.333 274 -82l136 149l163 -166l-153 -131c54.667 -84.667 82 -175.334 82 -272.001c0 -98 -26.667 -187.333 -80 -268zM817.5 448.501c41 24.333 73.332 57 96.999 98s35.5 84.833 35.5 131.5c0 48 -11.833 92.667 -35.5 134s-56 74 -97 98s-85.5 36 -133.5 36
s-92.5 -12 -133.5 -36s-73.667 -56.667 -98 -98s-36.5 -86 -36.5 -134c0 -46.667 12.167 -90.5 36.5 -131.5s57.333 -73.667 99 -98s85.834 -36.5 132.501 -36.5c48 0 92.5 12.167 133.5 36.5z" />
    <glyph glyph-name="yen" unicode="&#xa5;" horiz-adv-x="1501" 
d="M985 741h207v-188h-315v-127h315v-186h-315v-240h-254v240h-318v186h318v127h-318v188h213l-377 572h301l310 -535l305 535h303z" />
    <glyph glyph-name="brokenbar" unicode="&#xa6;" horiz-adv-x="733" 
d="M475 1415v-596h-217v596h217zM475 492v-617h-217v617h217z" />
    <glyph glyph-name="section" unicode="&#xa7;" horiz-adv-x="1060" 
d="M245.5 -286c-73.667 62 -110.5 145.001 -110.5 249.001h240c0 -50.667 16 -89.667 48 -117s72 -41 120 -41s85.5 12.333 112.5 37s40.5 57.667 40.5 99c0 31.333 -8.83301 56.166 -26.5 74.499s-36 30.833 -55 37.5s-47.167 14.334 -84.5 23.001l-120 28
c-68 15.333 -130.5 45.5 -187.5 90.5s-85.5 111.833 -85.5 200.5c0 62.667 16.5 117 49.5 163s79.5 79 139.5 99c-69.333 24.667 -121.166 60.334 -155.499 107.001s-51.5 102 -51.5 166c0 98 37.5 176.333 112.5 235s171.833 88 290.5 88c121.333 0 219 -30.667 293 -92
s111 -144 111 -248h-240c0 50.667 -15.667 89.334 -47 116.001s-72.333 40 -123 40c-46.667 0 -83.5 -12 -110.5 -36s-40.5 -55.667 -40.5 -95c0 -46.667 15 -78.834 45 -96.501s70 -31.834 120 -42.501l121 -27c68 -13.333 130.5 -43.333 187.5 -90
s85.5 -113.667 85.5 -201c0 -64 -16.833 -118.5 -50.5 -163.5s-79.834 -77.833 -138.501 -98.5c68 -24.667 119.5 -60.5 154.5 -107.5s52.5 -102.5 52.5 -166.5c0 -96.667 -37.5 -174.834 -112.5 -234.501s-171.833 -89.5 -290.5 -89.5c-122 0 -219.833 31 -293.5 93z
M655 349.001c28.667 22.667 43 52.332 43 88.999c0 39.333 -15.333 69.333 -46 90s-72 31 -124 31c-53.333 0 -94.333 -10.833 -123 -32.5s-43 -51.167 -43 -88.5c0 -39.333 16.167 -69.666 48.5 -90.999s73.833 -32 124.5 -32c51.333 0 91.333 11.333 120 34z" />
    <glyph glyph-name="dieresis" unicode="&#xa8;" horiz-adv-x="817" 
d="M114 1442c-25.333 24.667 -38 54.667 -38 90c0 38 12.667 69 38 93s56.333 36 93 36s67 -12 91 -36s36 -55 36 -93c0 -35.333 -12.333 -65.333 -37 -90s-54.667 -37 -90 -37c-36.667 0 -67.667 12.333 -93 37zM505 1442c-25.333 24.667 -38 54.667 -38 90
c0 38 12.667 69 38 93s56.333 36 93 36s67.334 -12 92.001 -36s37 -55 37 -93c0 -35.333 -12.333 -65.333 -37 -90s-55.334 -37 -92.001 -37s-67.667 12.333 -93 37z" />
    <glyph glyph-name="copyright" unicode="&#xa9;" horiz-adv-x="1333" 
d="M399.5 226.5c-80.333 45.667 -143.833 108.498 -190.5 188.498s-70 168.333 -70 265s23.333 185 70 265s110.167 142.833 190.5 188.5s169.833 68.5 268.5 68.5c98 0 187 -23.167 267 -69.5s143.167 -109.166 189.5 -188.499s69.5 -167.333 69.5 -264
s-23.167 -184.667 -69.5 -264s-109.5 -142.166 -189.5 -188.499s-169 -69.5 -267 -69.5c-98.667 0 -188.167 22.833 -268.5 68.5zM875.5 329.498c61 35.667 108.833 84.168 143.5 145.501s52 129.666 52 204.999s-17.333 144 -52 206s-82.5 110.667 -143.5 146
s-129.5 53 -205.5 53c-76.667 0 -146 -17.667 -208 -53s-110.833 -84 -146.5 -146s-53.5 -130.667 -53.5 -206c0 -74 17.833 -142 53.5 -204s84.5 -110.833 146.5 -146.5s131.333 -53.5 208 -53.5c76 0 144.5 17.833 205.5 53.5zM496.5 864.499
c45.667 46.333 106.166 69.502 181.499 69.502c57.333 0 106.833 -16.333 148.5 -49s67.834 -74.334 78.501 -125.001h-121c-6.66699 20.667 -19.834 37.667 -39.501 51s-42.5 20 -68.5 20c-38 0 -69 -13.833 -93 -41.5s-36 -64.167 -36 -109.5
c0 -44 11.5 -79.167 34.5 -105.5s54.5 -39.5 94.5 -39.5c26 0 48.833 5.66699 68.5 17s32.834 28.666 39.501 51.999h121c-9.33301 -52 -35.5 -94 -78.5 -126s-93.167 -48 -150.5 -48c-74 0 -133.833 23.167 -179.5 69.5s-68.5 106.5 -68.5 180.5
c0 76.667 22.833 138.167 68.5 184.5z" />
    <glyph glyph-name="guillemotleft" unicode="&#xab;" horiz-adv-x="1114" 
d="M414 459l219 -383h-281l-217 383l217 383h281zM848 459l217 -383h-281l-215 383l215 383h281z" />
    <glyph glyph-name="logicalnot" unicode="&#xac;" horiz-adv-x="1187" 
d="M813 236v227h-711v268h981v-495h-270z" />
    <glyph glyph-name="registered" unicode="&#xae;" horiz-adv-x="1110" 
d="M806 1275.5c74.667 -41 133.5 -97.667 176.5 -170s64.5 -154.166 64.5 -245.499c0 -94 -21.5 -177.833 -64.5 -251.5s-101.5 -131 -175.5 -172s-156.667 -61.5 -248 -61.5c-92.667 0 -176.5 20.5 -251.5 61.5s-134 98.333 -177 172s-64.5 157.5 -64.5 251.5
c0 91.333 21.833 173.166 65.5 245.499s103 129 178 170s158.167 61.5 249.5 61.5c90 0 172.333 -20.5 247 -61.5zM750 526c57.333 31.333 102.332 75.667 134.999 133s49 123 49 197c0 72.667 -16.333 137.667 -49 195s-77.667 102 -135 134s-121.666 48 -192.999 48
c-70.667 0 -135.167 -16 -193.5 -48s-103.833 -76.667 -136.5 -134s-49 -122.333 -49 -195c0 -74 16.333 -139.333 49 -196s77.834 -101 135.501 -133s122.5 -48 194.5 -48c71.333 0 135.666 15.667 192.999 47zM667.999 801.001l68.999 -143.999h-106l-58 129h-81v-129
h-101v400h199c48 0 85.167 -12.333 111.5 -37s39.5 -57.334 39.5 -98.001c0.666992 -56 -23.666 -96.333 -72.999 -121zM491.998 879.002h86c36.667 0 55 13.667 55 41c0 28.667 -18.333 43 -55 43h-86v-84z" />
    <glyph glyph-name="macron" unicode="&#xaf;" horiz-adv-x="856" 
d="M717 1593v-172h-557v172h557z" />
    <glyph glyph-name="degree" unicode="&#xb0;" horiz-adv-x="604" 
d="M122 906.5c-48.667 48.333 -73 107.831 -73 178.498c0 72.667 24.333 132.834 73 180.501s108.334 71.5 179.001 71.5c72.667 0 133.167 -24.167 181.5 -72.5s72.5 -108.166 72.5 -179.499c0 -70.667 -24.167 -130.167 -72.5 -178.5s-108.833 -72.5 -181.5 -72.5
c-70.667 0 -130.334 24.167 -179.001 72.5zM383 1006.5c22 21 33 47.167 33 78.5c0 32.667 -10.667 59.667 -32 81s-49 32 -83 32c-32.667 0 -59.667 -11.333 -81 -34s-32 -49 -32 -79c0 -31.333 10.667 -57.5 32 -78.5s48.333 -31.5 81 -31.5s60 10.5 82 31.5z" />
    <glyph glyph-name="plusminus" unicode="&#xb1;" horiz-adv-x="925" 
d="M852 711v-201h-287v-178h-203v178h-288v201h288v176h203v-176h287zM74 201h778v-201h-778v201z" />
    <glyph glyph-name="uni00B2" unicode="&#xb2;" horiz-adv-x="806" 
d="M698.5 996.5c-17.667 -40.333 -46.335 -84.334 -86.002 -132.001s-104.5 -119.5 -194.5 -215.5h307v-178h-606v141l52.5 53.5l57.5 59.5l183.5 194.5c37.667 41 65.334 77.167 83.001 108.5s26.5 61.333 26.5 90c0 35.333 -10.833 62.333 -32.5 81s-49.5 28 -83.5 28
c-40.667 0 -72.5 -13.333 -95.5 -40s-32.833 -59 -29.5 -97h-197c-4 62.667 8 118.167 36 166.5s67.833 85.833 119.5 112.5s109.834 40 174.501 40c92.667 0 167.667 -25.667 225 -77s86 -117.666 86 -198.999c0 -50.667 -8.83301 -96.167 -26.5 -136.5z" />
    <glyph glyph-name="uni00B3" unicode="&#xb3;" horiz-adv-x="843" 
d="M695.5 945c45.667 -48.667 68.5029 -109.668 68.5029 -183.001c0 -58.667 -15 -111.167 -45 -157.5s-71.333 -82.833 -124 -109.5s-111.667 -40 -177 -40c-64 0 -122.333 12.833 -175 38.5s-93.334 62.5 -122.001 110.5s-42.334 104 -41.001 168h196
c0 -39.333 13.667 -71.666 41 -96.999s61.666 -38 102.999 -38c40.667 0 74.334 12 101.001 36s40 53.667 40 89c0 40.667 -15.333 74 -46 100s-69.334 39 -116.001 39h-57h-72v131l187 185h-328v172h586v-160l-193 -191c70 -13.333 127.833 -44.333 173.5 -93z" />
    <glyph glyph-name="acute" unicode="&#xb4;" horiz-adv-x="638" 
d="M209 1485l311 334l127 -129l-362 -283z" />
    <glyph glyph-name="mu" unicode="&#xb5;" horiz-adv-x="1300" 
d="M1217 176l-0.00292969 -175.999c-45.333 -12 -88.666 -18 -129.999 -18c-57.333 0 -106.333 11.167 -147 33.5s-70 54.833 -88 97.5c-22 -40.667 -56.5 -73.834 -103.5 -99.501s-97.167 -38.5 -150.5 -38.5s-100.166 11 -140.499 33s-69.166 51.333 -86.499 88v-540h-252
v1362h254v-488c0 -79.333 18.667 -138.333 56 -177s88.333 -58 153 -58c65.333 0 116.833 19.667 154.5 59s56.5 95.333 56.5 168v496h256v-601c0 -49.333 8.83301 -85.833 26.5 -109.5s45.5 -35.5 83.5 -35.5c28 0 47.333 1.33301 58 4z" />
    <glyph glyph-name="paragraph" unicode="&#xb6;" horiz-adv-x="1085" 
d="M1120 1204h-145v-1466h-86v1466h-170v-1462h-217v913h-142c-96.667 0 -173.334 30.5 -230.001 91.5s-85 140.5 -85 238.5c0 95.333 28.333 173.833 85 235.5s133.334 92.5 230.001 92.5h760v-109z" />
    <glyph glyph-name="periodcentered" unicode="&#xb7;" horiz-adv-x="712" 
d="M210.5 410.5c-42.333 41.667 -63.501 89.834 -63.501 144.501c0 56 20.833 104.833 62.5 146.5s91.167 62.5 148.5 62.5c54.667 0 102.834 -20.833 144.501 -62.5s62.5 -90.5 62.5 -146.5c0 -54.667 -20.5 -102.834 -61.5 -144.501s-89.5 -62.5 -145.5 -62.5
s-105.167 20.833 -147.5 62.5z" />
    <glyph glyph-name="cedilla" unicode="&#xb8;" horiz-adv-x="579" 
d="M380 -133.5c32 -12.333 59.332 -33.5 81.999 -63.5s34 -67.333 34 -112c0 -66.667 -24 -118.167 -72 -154.5s-105.333 -54.5 -172 -54.5c-61.333 0 -118 15 -170 45v133c13.333 -16.667 31.333 -29.334 54 -38.001s46.334 -13 71.001 -13
c31.333 0 58.333 7.83301 81 23.5s34 37.834 34 66.501c0 27.333 -11 50.166 -33 68.499s-48 27.5 -78 27.5c-9.33301 0 -16.333 -0.666992 -21 -2l-47 60l111 217h104v-72l-67 -117c27.333 2.66699 57 -2.16602 89 -14.499z" />
    <glyph glyph-name="uni00B9" unicode="&#xb9;" horiz-adv-x="610" 
d="M68 1243c66.667 0 119.832 13 159.499 39s64.834 61.667 75.501 107h166v-918h-203v629h-198v143z" />
    <glyph glyph-name="guillemotright" unicode="&#xbb;" horiz-adv-x="1114" 
d="M549 459l-219 -383h-279l217 383l-217 383h279zM981 459l-217 -383h-279l215 383l-215 383h279z" />
    <glyph glyph-name="onequarter" unicode="&#xbc;" horiz-adv-x="1552" 
d="M1522 334v-162h-111v-172h-192v172h-385v145l335 537h242v-520h111zM1219 334v307l-193 -307h193zM227 0l916 1391l114 -72l-917 -1389zM41 1169c65.333 0 118 12.668 158 38.001c39.333 25.333 64.333 60.666 75 105.999h162v-854h-200v567h-195v143z" />
    <glyph glyph-name="onehalf" unicode="&#xbd;" horiz-adv-x="1591" 
d="M1520 487c-16.667 -36.667 -42.332 -75.665 -76.999 -116.998s-93 -106 -175 -194h274v-176h-571v139l127 129c100 101.333 165.667 172 197 212c32 40 48 78.667 48 116c0 30 -9 53 -27 69c-18.667 16 -43.667 23.667 -75 23c-38 0 -66.333 -11 -85 -33
s-26.334 -49.333 -23.001 -82h-195c-4 58.667 7.66699 111 35 157s65.333 81.333 114 106c49.333 24.667 104 36.667 164 36c86 0 156.333 -24 211 -72c54.667 -48.667 82 -111.334 82 -188.001c0.666992 -46.667 -7.33301 -88.334 -24 -125.001zM227.002 0.00195312
l916 1391l114 -72l-917 -1389zM41.002 1169c65.333 0 118 12.668 158 38.001c39.333 25.333 64.333 60.666 75 105.999h162v-854h-200v567h-195v143z" />
    <glyph glyph-name="threequarters" unicode="&#xbe;" horiz-adv-x="1693" 
d="M1663 334v-162h-111v-172h-192v172h-385v145l336 537h241v-520h111zM1360 334v307l-193 -307h193zM369 0l915 1391l115 -72l-918 -1389zM622 899c41.333 -45.333 62.0029 -102.002 62.0029 -170.002c0 -83.333 -30.667 -151.666 -92 -204.999s-139.333 -80 -234 -80
c-95.333 0 -172.333 27.333 -231 82s-87.334 126.334 -86.001 215.001h197c0 -35.333 11.333 -64.333 34 -87c23.333 -22.667 53.333 -33.667 90 -33c35.333 0 64.666 10.333 87.999 31c22.667 21.333 33.667 48.333 33 81c0 34 -14.667 62.667 -44 86s-63 34.333 -101 33
h-6l-45 -2h-70v131l164 160h-293v172h549v-160l-172 -168c63.333 -12 115.666 -40.667 156.999 -86z" />
    <glyph glyph-name="questiondown" unicode="&#xbf;" horiz-adv-x="1007" 
d="M419 1053c-33.333 30 -50 70.333 -50 121s16.333 90.5 49 119.5s74.334 43.5 125.001 43.5c49.333 0 90.666 -14.667 123.999 -44s50 -69 50 -119c0 -50.667 -16.833 -91 -50.5 -121s-74.834 -45 -123.501 -45c-49.333 0 -90.666 15 -123.999 45zM881.5 174
c-35 -60 -85.8291 -107.831 -152.496 -143.498s-144.334 -53.5 -233.001 -53.5c-80.667 0 -152.834 14.333 -216.501 43s-113.167 68.667 -148.5 120s-53 111 -53 179c0 70.667 17.667 130.667 53 180s86 102.666 152 159.999c49.333 45.333 85.166 81.666 107.499 108.999
s34.833 58 37.5 92v25h236v-25c0 -65.333 -16.5 -121.166 -49.5 -167.499s-80.833 -96.833 -143.5 -151.5c-49.333 -42 -85.5 -77.833 -108.5 -107.5s-34.5 -62.834 -34.5 -99.501c0 -44 16 -79.667 48 -107s74 -41 126 -41c58.667 0 105.667 17.833 141 53.5
s51.666 80.167 48.999 133.5h238c2.66699 -72.667 -13.5 -139 -48.5 -199z" />
    <glyph glyph-name="Agrave" unicode="&#xc0;" horiz-adv-x="1275" 
d="M276 1673l127 127l312 -334l-76 -77zM506 1313h264l487 -1313h-280l-103 287h-477l-104 -287h-275zM797 508l-68.001 192c-20.667 56 -39.167 109.333 -55.5 160s-27.166 85 -32.499 103c-5.33301 -18 -18 -55.667 -38 -113s-38.667 -108 -56 -152l-72 -190h322z" />
    <glyph glyph-name="Aacute" unicode="&#xc1;" horiz-adv-x="1275" 
d="M563 1468l311 334l127 -129l-362 -282zM506 1313h264l487 -1313h-280l-103 287h-477l-104 -287h-275zM797 508l-68.001 192c-20.667 56 -39.167 109.333 -55.5 160s-27.166 85 -32.499 103c-5.33301 -18 -18 -55.667 -38 -113s-38.667 -108 -56 -152l-72 -190h322z" />
    <glyph glyph-name="Acircumflex" unicode="&#xc2;" horiz-adv-x="1275" 
d="M528 1745h222l213 -285l-119 -82l-205 215l-205 -215l-119 82zM506 1313h264l487 -1313h-280l-103 287h-477l-104 -287h-275zM797 508l-68.001 192c-20.667 56 -39.167 109.333 -55.5 160s-27.166 85 -32.499 103c-5.33301 -18 -18 -55.667 -38 -113
s-38.667 -108 -56 -152l-72 -190h322z" />
    <glyph glyph-name="Atilde" unicode="&#xc3;" horiz-adv-x="1275" 
d="M336 1466c0 62.667 15.3281 112.5 45.9951 149.5s71.334 55.5 122.001 55.5c27.333 0 51.5 -4.33301 72.5 -13s47.833 -22.667 80.5 -42c20.667 -12 38.167 -21.5 52.5 -28.5s27.833 -10.5 40.5 -10.5c24.667 0 41.334 7.5 50.001 22.5s12.334 38.167 11.001 69.5h125
c4 -22 6 -43.667 6 -65c0 -58.667 -15.667 -106.167 -47 -142.5s-73 -54.5 -125 -54.5c-27.333 0 -53.333 5.16699 -78 15.5s-52 24.166 -82 41.499c-15.333 9.33301 -30.666 17.5 -45.999 24.5s-28.666 10.5 -39.999 10.5c-24.667 0 -41 -10.167 -49 -30.5
s-10.667 -44.833 -8 -73.5h-125c-4 26.667 -6 50.334 -6 71.001zM505.995 1313h264l487 -1313h-280l-103 287h-477l-104 -287h-275zM796.995 508l-68.001 192c-20.667 56 -39.167 109.333 -55.5 160s-27.166 85 -32.499 103c-5.33301 -18 -18 -55.667 -38 -113
s-38.667 -108 -56 -152l-72 -190h322z" />
    <glyph glyph-name="Adieresis" unicode="&#xc4;" horiz-adv-x="1275" 
d="M351 1425.5c-25.333 24.333 -38 54.5 -38 90.5c0 38 12.667 69 38 93s56.333 36 93 36s67 -12 91 -36s36 -55 36 -93c0 -35.333 -12.167 -65.333 -36.5 -90s-54.5 -37 -90.5 -37c-36.667 0 -67.667 12.167 -93 36.5zM742.5 1425.5c-25 24.333 -37.5 54.5 -37.5 90.5
c0 38 12.5 69 37.5 93s56.167 36 93.5 36c36.667 0 67.334 -12 92.001 -36s37 -55 37 -93c0 -35.333 -12.333 -65.333 -37 -90s-55.334 -37 -92.001 -37c-37.333 0 -68.5 12.167 -93.5 36.5zM506 1313h264l487 -1313h-280l-103 287h-477l-104 -287h-275zM797 508
l-68.001 192c-20.667 56 -39.167 109.333 -55.5 160s-27.166 85 -32.499 103c-5.33301 -18 -18 -55.667 -38 -113s-38.667 -108 -56 -152l-72 -190h322z" />
    <glyph glyph-name="Aring" unicode="&#xc5;" horiz-adv-x="1275" 
d="M446.5 1253.5c47.667 -49 111.835 -73.5 192.502 -73.5c53.333 0 100.166 11.5 140.499 34.5s71 53.333 92 91s31.5 78.167 31.5 121.5c0 42 -10.833 82.333 -32.5 121s-52.667 69.5 -93 92.5s-86.5 34.5 -138.5 34.5c-80.667 0 -144.834 -24.167 -192.501 -72.5
s-71.5 -106.833 -71.5 -175.5c0 -66.667 23.833 -124.5 71.5 -173.5zM711.501 1355.5c-19.667 -20.333 -43.832 -30.502 -72.499 -30.502s-52.834 10.167 -72.501 30.5s-29.5 45.833 -29.5 76.5c0 28.667 10.167 52.834 30.5 72.501s44.166 29.5 71.499 29.5
c28.667 0 52.834 -10.167 72.501 -30.5s29.5 -44.166 29.5 -71.499c0 -30.667 -9.83301 -56.167 -29.5 -76.5zM506.003 1313h264l487 -1313h-280l-103 287h-477l-104 -287h-275zM797.003 507.998l-68.001 192c-20.667 56 -39.167 109.333 -55.5 160s-27.166 85 -32.499 103
c-5.33301 -18 -18 -55.667 -38 -113s-38.667 -108 -56 -152l-72 -190h322z" />
    <glyph glyph-name="AE" unicode="&#xc6;" horiz-adv-x="1769" 
d="M1061 1063v-279l541 -2v-239l-541 2v-293l604 -2v-250l-604 2v-2h-252v303h-369l-118 -303h-304l543 1313h1104v-252zM809 1063h-72l-207 -531h279v531z" />
    <glyph glyph-name="Ccedilla" unicode="&#xc7;" horiz-adv-x="1470" 
d="M822 -120.5c32 -12.333 59.332 -33.5 81.999 -63.5s34 -67.667 34 -113c0 -66.667 -23.833 -118.167 -71.5 -154.5s-105.167 -54.5 -172.5 -54.5c-61.333 0 -118 15 -170 45v133c13.333 -16.667 31.333 -29.334 54 -38.001s46.334 -13 71.001 -13
c31.333 0 58.333 7.83301 81 23.5s34 37.834 34 66.501c0 27.333 -11 50.166 -33 68.499s-48 27.5 -78 27.5c-9.33301 0 -16 -0.666992 -20 -2l-47 60l110 217h105v-72l-68 -116c27.333 2.66699 57 -2.16602 89 -14.499zM399.499 58
c103.667 -56.667 221.836 -85 354.503 -85c113.333 0 216.666 20.167 309.999 60.5s169.333 96.666 228 168.999s95 155.833 109 250.5h-297c-19.333 -69.333 -61.333 -125.333 -126 -168s-140.667 -64 -228 -64c-120 0 -216.667 39 -290 117s-110 183.667 -110 317
c0 132.667 35.833 239 107.5 319s169.167 120 292.5 120c90 0 167 -21.5 231 -64.5s105 -98.833 123 -167.5h297c-15.333 96.667 -53 181.334 -113 254.001s-136.333 128 -229 166s-194.334 57 -305.001 57c-135.333 0 -254.833 -28.333 -358.5 -85
s-183.834 -136.5 -240.501 -239.5s-85 -222.167 -85 -357.5c0 -136.667 29 -256.5 87 -359.5s138.833 -182.833 242.5 -239.5z" />
    <glyph glyph-name="Egrave" unicode="&#xc8;" horiz-adv-x="1101" 
d="M207 1673l127 127l311 -334l-76 -77zM410 1071v-293h524v-231h-524v-305h587v-242h-852v1313h852v-242h-587z" />
    <glyph glyph-name="Eacute" unicode="&#xc9;" horiz-adv-x="1101" 
d="M494 1468l311 334l127 -129l-363 -282zM410 1071v-293h524v-231h-524v-305h587v-242h-852v1313h852v-242h-587z" />
    <glyph glyph-name="Ecircumflex" unicode="&#xca;" horiz-adv-x="1101" 
d="M459 1745h221l213 -285l-119 -82l-205 215l-204 -215l-119 82zM410 1071v-293h524v-231h-524v-305h587v-242h-852v1313h852v-242h-587z" />
    <glyph glyph-name="Edieresis" unicode="&#xcb;" horiz-adv-x="1101" 
d="M281.5 1425.5c-25 24.333 -37.5 54.5 -37.5 90.5c0 38 12.5 69 37.5 93s56.167 36 93.5 36c36.667 0 67 -12 91 -36s36 -55 36 -93c0 -35.333 -12.333 -65.333 -37 -90s-54.667 -37 -90 -37c-37.333 0 -68.5 12.167 -93.5 36.5zM673 1425.5
c-25.333 24.333 -38 54.5 -38 90.5c0 38 12.667 69 38 93s56.333 36 93 36s67.334 -12 92.001 -36s37 -55 37 -93c0 -35.333 -12.333 -65.333 -37 -90s-55.334 -37 -92.001 -37s-67.667 12.167 -93 36.5zM410 1071v-293h524v-231h-524v-305h587v-242h-852v1313h852v-242
h-587z" />
    <glyph glyph-name="Igrave" unicode="&#xcc;" horiz-adv-x="540" 
d="M-84 1673l127 127l311 -334l-75 -77zM145 0v1313h267v-1313h-267z" />
    <glyph glyph-name="Iacute" unicode="&#xcd;" horiz-adv-x="540" 
d="M203 1468l311 334l127 -129l-362 -282zM145 0v1313h267v-1313h-267z" />
    <glyph glyph-name="Icircumflex" unicode="&#xce;" horiz-adv-x="540" 
d="M168 1745h221l213 -285l-119 -82l-204 215l-205 -215l-119 82zM145 0v1313h267v-1313h-267z" />
    <glyph glyph-name="Idieresis" unicode="&#xcf;" horiz-adv-x="540" 
d="M-9 1425.5c-25.333 24.333 -38 54.5 -38 90.5c0 38 12.667 69 38 93s56.333 36 93 36s67 -12 91 -36s36 -55 36 -93c0 -35.333 -12.333 -65.333 -37 -90s-54.667 -37 -90 -37c-36.667 0 -67.667 12.167 -93 36.5zM382 1425.5c-25.333 24.333 -38 54.5 -38 90.5
c0 38 12.667 69 38 93s56.333 36 93 36s67.334 -12 92.001 -36s37 -55 37 -93c0 -35.333 -12.333 -65.333 -37 -90s-55.334 -37 -92.001 -37s-67.667 12.167 -93 36.5zM145 0v1313h267v-1313h-267z" />
    <glyph glyph-name="Eth" unicode="&#xd0;" horiz-adv-x="1466" 
d="M1006.5 1229c100.333 -56 178.833 -134.168 235.5 -234.501s85 -214.166 85 -341.499c0 -126.667 -28 -239.5 -84 -338.5s-134.167 -176.167 -234.5 -231.5s-214.5 -83 -342.5 -83h-508v563h-121v185h121v565h508c126.667 0 240.167 -28 340.5 -84zM937 354.499
c73.333 75 110 174.5 110 298.5c0 125.333 -37 226.333 -111 303s-172.333 115 -295 115h-217v-323h190v-185h-190v-321h217c124 0 222.667 37.5 296 112.5z" />
    <glyph glyph-name="Ntilde" unicode="&#xd1;" horiz-adv-x="1374" 
d="M393 1497c0 62.667 15.3301 112.501 45.9971 149.501s71.334 55.5 122.001 55.5c27.333 0 51.666 -4.5 72.999 -13.5s48.333 -22.833 81 -41.5c20.667 -12 38 -21.5 52 -28.5s27.333 -10.5 40 -10.5c24.667 0 41.334 7.5 50.001 22.5s12.334 38.167 11.001 69.5h125
c4 -22 6 -44 6 -66c0 -58.667 -15.667 -106 -47 -142s-73 -54 -125 -54c-27.333 0 -53.166 5 -77.499 15s-51.5 24 -81.5 42c-15.333 9.33301 -30.833 17.5 -46.5 24.5s-28.834 10.5 -39.501 10.5c-24.667 0 -41.167 -10.333 -49.5 -31s-11.166 -45.334 -8.49902 -74.001
h-125c-4 27.333 -6 51.333 -6 72zM1231 1313v-1313h-248l-573 852v-852h-265v1313h248l576 -858v858h262z" />
    <glyph glyph-name="Ograve" unicode="&#xd2;" horiz-adv-x="1538" 
d="M406 1700l126 127l312 -334l-76 -78zM1378 301c-60 -104 -143.167 -184.665 -249.5 -241.998s-226.5 -86 -360.5 -86s-253.833 28.667 -359.5 86s-188.5 137.666 -248.5 240.999s-90 221.666 -90 354.999c0 132.667 30 250.834 90 354.501s142.833 184.5 248.5 242.5
s225.5 87 359.5 87s254.167 -28.667 360.5 -86s189.5 -137.833 249.5 -241.5s90 -221.834 90 -354.501c0 -133.333 -30 -252 -90 -356zM1132.5 883.502c-35.667 66.333 -85.1699 117.666 -148.503 153.999s-134.666 54.5 -213.999 54.5c-80.667 0 -152.667 -18.5 -216 -55.5
s-113.166 -88.333 -149.499 -154s-54.5 -141.5 -54.5 -227.5s17.833 -161.667 53.5 -227s85.167 -116.166 148.5 -152.499s135.333 -54.5 216 -54.5s152.334 18.5 215.001 55.5s112.167 88.5 148.5 154.5s54.5 141.333 54.5 226s-17.833 160.167 -53.5 226.5z" />
    <glyph glyph-name="Oacute" unicode="&#xd3;" horiz-adv-x="1538" 
d="M692 1495l312 334l126 -129l-362 -283zM1378 301c-60 -104 -143.167 -184.665 -249.5 -241.998s-226.5 -86 -360.5 -86s-253.833 28.667 -359.5 86s-188.5 137.666 -248.5 240.999s-90 221.666 -90 354.999c0 132.667 30 250.834 90 354.501s142.833 184.5 248.5 242.5
s225.5 87 359.5 87s254.167 -28.667 360.5 -86s189.5 -137.833 249.5 -241.5s90 -221.834 90 -354.501c0 -133.333 -30 -252 -90 -356zM1132.5 883.502c-35.667 66.333 -85.1699 117.666 -148.503 153.999s-134.666 54.5 -213.999 54.5c-80.667 0 -152.667 -18.5 -216 -55.5
s-113.166 -88.333 -149.499 -154s-54.5 -141.5 -54.5 -227.5s17.833 -161.667 53.5 -227s85.167 -116.166 148.5 -152.499s135.333 -54.5 216 -54.5s152.334 18.5 215.001 55.5s112.167 88.5 148.5 154.5s54.5 141.333 54.5 226s-17.833 160.167 -53.5 226.5z" />
    <glyph glyph-name="Ocircumflex" unicode="&#xd4;" horiz-adv-x="1538" 
d="M657 1772h222l213 -285l-119 -82l-205 215l-205 -215l-119 82zM1378 301c-60 -104 -143.167 -184.665 -249.5 -241.998s-226.5 -86 -360.5 -86s-253.833 28.667 -359.5 86s-188.5 137.666 -248.5 240.999s-90 221.666 -90 354.999c0 132.667 30 250.834 90 354.501
s142.833 184.5 248.5 242.5s225.5 87 359.5 87s254.167 -28.667 360.5 -86s189.5 -137.833 249.5 -241.5s90 -221.834 90 -354.501c0 -133.333 -30 -252 -90 -356zM1132.5 883.502c-35.667 66.333 -85.1699 117.666 -148.503 153.999s-134.666 54.5 -213.999 54.5
c-80.667 0 -152.667 -18.5 -216 -55.5s-113.166 -88.333 -149.499 -154s-54.5 -141.5 -54.5 -227.5s17.833 -161.667 53.5 -227s85.167 -116.166 148.5 -152.499s135.333 -54.5 216 -54.5s152.334 18.5 215.001 55.5s112.167 88.5 148.5 154.5s54.5 141.333 54.5 226
s-17.833 160.167 -53.5 226.5z" />
    <glyph glyph-name="Otilde" unicode="&#xd5;" horiz-adv-x="1538" 
d="M465 1493c0 62.667 15.3281 112.501 45.9951 149.501s71.334 55.5 122.001 55.5c27.333 0 51.5 -4.5 72.5 -13.5s47.833 -23.167 80.5 -42.5c20.667 -12 38.167 -21.333 52.5 -28s27.833 -10 40.5 -10c24.667 0 41.334 7.5 50.001 22.5s12.334 38.167 11.001 69.5h125
c4 -22 6 -44 6 -66c0 -58.667 -15.667 -106 -47 -142s-73 -54 -125 -54c-27.333 0 -53.333 5 -78 15s-52 24 -82 42c-15.333 9.33301 -30.666 17.5 -45.999 24.5s-28.666 10.5 -39.999 10.5c-24.667 0 -41 -10.333 -49 -31s-10.667 -45.334 -8 -74.001h-125
c-4 27.333 -6 51.333 -6 72zM1378 301.001c-60 -104 -143.167 -184.665 -249.5 -241.998s-226.5 -86 -360.5 -86s-253.833 28.667 -359.5 86s-188.5 137.666 -248.5 240.999s-90 221.666 -90 354.999c0 132.667 30 250.834 90 354.501s142.833 184.5 248.5 242.5
s225.5 87 359.5 87s254.167 -28.667 360.5 -86s189.5 -137.833 249.5 -241.5s90 -221.834 90 -354.501c0 -133.333 -30 -252 -90 -356zM1132.5 883.503c-35.667 66.333 -85.1699 117.666 -148.503 153.999s-134.666 54.5 -213.999 54.5c-80.667 0 -152.667 -18.5 -216 -55.5
s-113.166 -88.333 -149.499 -154s-54.5 -141.5 -54.5 -227.5s17.833 -161.667 53.5 -227s85.167 -116.166 148.5 -152.499s135.333 -54.5 216 -54.5s152.334 18.5 215.001 55.5s112.167 88.5 148.5 154.5s54.5 141.333 54.5 226s-17.833 160.167 -53.5 226.5z" />
    <glyph glyph-name="Odieresis" unicode="&#xd6;" horiz-adv-x="1538" 
d="M480 1452c-25.333 24.667 -38 54.667 -38 90c0 38 12.667 69 38 93s56.333 36 93 36s67 -12 91 -36s36 -55 36 -93c0 -35.333 -12.167 -65.333 -36.5 -90s-54.5 -37 -90.5 -37c-36.667 0 -67.667 12.333 -93 37zM871.5 1452c-25 24.667 -37.5 54.667 -37.5 90
c0 38 12.5 69 37.5 93s56.167 36 93.5 36c36.667 0 67.334 -12 92.001 -36s37 -55 37 -93c0 -35.333 -12.333 -65.333 -37 -90s-55.334 -37 -92.001 -37c-37.333 0 -68.5 12.333 -93.5 37zM1378 301c-60 -104 -143.167 -184.665 -249.5 -241.998s-226.5 -86 -360.5 -86
s-253.833 28.667 -359.5 86s-188.5 137.666 -248.5 240.999s-90 221.666 -90 354.999c0 132.667 30 250.834 90 354.501s142.833 184.5 248.5 242.5s225.5 87 359.5 87s254.167 -28.667 360.5 -86s189.5 -137.833 249.5 -241.5s90 -221.834 90 -354.501
c0 -133.333 -30 -252 -90 -356zM1132.5 883.502c-35.667 66.333 -85.1699 117.666 -148.503 153.999s-134.666 54.5 -213.999 54.5c-80.667 0 -152.667 -18.5 -216 -55.5s-113.166 -88.333 -149.499 -154s-54.5 -141.5 -54.5 -227.5s17.833 -161.667 53.5 -227
s85.167 -116.166 148.5 -152.499s135.333 -54.5 216 -54.5s152.334 18.5 215.001 55.5s112.167 88.5 148.5 154.5s54.5 141.333 54.5 226s-17.833 160.167 -53.5 226.5z" />
    <glyph glyph-name="multiply" unicode="&#xd7;" horiz-adv-x="1103" 
d="M414 623l-238 237l137 137l236 -237l237 237l140 -137l-238 -237l238 -238l-138 -137l-237 237l-238 -237l-137 137z" />
    <glyph glyph-name="Oslash" unicode="&#xd8;" horiz-adv-x="1538" 
d="M1128.5 1255c106.333 -57.333 189.5 -137.831 249.5 -241.498s90 -221.834 90 -354.501c0 -134 -30 -252.833 -90 -356.5s-143.167 -184.167 -249.5 -241.5s-226.5 -86 -360.5 -86s-253.833 28.667 -359.5 86s-188.5 137.666 -248.5 240.999s-90 221.666 -90 354.999
c0 132.667 30 250.834 90 354.501s142.833 184.5 248.5 242.5s225.5 87 359.5 87s254.167 -28.667 360.5 -86zM554 1038.5c-63.333 -37 -113.166 -88.335 -149.499 -154.002s-54.5 -141.5 -54.5 -227.5c0 -58.667 8.5 -113.167 25.5 -163.5s42.167 -94.166 75.5 -131.499
l444 715c-40.667 10.667 -82.334 16.334 -125.001 17.001c-80.667 0 -152.667 -18.5 -216 -55.5zM983 278.5c62.667 37 112.166 88.499 148.499 154.499s54.5 141.333 54.5 226c0 60 -9.66699 116.333 -29 169s-46 98.334 -80 137.001l-442 -723
c40.667 -12 85 -18.333 133 -19c80.667 0 152.334 18.5 215.001 55.5z" />
    <glyph glyph-name="Ugrave" unicode="&#xd9;" horiz-adv-x="1384" 
d="M330 1673l127 127l311 -334l-76 -77zM135 1313h266v-821c0 -94 27 -163.667 81 -209s124 -68 210 -68c91.333 0 163 23.5 215 70.5s78 115.833 78 206.5v821h266v-832c0 -108 -23.833 -200.167 -71.5 -276.5s-113.5 -134 -197.5 -173s-180.667 -58.5 -290 -58.5
c-169.333 0 -304.5 44.833 -405.5 134.5s-151.5 214.167 -151.5 373.5v832z" />
    <glyph glyph-name="Uacute" unicode="&#xda;" horiz-adv-x="1384" 
d="M616 1468l312 334l127 -129l-363 -282zM135 1313h266v-821c0 -94 27 -163.667 81 -209s124 -68 210 -68c91.333 0 163 23.5 215 70.5s78 115.833 78 206.5v821h266v-832c0 -108 -23.833 -200.167 -71.5 -276.5s-113.5 -134 -197.5 -173s-180.667 -58.5 -290 -58.5
c-169.333 0 -304.5 44.833 -405.5 134.5s-151.5 214.167 -151.5 373.5v832z" />
    <glyph glyph-name="Ucircumflex" unicode="&#xdb;" horiz-adv-x="1384" 
d="M582 1745h221l213 -285l-119 -82l-205 215l-205 -215l-118 82zM135 1313h266v-821c0 -94 27 -163.667 81 -209s124 -68 210 -68c91.333 0 163 23.5 215 70.5s78 115.833 78 206.5v821h266v-832c0 -108 -23.833 -200.167 -71.5 -276.5s-113.5 -134 -197.5 -173
s-180.667 -58.5 -290 -58.5c-169.333 0 -304.5 44.833 -405.5 134.5s-151.5 214.167 -151.5 373.5v832z" />
    <glyph glyph-name="Udieresis" unicode="&#xdc;" horiz-adv-x="1384" 
d="M404.5 1425.5c-25 24.333 -37.5 54.5 -37.5 90.5c0 38 12.5 69 37.5 93s56.167 36 93.5 36c36.667 0 67 -12 91 -36s36 -55 36 -93c0 -35.333 -12.333 -65.333 -37 -90s-54.667 -37 -90 -37c-37.333 0 -68.5 12.167 -93.5 36.5zM796 1425.5
c-25.333 24.333 -38 54.5 -38 90.5c0 38 12.667 69 38 93s56.333 36 93 36s67.334 -12 92.001 -36s37 -55 37 -93c0 -35.333 -12.333 -65.333 -37 -90s-55.334 -37 -92.001 -37s-67.667 12.167 -93 36.5zM135 1313h266v-821c0 -94 27 -163.667 81 -209s124 -68 210 -68
c91.333 0 163 23.5 215 70.5s78 115.833 78 206.5v821h266v-832c0 -108 -23.833 -200.167 -71.5 -276.5s-113.5 -134 -197.5 -173s-180.667 -58.5 -290 -58.5c-169.333 0 -304.5 44.833 -405.5 134.5s-151.5 214.167 -151.5 373.5v832z" />
    <glyph glyph-name="Yacute" unicode="&#xdd;" horiz-adv-x="1245" 
d="M553 1468l311 334l127 -129l-362 -282zM328 1313l143.001 -250l104 -187.5c27.333 -49.667 44.666 -82.167 51.999 -97.5c6.66699 15.333 24.667 50.333 54 105l101 180l144 250h299l-467 -793v-520h-269v520l-471 793h310z" />
    <glyph glyph-name="Thorn" unicode="&#xde;" horiz-adv-x="1193" 
d="M1022 979c80.667 -80.667 120.999 -189.999 120.999 -327.999c0 -88.667 -18.167 -166.834 -54.5 -234.501s-89 -120.5 -158 -158.5s-150.5 -57 -244.5 -57h-274v-201h-267v1313h267v-213h278c140.667 0 251.334 -40.333 332.001 -121zM807.999 494.501
c37.333 43 56 96.501 56 160.501c0 57.333 -18.333 106.166 -55 146.499s-92.667 60.5 -168 60.5h-229v-432h225c76.667 0 133.667 21.5 171 64.5z" />
    <glyph glyph-name="germandbls" unicode="&#xdf;" horiz-adv-x="1140" 
d="M991 660.5c52 -71.667 78.001 -156.495 78.001 -254.495c0 -83.333 -18.833 -156.833 -56.5 -220.5s-90.5 -112.834 -158.5 -147.501s-147.333 -52 -238 -52c-64 0 -113 4.66699 -147 14v221c26 -8 58 -12 96 -12c75.333 0 135.166 20.5 179.499 61.5
s66.5 96.833 66.5 167.5c0 74 -23.833 131.833 -71.5 173.5s-111.834 62.5 -192.501 62.5h-27v215h25c52 0 93.667 15 125 45s47 69.667 47 119c0 50.667 -15.333 90.667 -46 120s-72 44 -124 44c-53.333 0 -95.333 -17.5 -126 -52.5s-46 -81.833 -46 -140.5v-1026h-256
v1010c0 131.333 39.833 235.5 119.5 312.5s185.834 115.5 318.501 115.5c124 0 224.667 -32.833 302 -98.5s116 -151.834 116 -258.501c0 -70.667 -17.833 -132.334 -53.5 -185.001s-84.167 -86.334 -145.5 -101.001c91.333 -16.667 163 -60.834 215 -132.501z" />
    <glyph glyph-name="agrave" unicode="&#xe0;" horiz-adv-x="1185" 
d="M160 1309l127 127l311 -334l-76 -78zM1069 918l0.000976562 -918h-244v117c-31.333 -44 -75.666 -79 -132.999 -105s-120 -39 -188 -39c-84.667 0 -159.834 19.833 -225.501 59.5s-116.834 95.667 -153.501 168s-55 156.5 -55 252.5c0 98 19 184.5 57 259.5
s91.833 133 161.5 174s148.834 61.5 237.501 61.5c68 0 128.667 -11.5 182 -34.5s96.666 -56.5 129.999 -100.5l20 105h211zM745.501 275.5c45 47 67.5 109.502 67.5 187.502s-22.167 140.5 -66.5 187.5s-102.833 70.5 -175.5 70.5c-74 0 -132.667 -23.833 -176 -71.5
s-65 -109.834 -65 -186.501s22.167 -138.834 66.5 -186.501s101.833 -71.5 172.5 -71.5c72.667 0 131.5 23.5 176.5 70.5z" />
    <glyph glyph-name="aacute" unicode="&#xe1;" horiz-adv-x="1185" 
d="M446 1102l312 334l127 -127l-363 -285zM1069 918l0.000976562 -918h-244v117c-31.333 -44 -75.666 -79 -132.999 -105s-120 -39 -188 -39c-84.667 0 -159.834 19.833 -225.501 59.5s-116.834 95.667 -153.501 168s-55 156.5 -55 252.5c0 98 19 184.5 57 259.5
s91.833 133 161.5 174s148.834 61.5 237.501 61.5c68 0 128.667 -11.5 182 -34.5s96.666 -56.5 129.999 -100.5l20 105h211zM745.501 275.5c45 47 67.5 109.502 67.5 187.502s-22.167 140.5 -66.5 187.5s-102.833 70.5 -175.5 70.5c-74 0 -132.667 -23.833 -176 -71.5
s-65 -109.834 -65 -186.501s22.167 -138.834 66.5 -186.501s101.833 -71.5 172.5 -71.5c72.667 0 131.5 23.5 176.5 70.5z" />
    <glyph glyph-name="acircumflex" unicode="&#xe2;" horiz-adv-x="1185" 
d="M412 1380h221l211 -284l-117 -82l-205 215l-205 -215l-118 82zM1069 918l0.000976562 -918h-244v117c-31.333 -44 -75.666 -79 -132.999 -105s-120 -39 -188 -39c-84.667 0 -159.834 19.833 -225.501 59.5s-116.834 95.667 -153.501 168s-55 156.5 -55 252.5
c0 98 19 184.5 57 259.5s91.833 133 161.5 174s148.834 61.5 237.501 61.5c68 0 128.667 -11.5 182 -34.5s96.666 -56.5 129.999 -100.5l20 105h211zM745.501 275.5c45 47 67.5 109.502 67.5 187.502s-22.167 140.5 -66.5 187.5s-102.833 70.5 -175.5 70.5
c-74 0 -132.667 -23.833 -176 -71.5s-65 -109.834 -65 -186.501s22.167 -138.834 66.5 -186.501s101.833 -71.5 172.5 -71.5c72.667 0 131.5 23.5 176.5 70.5z" />
    <glyph glyph-name="atilde" unicode="&#xe3;" horiz-adv-x="1185" 
d="M219 1102c0 62.667 15.3301 112.501 45.9971 149.501s71.334 55.5 122.001 55.5c27.333 0 51.666 -4.5 72.999 -13.5s48.333 -23.167 81 -42.5c20.667 -12 38 -21.5 52 -28.5s27.333 -10.5 40 -10.5c24.667 0 41.334 7.5 50.001 22.5s12.334 38.5 11.001 70.5h125
c4 -22 6 -44 6 -66c0 -58.667 -15.667 -106.167 -47 -142.5s-73 -54.5 -125 -54.5c-27.333 0 -53.166 5.16699 -77.499 15.5s-51.5 24.5 -81.5 42.5c-15.333 9.33301 -30.833 17.5 -46.5 24.5s-28.834 10.5 -39.501 10.5c-24.667 0 -41.167 -10.333 -49.5 -31
s-11.166 -45.334 -8.49902 -74.001h-125c-4 27.333 -6 51.333 -6 72zM1069 918.001l0.000976562 -918h-244v117c-31.333 -44 -75.666 -79 -132.999 -105s-120 -39 -188 -39c-84.667 0 -159.834 19.833 -225.501 59.5s-116.834 95.667 -153.501 168s-55 156.5 -55 252.5
c0 98 19 184.5 57 259.5s91.833 133 161.5 174s148.834 61.5 237.501 61.5c68 0 128.667 -11.5 182 -34.5s96.666 -56.5 129.999 -100.5l20 105h211zM745.498 275.501c45 47 67.5 109.502 67.5 187.502s-22.167 140.5 -66.5 187.5s-102.833 70.5 -175.5 70.5
c-74 0 -132.667 -23.833 -176 -71.5s-65 -109.834 -65 -186.501s22.167 -138.834 66.5 -186.501s101.833 -71.5 172.5 -71.5c72.667 0 131.5 23.5 176.5 70.5z" />
    <glyph glyph-name="adieresis" unicode="&#xe4;" horiz-adv-x="1185" 
d="M234.5 1067c-25 24.667 -37.5 54.667 -37.5 90c0 38 12.5 69 37.5 93s56.167 36 93.5 36c36.667 0 67 -12 91 -36s36 -55 36 -93c0 -35.333 -12.333 -65.333 -37 -90s-54.667 -37 -90 -37c-37.333 0 -68.5 12.333 -93.5 37zM626 1067c-25.333 24.667 -38 54.667 -38 90
c0 38 12.667 69 38 93s56.333 36 93 36s67.334 -12 92.001 -36s37 -55 37 -93c0 -35.333 -12.333 -65.333 -37 -90s-55.334 -37 -92.001 -37s-67.667 12.333 -93 37zM1069 918l0.000976562 -918h-244v117c-31.333 -44 -75.666 -79 -132.999 -105s-120 -39 -188 -39
c-84.667 0 -159.834 19.833 -225.501 59.5s-116.834 95.667 -153.501 168s-55 156.5 -55 252.5c0 98 19 184.5 57 259.5s91.833 133 161.5 174s148.834 61.5 237.501 61.5c68 0 128.667 -11.5 182 -34.5s96.666 -56.5 129.999 -100.5l20 105h211zM745.501 275.5
c45 47 67.5 109.502 67.5 187.502s-22.167 140.5 -66.5 187.5s-102.833 70.5 -175.5 70.5c-74 0 -132.667 -23.833 -176 -71.5s-65 -109.834 -65 -186.501s22.167 -138.834 66.5 -186.501s101.833 -71.5 172.5 -71.5c72.667 0 131.5 23.5 176.5 70.5z" />
    <glyph glyph-name="aring" unicode="&#xe5;" horiz-adv-x="1185" 
d="M329.5 1069c-47.667 49.333 -71.501 107.332 -71.501 173.999c0 68 23.833 126.333 71.5 175s111.834 73 192.501 73c52 0 98.167 -11.667 138.5 -35s71.333 -54 93 -92s32.5 -78.333 32.5 -121c0 -44 -10.5 -84.667 -31.5 -122s-51.667 -67.666 -92 -90.999
s-87.166 -35 -140.499 -35c-80.667 0 -144.834 24.667 -192.501 74zM594.999 1171.5c20 20.333 29.998 45.5 29.998 75.5c0 27.333 -10 51.333 -30 72s-44.333 31 -73 31c-27.333 0 -51.166 -10 -71.499 -30s-30.5 -44.333 -30.5 -73c0 -30 9.83301 -55.167 29.5 -75.5
s43.834 -30.5 72.501 -30.5s53 10.167 73 30.5zM1069 917.999l0.000976562 -918h-244v117c-31.333 -44 -75.666 -79 -132.999 -105s-120 -39 -188 -39c-84.667 0 -159.834 19.833 -225.501 59.5s-116.834 95.667 -153.501 168s-55 156.5 -55 252.5c0 98 19 184.5 57 259.5
s91.833 133 161.5 174s148.834 61.5 237.501 61.5c68 0 128.667 -11.5 182 -34.5s96.666 -56.5 129.999 -100.5l20 105h211zM745.498 275.499c45 47 67.5 109.502 67.5 187.502s-22.167 140.5 -66.5 187.5s-102.833 70.5 -175.5 70.5c-74 0 -132.667 -23.833 -176 -71.5
s-65 -109.834 -65 -186.501s22.167 -138.834 66.5 -186.501s101.833 -71.5 172.5 -71.5c72.667 0 131.5 23.5 176.5 70.5z" />
    <glyph glyph-name="ae" unicode="&#xe6;" horiz-adv-x="1679" 
d="M1614 287c-23.333 -94 -76.3359 -169.504 -159.003 -226.504s-182 -85.5 -298 -85.5c-84.667 0 -159.667 15.5 -225 46.5s-115.333 73.833 -150 128.5c-32.667 -54.667 -79.667 -97.834 -141 -129.501s-133 -47.5 -215 -47.5c-108 0 -194 26.667 -258 80
s-96 124.333 -96 213s32.333 159.334 97 212.001s155.667 79 273 79h220v37c0 52 -15.5 91.667 -46.5 119s-73.833 41 -128.5 41c-52 0 -94 -11.667 -126 -35s-49.333 -54.666 -52 -93.999h-215c4 96.667 44 174.667 120 234s173.333 89 292 89
c69.333 0 130.333 -11.5 183 -34.5s95.334 -56.5 128.001 -100.5c39.333 44 87.833 77.167 145.5 99.5s120.5 33.5 188.5 33.5c88.667 0 167.834 -18.667 237.501 -56s123.667 -89.166 162 -155.499s57.5 -141.166 57.5 -224.499c0 -27.333 -1.83301 -52.666 -5.5 -75.999
s-6.16699 -38.333 -7.5 -45h-667c1.33301 -58.667 22.833 -107.5 64.5 -146.5s97.834 -58.5 168.501 -58.5c49.333 0 92.833 9.33301 130.5 28s63.167 43.667 76.5 75h246zM991.497 686.996c-38.333 -33.333 -58.834 -76.668 -61.501 -130.001h420
c-1.33301 54.667 -21.5 98.334 -60.5 131.001s-88.5 49 -148.5 49c-61.333 0 -111.166 -16.667 -149.499 -50zM663.996 390.994l-159.998 -0.000976562c-62.667 0 -107.334 -10.833 -134.001 -32.5s-40 -50.5 -40 -86.5c0 -35.333 12.667 -62.5 38 -81.5
s59.666 -28.5 102.999 -28.5c60 0 107.167 17.333 141.5 52s51.5 81.334 51.5 140.001v37z" />
    <glyph glyph-name="ccedilla" unicode="&#xe7;" horiz-adv-x="1095" 
d="M660.5 -116.5c32.333 -12.333 59.668 -33.501 82.001 -63.501s33.5 -67.667 33.5 -113c0 -66.667 -23.833 -118.167 -71.5 -154.5s-105.167 -54.5 -172.5 -54.5c-61.333 0 -118 15 -170 45v133c13.333 -16.667 31.5 -29.334 54.5 -38.001s46.5 -13 70.5 -13
c31.333 0 58.333 7.83301 81 23.5s34 37.834 34 66.501c0 27.333 -10.833 50.333 -32.5 69s-47.5 28 -77.5 28c-9.33301 0 -16.333 -0.666992 -21 -2l-47 59l111 217h104v-72l-68 -116c27.333 2.66699 57.166 -2.16602 89.499 -14.499zM131.502 716.499
c-41 -73.667 -61.499 -158.834 -61.499 -255.501s20.5 -182 61.5 -256s98.667 -131.167 173 -171.5s159.833 -60.5 256.5 -60.5c126.667 0 232.834 34.5 318.501 103.5s134.5 159.5 146.5 271.5h-260c-9.33301 -45.333 -32.833 -81.833 -70.5 -109.5
s-83.834 -41.5 -138.501 -41.5c-69.333 0 -124.5 23.833 -165.5 71.5s-61.5 111.167 -61.5 190.5c0 80.667 20.833 144.834 62.5 192.501s96.5 71.5 164.5 71.5c53.333 0 98.5 -13 135.5 -39s61.5 -63.667 73.5 -113h260c-10.667 114.667 -58.334 206.167 -143.001 274.5
s-192 102.5 -322 102.5c-96.667 0 -182.167 -20.167 -256.5 -60.5s-132 -97.333 -173 -171z" />
    <glyph glyph-name="egrave" unicode="&#xe8;" horiz-adv-x="1062" 
d="M184 1309l127 127l312 -334l-76 -78zM850 60c-83.333 -58 -182.335 -87.002 -297.002 -87.002c-95.333 0 -179.666 20.5 -252.999 61.5s-130 98.667 -170 173s-60 159.5 -60 255.5c0 96.667 20 181.834 60 255.501s96.333 130.334 169 170.001s155.334 59.5 248.001 59.5
c90 0 169.5 -18.667 238.5 -56s122.667 -89.5 161 -156.5s57.5 -142.833 57.5 -227.5c0 -34 -3.66699 -73.667 -11 -119h-671c2.66699 -62.667 25.167 -113.167 67.5 -151.5s96.833 -57.5 163.5 -57.5c49.333 0 92 10 128 30s61.667 47 77 81h248
c-20.667 -96 -72.667 -173 -156 -231zM742.998 558.998c-1.33301 56 -20.999 100.001 -58.999 132.001s-86.333 48 -145 48c-61.333 0 -111.833 -16.333 -151.5 -49s-60.834 -76.334 -63.501 -131.001h419z" />
    <glyph glyph-name="eacute" unicode="&#xe9;" horiz-adv-x="1062" 
d="M471 1104l311 334l127 -129l-362 -283zM850 60c-83.333 -58 -182.335 -87.002 -297.002 -87.002c-95.333 0 -179.666 20.5 -252.999 61.5s-130 98.667 -170 173s-60 159.5 -60 255.5c0 96.667 20 181.834 60 255.501s96.333 130.334 169 170.001
s155.334 59.5 248.001 59.5c90 0 169.5 -18.667 238.5 -56s122.667 -89.5 161 -156.5s57.5 -142.833 57.5 -227.5c0 -34 -3.66699 -73.667 -11 -119h-671c2.66699 -62.667 25.167 -113.167 67.5 -151.5s96.833 -57.5 163.5 -57.5c49.333 0 92 10 128 30s61.667 47 77 81h248
c-20.667 -96 -72.667 -173 -156 -231zM742.998 558.998c-1.33301 56 -20.999 100.001 -58.999 132.001s-86.333 48 -145 48c-61.333 0 -111.833 -16.333 -151.5 -49s-60.834 -76.334 -63.501 -131.001h419z" />
    <glyph glyph-name="ecircumflex" unicode="&#xea;" horiz-adv-x="1062" 
d="M436 1380h221l213 -284l-118 -82l-205 215l-205 -215l-119 82zM850 60c-83.333 -58 -182.335 -87.002 -297.002 -87.002c-95.333 0 -179.666 20.5 -252.999 61.5s-130 98.667 -170 173s-60 159.5 -60 255.5c0 96.667 20 181.834 60 255.501s96.333 130.334 169 170.001
s155.334 59.5 248.001 59.5c90 0 169.5 -18.667 238.5 -56s122.667 -89.5 161 -156.5s57.5 -142.833 57.5 -227.5c0 -34 -3.66699 -73.667 -11 -119h-671c2.66699 -62.667 25.167 -113.167 67.5 -151.5s96.833 -57.5 163.5 -57.5c49.333 0 92 10 128 30s61.667 47 77 81h248
c-20.667 -96 -72.667 -173 -156 -231zM742.998 558.998c-1.33301 56 -20.999 100.001 -58.999 132.001s-86.333 48 -145 48c-61.333 0 -111.833 -16.333 -151.5 -49s-60.834 -76.334 -63.501 -131.001h419z" />
    <glyph glyph-name="edieresis" unicode="&#xeb;" horiz-adv-x="1062" 
d="M259 1067c-25.333 24.667 -38 54.667 -38 90c0 38 12.667 69 38 93s56.333 36 93 36s67 -12 91 -36s36 -55 36 -93c0 -35.333 -12.167 -65.333 -36.5 -90s-54.5 -37 -90.5 -37c-36.667 0 -67.667 12.333 -93 37zM650 1067c-25.333 24.667 -38.002 54.667 -38.002 90
c0 38 12.667 69 38 93s56.333 36 93 36s67.334 -12 92.001 -36s37 -55 37 -93c0 -35.333 -12.167 -65.333 -36.5 -90s-55.166 -37 -92.499 -37c-36.667 0 -67.667 12.333 -93 37zM849.998 60c-83.333 -58 -182.335 -87.002 -297.002 -87.002
c-95.333 0 -179.666 20.5 -252.999 61.5s-130 98.667 -170 173s-60 159.5 -60 255.5c0 96.667 20 181.834 60 255.501s96.333 130.334 169 170.001s155.334 59.5 248.001 59.5c90 0 169.5 -18.667 238.5 -56s122.667 -89.5 161 -156.5s57.5 -142.833 57.5 -227.5
c0 -34 -3.66699 -73.667 -11 -119h-671c2.66699 -62.667 25.167 -113.167 67.5 -151.5s96.833 -57.5 163.5 -57.5c49.333 0 92 10 128 30s61.667 47 77 81h248c-20.667 -96 -72.667 -173 -156 -231zM742.996 558.998c-1.33301 56 -20.999 100.001 -58.999 132.001
s-86.333 48 -145 48c-61.333 0 -111.833 -16.333 -151.5 -49s-60.834 -76.334 -63.501 -131.001h419z" />
    <glyph glyph-name="igrave" unicode="&#xec;" horiz-adv-x="493" 
d="M-115 1325l127 127l312 -334l-76 -78zM375 918v-918h-256v918h256z" />
    <glyph glyph-name="iacute" unicode="&#xed;" horiz-adv-x="493" 
d="M172 1120l311 334l127 -129l-362 -283zM375 918v-918h-256v918h256z" />
    <glyph glyph-name="icircumflex" unicode="&#xee;" horiz-adv-x="493" 
d="M137 1397h221l213 -285l-118 -82l-205 215l-205 -215l-119 82zM375 918v-918h-256v918h256z" />
    <glyph glyph-name="idieresis" unicode="&#xef;" horiz-adv-x="493" 
d="M-40 1077c-25.333 24.667 -38 54.668 -38 90.001c0 38 12.667 69 38 93s56.333 36 93 36s67 -11.833 91 -35.5s36 -54.834 36 -93.501c0 -35.333 -12.333 -65.333 -37 -90s-54.667 -37 -90 -37c-36.667 0 -67.667 12.333 -93 37zM351 1077
c-25.333 24.667 -38.002 54.668 -38.002 90.001c0 38 12.667 69 38 93s56.333 36 93 36s67.334 -11.833 92.001 -35.5s37 -54.834 37 -93.501c0 -35.333 -12.167 -65.333 -36.5 -90s-55.166 -37 -92.499 -37c-36.667 0 -67.667 12.333 -93 37zM374.998 918.002v-918h-256
v918h256z" />
    <glyph glyph-name="eth" unicode="&#xf0;" horiz-adv-x="1105" 
d="M982 705.5c36 -69 54.001 -151.836 54.001 -248.503c0 -95.333 -20.5 -179.666 -61.5 -252.999s-98.667 -130.166 -173 -170.499s-159.833 -60.5 -256.5 -60.5c-95.333 0 -179 19.833 -251 59.5s-127.333 94 -166 163s-58 146.5 -58 232.5c0 91.333 20 171.5 60 240.5
s95.167 121.333 165.5 157s148.5 51.834 234.5 48.501c5.33301 0 9.66602 1 12.999 3l-109 122l-217 -100l-70 150l175 79l-160 185h317l70 -78l192 88l66 -149l-143 -68l172 -193c61.333 -69.333 110 -138.5 146 -207.5zM716.501 269.497
c42.333 48.333 63.5 110.833 63.5 187.5c0 75.333 -20.833 136.833 -62.5 184.5s-96.5 71.5 -164.5 71.5s-122.833 -24 -164.5 -72s-62.5 -109.333 -62.5 -184c0 -76.667 20.833 -139.167 62.5 -187.5s96.5 -72.5 164.5 -72.5c66.667 0 121.167 24.167 163.5 72.5z" />
    <glyph glyph-name="ntilde" unicode="&#xf1;" horiz-adv-x="1093" 
d="M244 1102c0 62.667 15.3301 112.501 45.9971 149.501s71.334 55.5 122.001 55.5c27.333 0 51.5 -4.5 72.5 -13.5s47.833 -23.167 80.5 -42.5c20.667 -12 38.167 -21.5 52.5 -28.5s27.5 -10.5 39.5 -10.5c24.667 0 41.5 7.5 50.5 22.5s12.833 38.5 11.5 70.5h125
c4 -22 6 -44 6 -66c0 -58.667 -15.667 -106.167 -47 -142.5s-73 -54.5 -125 -54.5c-27.333 0 -53.333 5.16699 -78 15.5s-52 24.5 -82 42.5c-15.333 9.33301 -30.666 17.5 -45.999 24.5s-28.666 10.5 -39.999 10.5c-24.667 0 -41 -10.333 -49 -31
s-10.667 -45.334 -8 -74.001h-125c-4 27.333 -6 51.333 -6 72zM892.997 845.501c61.333 -68.333 92 -160.5 92 -276.5v-569h-256v510c0 139.333 -56 209 -168 209c-61.333 0 -108 -18.167 -140 -54.5s-48 -84.5 -48 -144.5v-520h-254v918h213l16 -107
c28.667 42 69 75.333 121 100s108.667 37 170 37c108 0 192.667 -34.167 254 -102.5z" />
    <glyph glyph-name="ograve" unicode="&#xf2;" horiz-adv-x="1153" 
d="M213 1309l127 127l311 -334l-76 -78zM133.5 712.5c42.333 73.667 102.001 131.332 179.001 172.999s164.5 62.5 262.5 62.5s185.667 -20.833 263 -62.5s137.166 -99.334 179.499 -173.001s63.5 -157.5 63.5 -251.5s-21.167 -178 -63.5 -252s-102 -131.833 -179 -173.5
s-164.833 -62.5 -263.5 -62.5c-98 0 -185.167 20.833 -261.5 62.5s-136 99.334 -179 173.001s-64.5 157.834 -64.5 252.501c0 94 21.167 177.833 63.5 251.5zM398.501 273.498c45.667 -49.667 104.499 -74.5 176.499 -74.5c72.667 0 131.834 24.833 177.501 74.5
s68.5 112.167 68.5 187.5c0 76.667 -22.5 139.167 -67.5 187.5s-104.5 72.5 -178.5 72.5c-72.667 0 -131.667 -24.333 -177 -73s-68 -111 -68 -187c0 -75.333 22.833 -137.833 68.5 -187.5z" />
    <glyph glyph-name="oacute" unicode="&#xf3;" horiz-adv-x="1153" 
d="M500 1104l311 334l127 -129l-363 -283zM133.5 712.5c42.333 73.667 102.001 131.332 179.001 172.999s164.5 62.5 262.5 62.5s185.667 -20.833 263 -62.5s137.166 -99.334 179.499 -173.001s63.5 -157.5 63.5 -251.5s-21.167 -178 -63.5 -252s-102 -131.833 -179 -173.5
s-164.833 -62.5 -263.5 -62.5c-98 0 -185.167 20.833 -261.5 62.5s-136 99.334 -179 173.001s-64.5 157.834 -64.5 252.501c0 94 21.167 177.833 63.5 251.5zM398.501 273.498c45.667 -49.667 104.499 -74.5 176.499 -74.5c72.667 0 131.834 24.833 177.501 74.5
s68.5 112.167 68.5 187.5c0 76.667 -22.5 139.167 -67.5 187.5s-104.5 72.5 -178.5 72.5c-72.667 0 -131.667 -24.333 -177 -73s-68 -111 -68 -187c0 -75.333 22.833 -137.833 68.5 -187.5z" />
    <glyph glyph-name="ocircumflex" unicode="&#xf4;" horiz-adv-x="1153" 
d="M465 1380h221l213 -284l-119 -82l-205 215l-204 -215l-119 82zM133.5 712.5c42.333 73.667 102.001 131.332 179.001 172.999s164.5 62.5 262.5 62.5s185.667 -20.833 263 -62.5s137.166 -99.334 179.499 -173.001s63.5 -157.5 63.5 -251.5s-21.167 -178 -63.5 -252
s-102 -131.833 -179 -173.5s-164.833 -62.5 -263.5 -62.5c-98 0 -185.167 20.833 -261.5 62.5s-136 99.334 -179 173.001s-64.5 157.834 -64.5 252.501c0 94 21.167 177.833 63.5 251.5zM398.501 273.498c45.667 -49.667 104.499 -74.5 176.499 -74.5
c72.667 0 131.834 24.833 177.501 74.5s68.5 112.167 68.5 187.5c0 76.667 -22.5 139.167 -67.5 187.5s-104.5 72.5 -178.5 72.5c-72.667 0 -131.667 -24.333 -177 -73s-68 -111 -68 -187c0 -75.333 22.833 -137.833 68.5 -187.5z" />
    <glyph glyph-name="otilde" unicode="&#xf5;" horiz-adv-x="1153" 
d="M272 1102c0 62.667 15.501 112.501 46.501 149.501s71.5 55.5 121.5 55.5c27.333 0 51.666 -4.5 72.999 -13.5s48.333 -23.167 81 -42.5c20.667 -12 38.167 -21.5 52.5 -28.5s27.5 -10.5 39.5 -10.5c24.667 0 41.5 7.5 50.5 22.5s12.833 38.5 11.5 70.5h124
c4 -22 6.33301 -44 7 -66c0 -58.667 -15.833 -106.167 -47.5 -142.5s-73.167 -54.5 -124.5 -54.5c-27.333 0 -53.333 5.16699 -78 15.5s-52 24.5 -82 42.5c-15.333 9.33301 -30.833 17.5 -46.5 24.5s-28.834 10.5 -39.501 10.5c-24.667 0 -41.167 -10.333 -49.5 -31
s-11.166 -45.334 -8.49902 -74.001h-124c-4.66699 27.333 -7 51.333 -7 72zM133.501 712.501c42.333 73.667 102.001 131.332 179.001 172.999s164.5 62.5 262.5 62.5s185.667 -20.833 263 -62.5s137.166 -99.334 179.499 -173.001s63.5 -157.5 63.5 -251.5
s-21.167 -178 -63.5 -252s-102 -131.833 -179 -173.5s-164.833 -62.5 -263.5 -62.5c-98 0 -185.167 20.833 -261.5 62.5s-136 99.334 -179 173.001s-64.5 157.834 -64.5 252.501c0 94 21.167 177.833 63.5 251.5zM398.502 273.499
c45.667 -49.667 104.499 -74.5 176.499 -74.5c72.667 0 131.834 24.833 177.501 74.5s68.5 112.167 68.5 187.5c0 76.667 -22.5 139.167 -67.5 187.5s-104.5 72.5 -178.5 72.5c-72.667 0 -131.667 -24.333 -177 -73s-68 -111 -68 -187
c0 -75.333 22.833 -137.833 68.5 -187.5z" />
    <glyph glyph-name="odieresis" unicode="&#xf6;" horiz-adv-x="1153" 
d="M288 1061c-25.333 24.667 -38 54.667 -38 90c0 38 12.667 69 38 93s56.333 36 93 36s67 -12 91 -36s36 -55 36 -93c0 -35.333 -12.333 -65.333 -37 -90s-54.667 -37 -90 -37c-36.667 0 -67.667 12.333 -93 37zM679 1061c-25.333 24.667 -38 54.667 -38 90
c0 38 12.667 69 38 93s56.333 36 93 36s67.334 -12 92.001 -36s37 -55 37 -93c0 -35.333 -12.333 -65.333 -37 -90s-55.334 -37 -92.001 -37s-67.667 12.333 -93 37zM133.5 712.5c42.333 73.667 102.001 131.332 179.001 172.999s164.5 62.5 262.5 62.5
s185.667 -20.833 263 -62.5s137.166 -99.334 179.499 -173.001s63.5 -157.5 63.5 -251.5s-21.167 -178 -63.5 -252s-102 -131.833 -179 -173.5s-164.833 -62.5 -263.5 -62.5c-98 0 -185.167 20.833 -261.5 62.5s-136 99.334 -179 173.001s-64.5 157.834 -64.5 252.501
c0 94 21.167 177.833 63.5 251.5zM398.501 273.498c45.667 -49.667 104.499 -74.5 176.499 -74.5c72.667 0 131.834 24.833 177.501 74.5s68.5 112.167 68.5 187.5c0 76.667 -22.5 139.167 -67.5 187.5s-104.5 72.5 -178.5 72.5c-72.667 0 -131.667 -24.333 -177 -73
s-68 -111 -68 -187c0 -75.333 22.833 -137.833 68.5 -187.5z" />
    <glyph glyph-name="divide" unicode="&#xf7;" horiz-adv-x="1013" 
d="M405.5 867c-29 28 -43.5 61.333 -43.5 100c0 38 14.5 71.333 43.5 100s63.167 43 102.5 43s73.333 -14.333 102 -43s43 -62 43 -100s-14.667 -71.167 -44 -99.5s-63 -42.5 -101 -42.5c-39.333 0 -73.5 14 -102.5 42zM866 705v-199h-719v199h719zM405.5 142
c-29 28 -43.5 61.333 -43.5 100c0 39.333 14.5 73.333 43.5 102s63.167 43 102.5 43c38 0 71.667 -14.667 101 -44s44 -63 44 -101s-14.333 -71.167 -43 -99.5s-62.667 -42.5 -102 -42.5s-73.5 14 -102.5 42z" />
    <glyph glyph-name="oslash" unicode="&#xf8;" horiz-adv-x="1153" 
d="M182 -19l653 1039l143 -86l-655 -1040zM133.5 712.5c42.333 73.667 102.001 131.332 179.001 172.999s164.5 62.5 262.5 62.5s185.667 -20.833 263 -62.5s137.166 -99.334 179.499 -173.001s63.5 -157.5 63.5 -251.5s-21.167 -178 -63.5 -252s-102 -131.833 -179 -173.5
s-164.833 -62.5 -263.5 -62.5c-98 0 -185.167 20.833 -261.5 62.5s-136 99.334 -179 173.001s-64.5 157.834 -64.5 252.501c0 94 21.167 177.833 63.5 251.5zM398.501 273.498c45.667 -49.667 104.499 -74.5 176.499 -74.5c72.667 0 131.834 24.833 177.501 74.5
s68.5 112.167 68.5 187.5c0 76.667 -22.5 139.167 -67.5 187.5s-104.5 72.5 -178.5 72.5c-72.667 0 -131.667 -24.333 -177 -73s-68 -111 -68 -187c0 -75.333 22.833 -137.833 68.5 -187.5z" />
    <glyph glyph-name="ugrave" unicode="&#xf9;" horiz-adv-x="1075" 
d="M176 1280l127 127l311 -334l-75 -78zM965 918l-0.00195312 -918.001h-211l-17 109c-32.667 -45.333 -73.167 -79.333 -121.5 -102s-103.166 -34 -164.499 -34c-109.333 0 -193.666 32.833 -252.999 98.5s-89 153.834 -89 264.501v582h256v-541
c0 -65.333 14.667 -112 44 -140s71.333 -42 126 -42s97.667 17.667 129 53s47 82.333 47 141v529h254z" />
    <glyph glyph-name="uacute" unicode="&#xfa;" horiz-adv-x="1075" 
d="M463 1075l311 334l127 -129l-362 -283zM965 918l-0.00195312 -918.001h-211l-17 109c-32.667 -45.333 -73.167 -79.333 -121.5 -102s-103.166 -34 -164.499 -34c-109.333 0 -193.666 32.833 -252.999 98.5s-89 153.834 -89 264.501v582h256v-541
c0 -65.333 14.667 -112 44 -140s71.333 -42 126 -42s97.667 17.667 129 53s47 82.333 47 141v529h254z" />
    <glyph glyph-name="ucircumflex" unicode="&#xfb;" horiz-adv-x="1075" 
d="M428 1352h221l213 -285l-119 -82l-204 215l-205 -215l-119 82zM965 918l-0.00195312 -918.001h-211l-17 109c-32.667 -45.333 -73.167 -79.333 -121.5 -102s-103.166 -34 -164.499 -34c-109.333 0 -193.666 32.833 -252.999 98.5s-89 153.834 -89 264.501v582h256v-541
c0 -65.333 14.667 -112 44 -140s71.333 -42 126 -42s97.667 17.667 129 53s47 82.333 47 141v529h254z" />
    <glyph glyph-name="udieresis" unicode="&#xfc;" horiz-adv-x="1075" 
d="M251 1032c-25.333 24.667 -38 54.668 -38 90.001c0 38 12.667 69 38 93s56.333 36 93 36s67 -11.833 91 -35.5s36 -54.834 36 -93.501c0 -35.333 -12.333 -65.333 -37 -90s-54.667 -37 -90 -37c-36.667 0 -67.667 12.333 -93 37zM642 1032
c-25.333 24.667 -38.002 54.668 -38.002 90.001c0 38 12.667 69 38 93s56.333 36 93 36s67.334 -11.833 92.001 -35.5s37 -54.834 37 -93.501c0 -35.333 -12.167 -65.333 -36.5 -90s-55.166 -37 -92.499 -37c-36.667 0 -67.667 12.333 -93 37zM964.998 918.002
l-0.00195312 -918.001h-211l-17 109c-32.667 -45.333 -73.167 -79.333 -121.5 -102s-103.166 -34 -164.499 -34c-109.333 0 -193.666 32.833 -252.999 98.5s-89 153.834 -89 264.501v582h256v-541c0 -65.333 14.667 -112 44 -140s71.333 -42 126 -42s97.667 17.667 129 53
s47 82.333 47 141v529h254z" />
    <glyph glyph-name="yacute" unicode="&#xfd;" horiz-adv-x="1069" 
d="M463 1075l311 334l127 -129l-362 -283zM1044 918l-423.001 -1074c-34 -86 -79.167 -155.5 -135.5 -208.5s-139.5 -79.5 -249.5 -79.5c-53.333 0 -111.666 7.33301 -174.999 22l2 207c57.333 -9.33301 100.666 -14 129.999 -14c64 0 109.333 11.833 136 35.5
s49.334 59.5 68.001 107.5l19 51l-393 953h276l236 -642l241 642h268z" />
    <glyph glyph-name="thorn" unicode="&#xfe;" horiz-adv-x="1214" 
d="M923.5 885.5c72.333 -40.333 128.667 -97.001 169 -170.001s60.5 -157.167 60.5 -252.5s-20.167 -179.666 -60.5 -252.999s-97 -130.5 -170 -171.5s-157.833 -61.5 -254.5 -61.5c-60 0 -115 8.33301 -165 25s-91.333 40 -124 70v-506h-250v1825h246v-543
c38 31.333 83 55.5 135 72.5s106.667 25.5 164 25.5c94 0 177.167 -20.167 249.5 -60.5zM825.501 272.499c47.667 47.667 71.5 109.834 71.5 186.501s-23.833 138.5 -71.5 185.5s-109.834 70.5 -186.501 70.5c-75.333 0 -136.5 -23.667 -183.5 -71s-70.5 -109 -70.5 -185
c0 -76.667 23.5 -138.834 70.5 -186.501s108.167 -71.5 183.5 -71.5c76.667 0 138.834 23.833 186.501 71.5z" />
    <glyph glyph-name="ydieresis" unicode="&#xff;" horiz-adv-x="1069" 
d="M251 1032c-25.333 24.667 -38 54.668 -38 90.001c0 38 12.667 69 38 93s56.333 36 93 36s67 -11.833 91 -35.5s36 -54.834 36 -93.501c0 -35.333 -12.333 -65.333 -37 -90s-54.667 -37 -90 -37c-36.667 0 -67.667 12.333 -93 37zM642 1032
c-25.333 24.667 -38.002 54.668 -38.002 90.001c0 38 12.667 69 38 93s56.333 36 93 36s67.334 -11.833 92.001 -35.5s37 -54.834 37 -93.501c0 -35.333 -12.167 -65.333 -36.5 -90s-55.166 -37 -92.499 -37c-36.667 0 -67.667 12.333 -93 37zM1044 918.002l-423.001 -1074
c-34 -86 -79.167 -155.5 -135.5 -208.5s-139.5 -79.5 -249.5 -79.5c-53.333 0 -111.666 7.33301 -174.999 22l2 207c57.333 -9.33301 100.666 -14 129.999 -14c64 0 109.333 11.833 136 35.5s49.334 59.5 68.001 107.5l19 51l-393 953h276l236 -642l241 642h268z" />
    <glyph glyph-name="Amacron" unicode="&#x100;" horiz-adv-x="1275" 
d="M918 1577v-172h-558v172h558zM506 1313h264l487 -1313h-280l-103 287h-477l-104 -287h-275zM797 508l-68.001 192c-20.667 56 -39.167 109.333 -55.5 160s-27.166 85 -32.499 103c-5.33301 -18 -18 -55.667 -38 -113s-38.667 -108 -56 -152l-72 -190h322z" />
    <glyph glyph-name="amacron" unicode="&#x101;" horiz-adv-x="1185" 
d="M801 1212v-172h-557v172h557zM1069 918l0.000976562 -918h-244v117c-31.333 -44 -75.666 -79 -132.999 -105s-120 -39 -188 -39c-84.667 0 -159.834 19.833 -225.501 59.5s-116.834 95.667 -153.501 168s-55 156.5 -55 252.5c0 98 19 184.5 57 259.5
s91.833 133 161.5 174s148.834 61.5 237.501 61.5c68 0 128.667 -11.5 182 -34.5s96.666 -56.5 129.999 -100.5l20 105h211zM745.501 275.5c45 47 67.5 109.502 67.5 187.502s-22.167 140.5 -66.5 187.5s-102.833 70.5 -175.5 70.5c-74 0 -132.667 -23.833 -176 -71.5
s-65 -109.834 -65 -186.501s22.167 -138.834 66.5 -186.501s101.833 -71.5 172.5 -71.5c72.667 0 131.5 23.5 176.5 70.5z" />
    <glyph glyph-name="Abreve" unicode="&#x102;" horiz-adv-x="1275" 
d="M873.5 1471.5c-62.333 -53.667 -139.832 -80.5 -232.499 -80.5c-96.667 0 -175.834 28 -237.501 84s-95.167 129.667 -100.5 221h176c4 -42 20.667 -75.333 50 -100s66.666 -37 111.999 -37s82 12.167 110 36.5s43.333 57.833 46 100.5h178
c-5.33301 -96 -39.166 -170.833 -101.499 -224.5zM506.001 1313h264l487 -1313h-280l-103 287h-477l-104 -287h-275zM797.001 508l-68.001 192c-20.667 56 -39.167 109.333 -55.5 160s-27.166 85 -32.499 103c-5.33301 -18 -18 -55.667 -38 -113s-38.667 -108 -56 -152
l-72 -190h322z" />
    <glyph glyph-name="abreve" unicode="&#x103;" horiz-adv-x="1185" 
d="M757 1107c-62 -54 -139.668 -81 -233.001 -81c-96.667 0 -175.667 28 -237 84s-95 129.667 -101 221h176c4 -42 20.833 -75.333 50.5 -100s66.834 -37 111.501 -37c45.333 0 82 12.333 110 37s43.333 58 46 100h178c-5.33301 -95.333 -39 -170 -101 -224zM1069 918
l0.000976562 -918h-244v117c-31.333 -44 -75.666 -79 -132.999 -105s-120 -39 -188 -39c-84.667 0 -159.834 19.833 -225.501 59.5s-116.834 95.667 -153.501 168s-55 156.5 -55 252.5c0 98 19 184.5 57 259.5s91.833 133 161.5 174s148.834 61.5 237.501 61.5
c68 0 128.667 -11.5 182 -34.5s96.666 -56.5 129.999 -100.5l20 105h211zM745.5 275.5c45 47 67.5 109.502 67.5 187.502s-22.167 140.5 -66.5 187.5s-102.833 70.5 -175.5 70.5c-74 0 -132.667 -23.833 -176 -71.5s-65 -109.834 -65 -186.501
s22.167 -138.834 66.5 -186.501s101.833 -71.5 172.5 -71.5c72.667 0 131.5 23.5 176.5 70.5z" />
    <glyph glyph-name="Aogonek" unicode="&#x104;" horiz-adv-x="1275" 
d="M1260 0c-38 -22 -66.668 -46.333 -86.001 -73s-29 -51.334 -29 -74.001c0 -19.333 6.83301 -35.166 20.5 -47.499s32.834 -18.5 57.501 -18.5c18 0 39 4 63 12v-133c-40.667 -13.333 -80.334 -20 -119.001 -20c-57.333 0 -102.666 15 -135.999 45s-50 67.333 -50 112
c0 35.333 11.333 70.5 34 105.5s55.667 65.5 99 91.5h146zM505.999 1313h264l487 -1313h-280l-103 287h-477l-104 -287h-275zM796.999 508l-68.001 192c-20.667 56 -39.167 109.333 -55.5 160s-27.166 85 -32.499 103c-5.33301 -18 -18 -55.667 -38 -113
s-38.667 -108 -56 -152l-72 -190h322z" />
    <glyph glyph-name="aogonek" unicode="&#x105;" horiz-adv-x="1185" 
d="M1071 0c-38 -22 -66.668 -46.333 -86.001 -73s-29 -51.334 -29 -74.001c0 -19.333 6.83301 -35.166 20.5 -47.499s32.834 -18.5 57.501 -18.5c18 0 39.333 4 64 12v-133c-40.667 -13.333 -80.334 -20 -119.001 -20c-57.333 0 -102.666 15 -135.999 45s-50 67.333 -50 112
c0 35.333 11.167 70.5 33.5 105.5s55.5 65.5 99.5 91.5h145zM1069 918l0.000976562 -918h-244v117c-31.333 -44 -75.666 -79 -132.999 -105s-120 -39 -188 -39c-84.667 0 -159.834 19.833 -225.501 59.5s-116.834 95.667 -153.501 168s-55 156.5 -55 252.5
c0 98 19 184.5 57 259.5s91.833 133 161.5 174s148.834 61.5 237.501 61.5c68 0 128.667 -11.5 182 -34.5s96.666 -56.5 129.999 -100.5l20 105h211zM745.5 275.5c45 47 67.5 109.502 67.5 187.502s-22.167 140.5 -66.5 187.5s-102.833 70.5 -175.5 70.5
c-74 0 -132.667 -23.833 -176 -71.5s-65 -109.834 -65 -186.501s22.167 -138.834 66.5 -186.501s101.833 -71.5 172.5 -71.5c72.667 0 131.5 23.5 176.5 70.5z" />
    <glyph glyph-name="Cacute" unicode="&#x106;" horiz-adv-x="1470" 
d="M678 1493l311 334l127 -127l-362 -285zM399.5 58c-103.667 56.667 -184.502 136.666 -242.502 239.999s-87 223 -87 359c0 135.333 28.333 254.5 85 357.5s136.834 182.833 240.501 239.5s223.167 85 358.5 85c110.667 0 212.334 -19 305.001 -57s169 -93.167 229 -165.5
s97.667 -157.166 113 -254.499h-297c-18 68 -59 123.667 -123 167s-141 65 -231 65c-122.667 0 -220 -40 -292 -120s-108 -186.333 -108 -319c0 -134 36.5 -239.833 109.5 -317.5s169.833 -116.5 290.5 -116.5c87.333 0 163.333 21.167 228 63.5s106.667 98.5 126 168.5h297
c-13.333 -94 -49.5 -177.333 -108.5 -250s-135.167 -129.167 -228.5 -169.5s-196.666 -60.5 -309.999 -60.5c-132.667 0 -250.834 28.333 -354.501 85z" />
    <glyph glyph-name="cacute" unicode="&#x107;" horiz-adv-x="1095" 
d="M485 1102l312 334l127 -127l-363 -285zM131.5 716.5c41 73.667 98.6641 130.667 172.997 171s159.833 60.5 256.5 60.5c130 0 237.333 -34.167 322 -102.5s132.334 -159.833 143.001 -274.5h-260c-12 49.333 -36.5 87 -73.5 113s-82.167 39 -135.5 39
c-68 0 -122.833 -23.833 -164.5 -71.5s-62.5 -111.834 -62.5 -192.501c0 -79.333 20.5 -142.833 61.5 -190.5s96.167 -71.5 165.5 -71.5c54.667 0 100.834 14 138.501 42s61.167 64.333 70.5 109h260c-12 -112 -60.667 -202.5 -146 -271.5s-191.666 -103.5 -318.999 -103.5
c-96.667 0 -182.167 20.167 -256.5 60.5s-132 97.333 -173 171s-61.5 159.167 -61.5 256.5c0 96.667 20.5 181.834 61.5 255.501z" />
    <glyph glyph-name="Ccircumflex" unicode="&#x108;" horiz-adv-x="1470" 
d="M643 1772h221l211 -285l-117 -82l-204 215l-205 -215l-119 82zM399.5 58c-103.667 56.667 -184.502 136.666 -242.502 239.999s-87 223 -87 359c0 135.333 28.333 254.5 85 357.5s136.834 182.833 240.501 239.5s223.167 85 358.5 85c110.667 0 212.334 -19 305.001 -57
s169 -93.167 229 -165.5s97.667 -157.166 113 -254.499h-297c-18 68 -59 123.667 -123 167s-141 65 -231 65c-122.667 0 -220 -40 -292 -120s-108 -186.333 -108 -319c0 -134 36.5 -239.833 109.5 -317.5s169.833 -116.5 290.5 -116.5c87.333 0 163.333 21.167 228 63.5
s106.667 98.5 126 168.5h297c-13.333 -94 -49.5 -177.333 -108.5 -250s-135.167 -129.167 -228.5 -169.5s-196.666 -60.5 -309.999 -60.5c-132.667 0 -250.834 28.333 -354.501 85z" />
    <glyph glyph-name="ccircumflex" unicode="&#x109;" horiz-adv-x="1095" 
d="M451 1380h221l211 -284l-117 -82l-205 215l-205 -215l-118 82zM131.5 716.5c41 73.667 98.6641 130.667 172.997 171s159.833 60.5 256.5 60.5c130 0 237.333 -34.167 322 -102.5s132.334 -159.833 143.001 -274.5h-260c-12 49.333 -36.5 87 -73.5 113
s-82.167 39 -135.5 39c-68 0 -122.833 -23.833 -164.5 -71.5s-62.5 -111.834 -62.5 -192.501c0 -79.333 20.5 -142.833 61.5 -190.5s96.167 -71.5 165.5 -71.5c54.667 0 100.834 14 138.501 42s61.167 64.333 70.5 109h260c-12 -112 -60.667 -202.5 -146 -271.5
s-191.666 -103.5 -318.999 -103.5c-96.667 0 -182.167 20.167 -256.5 60.5s-132 97.333 -173 171s-61.5 159.167 -61.5 256.5c0 96.667 20.5 181.834 61.5 255.501z" />
    <glyph glyph-name="Cdotaccent" unicode="&#x10a;" horiz-adv-x="1470" 
d="M660.5 1458c-25 24.667 -37.5 54.668 -37.5 90.001c0 38 12.5 69 37.5 93s56.167 36 93.5 36c36.667 0 67 -11.833 91 -35.5s36 -54.834 36 -93.501c0 -35.333 -12.333 -65.333 -37 -90s-54.667 -37 -90 -37c-37.333 0 -68.5 12.333 -93.5 37zM399.5 58.001
c-103.667 56.667 -184.502 136.666 -242.502 239.999s-87 223 -87 359c0 135.333 28.333 254.5 85 357.5s136.834 182.833 240.501 239.5s223.167 85 358.5 85c110.667 0 212.334 -19 305.001 -57s169 -93.167 229 -165.5s97.667 -157.166 113 -254.499h-297
c-18 68 -59 123.667 -123 167s-141 65 -231 65c-122.667 0 -220 -40 -292 -120s-108 -186.333 -108 -319c0 -134 36.5 -239.833 109.5 -317.5s169.833 -116.5 290.5 -116.5c87.333 0 163.333 21.167 228 63.5s106.667 98.5 126 168.5h297
c-13.333 -94 -49.5 -177.333 -108.5 -250s-135.167 -129.167 -228.5 -169.5s-196.666 -60.5 -309.999 -60.5c-132.667 0 -250.834 28.333 -354.501 85z" />
    <glyph glyph-name="cdotaccent" unicode="&#x10b;" horiz-adv-x="1095" 
d="M468 1067c-25.333 24.667 -38 54.667 -38 90c0 38 12.667 69 38 93s56.333 36 93 36s67 -12 91 -36s36 -55 36 -93c0 -35.333 -12.333 -65.333 -37 -90s-54.667 -37 -90 -37c-36.667 0 -67.667 12.333 -93 37zM131.5 716.5c41 73.667 98.6641 130.667 172.997 171
s159.833 60.5 256.5 60.5c130 0 237.333 -34.167 322 -102.5s132.334 -159.833 143.001 -274.5h-260c-12 49.333 -36.5 87 -73.5 113s-82.167 39 -135.5 39c-68 0 -122.833 -23.833 -164.5 -71.5s-62.5 -111.834 -62.5 -192.501c0 -79.333 20.5 -142.833 61.5 -190.5
s96.167 -71.5 165.5 -71.5c54.667 0 100.834 14 138.501 42s61.167 64.333 70.5 109h260c-12 -112 -60.667 -202.5 -146 -271.5s-191.666 -103.5 -318.999 -103.5c-96.667 0 -182.167 20.167 -256.5 60.5s-132 97.333 -173 171s-61.5 159.167 -61.5 256.5
c0 96.667 20.5 181.834 61.5 255.501z" />
    <glyph glyph-name="Ccaron" unicode="&#x10c;" horiz-adv-x="1470" 
d="M549 1786l205 -215l204 215l119 -84l-213 -285h-221l-213 285zM399.5 58c-103.667 56.667 -184.502 136.666 -242.502 239.999s-87 223 -87 359c0 135.333 28.333 254.5 85 357.5s136.834 182.833 240.501 239.5s223.167 85 358.5 85c110.667 0 212.334 -19 305.001 -57
s169 -93.167 229 -165.5s97.667 -157.166 113 -254.499h-297c-18 68 -59 123.667 -123 167s-141 65 -231 65c-122.667 0 -220 -40 -292 -120s-108 -186.333 -108 -319c0 -134 36.5 -239.833 109.5 -317.5s169.833 -116.5 290.5 -116.5c87.333 0 163.333 21.167 228 63.5
s106.667 98.5 126 168.5h297c-13.333 -94 -49.5 -177.333 -108.5 -250s-135.167 -129.167 -228.5 -169.5s-196.666 -60.5 -309.999 -60.5c-132.667 0 -250.834 28.333 -354.501 85z" />
    <glyph glyph-name="ccaron" unicode="&#x10d;" horiz-adv-x="1095" 
d="M356 1395l205 -215l205 215l119 -84l-213 -285h-221l-213 285zM131.5 716.5c41 73.667 98.6641 130.667 172.997 171s159.833 60.5 256.5 60.5c130 0 237.333 -34.167 322 -102.5s132.334 -159.833 143.001 -274.5h-260c-12 49.333 -36.5 87 -73.5 113
s-82.167 39 -135.5 39c-68 0 -122.833 -23.833 -164.5 -71.5s-62.5 -111.834 -62.5 -192.501c0 -79.333 20.5 -142.833 61.5 -190.5s96.167 -71.5 165.5 -71.5c54.667 0 100.834 14 138.501 42s61.167 64.333 70.5 109h260c-12 -112 -60.667 -202.5 -146 -271.5
s-191.666 -103.5 -318.999 -103.5c-96.667 0 -182.167 20.167 -256.5 60.5s-132 97.333 -173 171s-61.5 159.167 -61.5 256.5c0 96.667 20.5 181.834 61.5 255.501z" />
    <glyph glyph-name="Dcaron" unicode="&#x10e;" horiz-adv-x="1384" 
d="M336 1759l205 -215l204 215l119 -84l-213 -284h-221l-213 284zM994.5 1229c100.333 -56 178.834 -134.168 235.501 -234.501s85 -214.166 85 -341.499c0 -126.667 -28 -239.5 -84 -338.5s-134.167 -176.167 -234.5 -231.5s-214.833 -83 -343.5 -83h-508v1313h508
c127.333 0 241.166 -28 341.499 -84zM924.501 354.499c73 75 109.501 174.5 109.501 298.5c0 125.333 -36.833 226.333 -110.5 303s-171.834 115 -294.501 115h-217v-829h217c124 0 222.5 37.5 295.5 112.5z" />
    <glyph glyph-name="dcaron" unicode="&#x10f;" horiz-adv-x="1312" 
d="M821 1405l255.997 0.000976562v-1405h-239l-11 109c-31.333 -40.667 -74.333 -72.834 -129 -96.501s-112.667 -35.5 -174 -35.5c-91.333 0 -172.166 20.167 -242.499 60.5s-124.666 97 -162.999 170s-57.5 156.833 -57.5 251.5c0 95.333 19.167 179.833 57.5 253.5
s92.333 131 162 172s150.834 61.5 243.501 61.5c61.333 0 119 -9.83301 173 -29.5s95.333 -46.5 124 -80.5v569zM1360 1405l-39 -440h-158v440h197zM743.497 277.501c46.333 47 69.502 109.5 69.502 187.5c0 76.667 -22.833 138.167 -68.5 184.5
s-104.834 69.5 -177.501 69.5s-132.167 -22.833 -178.5 -68.5s-69.5 -107.5 -69.5 -185.5s23.333 -140.5 70 -187.5s106 -70.5 178 -70.5c71.333 0 130.166 23.5 176.499 70.5z" />
    <glyph glyph-name="Dcroat" unicode="&#x110;" horiz-adv-x="1515" 
d="M1051.5 1229c100.333 -56 178.833 -134.168 235.5 -234.501s85 -214.166 85 -341.499c0 -126.667 -28 -239.5 -84 -338.5s-134.167 -176.167 -234.5 -231.5s-214.5 -83 -342.5 -83h-508v563h-121v185h121v565h508c126.667 0 240.167 -28 340.5 -84zM982 354.499
c73.333 75 110 174.5 110 298.5c0 125.333 -37 226.333 -111 303s-172.333 115 -295 115h-217v-323h190v-185h-190v-321h217c124 0 222.667 37.5 296 112.5z" />
    <glyph glyph-name="dcroat" unicode="&#x111;" horiz-adv-x="1187" 
d="M1247 1248v-169h-751v169h751zM1069 1405v-1405h-211l-16 123c-31.333 -45.333 -75.666 -81.666 -132.999 -108.999s-120.333 -41 -189 -41c-87.333 0 -165.166 20.167 -233.499 60.5s-121.5 97.666 -159.5 171.999s-57 159.5 -57 255.5c0 95.333 19 180.166 57 254.499
s91.167 131.666 159.5 171.999s146.166 60.5 233.499 60.5c64 0 121.667 -9.83301 173 -29.5s92.666 -47.834 123.999 -84.501v571h252zM745.5 275.503c45 47 67.5 109.502 67.5 187.502s-22.167 140.5 -66.5 187.5s-102.833 70.5 -175.5 70.5
c-74 0 -132.667 -23.833 -176 -71.5s-65 -109.834 -65 -186.501s22.167 -138.834 66.5 -186.501s101.833 -71.5 172.5 -71.5c72.667 0 131.5 23.5 176.5 70.5z" />
    <glyph glyph-name="Emacron" unicode="&#x112;" horiz-adv-x="1101" 
d="M848 1577v-172h-557v172h557zM410 1071v-293h524v-231h-524v-305h587v-242h-852v1313h852v-242h-587z" />
    <glyph glyph-name="emacron" unicode="&#x113;" horiz-adv-x="1062" 
d="M825 1212v-172h-557v172h557zM850 60c-83.333 -58 -182.335 -87.002 -297.002 -87.002c-95.333 0 -179.666 20.5 -252.999 61.5s-130 98.667 -170 173s-60 159.5 -60 255.5c0 96.667 20 181.834 60 255.501s96.333 130.334 169 170.001s155.334 59.5 248.001 59.5
c90 0 169.5 -18.667 238.5 -56s122.667 -89.5 161 -156.5s57.5 -142.833 57.5 -227.5c0 -34 -3.66699 -73.667 -11 -119h-671c2.66699 -62.667 25.167 -113.167 67.5 -151.5s96.833 -57.5 163.5 -57.5c49.333 0 92 10 128 30s61.667 47 77 81h248
c-20.667 -96 -72.667 -173 -156 -231zM742.998 558.998c-1.33301 56 -20.999 100.001 -58.999 132.001s-86.333 48 -145 48c-61.333 0 -111.833 -16.333 -151.5 -49s-60.834 -76.334 -63.501 -131.001h419z" />
    <glyph glyph-name="Ebreve" unicode="&#x114;" horiz-adv-x="1101" 
d="M804 1471.5c-62 -53.667 -139.667 -80.5 -233 -80.5c-96.667 0 -175.667 28 -237 84s-95 129.667 -101 221h177c4 -42 20.667 -75.333 50 -100s66.333 -37 111 -37c45.333 0 82 12.167 110 36.5s43.333 57.833 46 100.5h178c-5.33301 -96 -39 -170.833 -101 -224.5z
M410 1071v-293h524v-231h-524v-305h587v-242h-852v1313h852v-242h-587z" />
    <glyph glyph-name="ebreve" unicode="&#x115;" horiz-adv-x="1062" 
d="M781 1107c-62 -54 -139.331 -81 -231.998 -81c-96.667 0 -175.834 28 -237.501 84s-95.167 129.667 -100.5 221h176c4 -42 20.667 -75.333 50 -100s66.666 -37 111.999 -37s81.833 12.333 109.5 37s43.167 58 46.5 100h178c-6 -95.333 -40 -170 -102 -224zM850.002 60
c-83.333 -58 -182.335 -87.002 -297.002 -87.002c-95.333 0 -179.666 20.5 -252.999 61.5s-130 98.667 -170 173s-60 159.5 -60 255.5c0 96.667 20 181.834 60 255.501s96.333 130.334 169 170.001s155.334 59.5 248.001 59.5c90 0 169.5 -18.667 238.5 -56
s122.667 -89.5 161 -156.5s57.5 -142.833 57.5 -227.5c0 -34 -3.66699 -73.667 -11 -119h-671c2.66699 -62.667 25.167 -113.167 67.5 -151.5s96.833 -57.5 163.5 -57.5c49.333 0 92 10 128 30s61.667 47 77 81h248c-20.667 -96 -72.667 -173 -156 -231zM743 558.998
c-1.33301 56 -20.999 100.001 -58.999 132.001s-86.333 48 -145 48c-61.333 0 -111.833 -16.333 -151.5 -49s-60.834 -76.334 -63.501 -131.001h419z" />
    <glyph glyph-name="Edotaccent" unicode="&#x116;" horiz-adv-x="1101" 
d="M476 1431.5c-25.333 24.333 -38 54.5 -38 90.5c0 38 12.667 69 38 93s56.333 36 93 36s67 -12 91 -36s36 -55 36 -93c0 -35.333 -12.167 -65.333 -36.5 -90s-54.5 -37 -90.5 -37c-36.667 0 -67.667 12.167 -93 36.5zM410 1071v-293h524v-231h-524v-305h587v-242h-852
v1313h852v-242h-587z" />
    <glyph glyph-name="edotaccent" unicode="&#x117;" horiz-adv-x="1062" 
d="M454 1067c-25.333 24.667 -38 54.667 -38 90c0 38 12.667 69 38 93s56.333 36 93 36s67 -12 91 -36s36 -55 36 -93c0 -35.333 -12.333 -65.333 -37 -90s-54.667 -37 -90 -37c-36.667 0 -67.667 12.333 -93 37zM850 60c-83.333 -58 -182.335 -87.002 -297.002 -87.002
c-95.333 0 -179.666 20.5 -252.999 61.5s-130 98.667 -170 173s-60 159.5 -60 255.5c0 96.667 20 181.834 60 255.501s96.333 130.334 169 170.001s155.334 59.5 248.001 59.5c90 0 169.5 -18.667 238.5 -56s122.667 -89.5 161 -156.5s57.5 -142.833 57.5 -227.5
c0 -34 -3.66699 -73.667 -11 -119h-671c2.66699 -62.667 25.167 -113.167 67.5 -151.5s96.833 -57.5 163.5 -57.5c49.333 0 92 10 128 30s61.667 47 77 81h248c-20.667 -96 -72.667 -173 -156 -231zM742.998 558.998c-1.33301 56 -20.999 100.001 -58.999 132.001
s-86.333 48 -145 48c-61.333 0 -111.833 -16.333 -151.5 -49s-60.834 -76.334 -63.501 -131.001h419z" />
    <glyph glyph-name="Eogonek" unicode="&#x118;" horiz-adv-x="1101" 
d="M999 0c-38 -22 -66.501 -46.333 -85.501 -73s-28.5 -51.334 -28.5 -74.001c0 -19.333 6.83301 -35.166 20.5 -47.499s32.834 -18.5 57.501 -18.5c18 0 39 4 63 12v-133c-40.667 -13.333 -80.334 -20 -119.001 -20c-57.333 0 -102.666 15 -135.999 45s-50 67.333 -50 112
c0 35.333 11.167 70.5 33.5 105.5s55.5 65.5 99.5 91.5h145zM409.999 1071v-293h524v-231h-524v-305h587v-242h-852v1313h852v-242h-587z" />
    <glyph glyph-name="eogonek" unicode="&#x119;" horiz-adv-x="1062" 
d="M676 25c-38 -22 -66.668 -46.333 -86.001 -73s-29 -51.667 -29 -75c0 -19.333 6.83301 -35 20.5 -47s32.834 -18 57.501 -18c18 0 39 4 63 12v-133c-40.667 -13.333 -80 -20.333 -118 -21c-57.333 0 -102.833 15 -136.5 45s-50.5 67.667 -50.5 113
c0 35.333 11.333 70.5 34 105.5s55.667 65.5 99 91.5h146zM849.999 60c83.333 58 135.334 135.002 156.001 231.002h-248c-15.333 -34 -41 -61 -77 -81s-78.667 -30 -128 -30c-66.667 0 -121.167 19.167 -163.5 57.5s-64.833 88.833 -67.5 151.5h671
c6.66699 45.333 10.334 85 11.001 119c0 84.667 -19.167 160.5 -57.5 227.5s-92 119.167 -161 156.5s-148.5 56 -238.5 56c-92.667 0 -175.334 -19.833 -248.001 -59.5s-129 -96.334 -169 -170.001s-60 -158.834 -60 -255.501c0 -95.333 20 -180.333 60 -255
s96.667 -132.5 170 -173.5s157.666 -61.5 252.999 -61.5c114.667 0 213.667 29 297 87zM743 559.002l-419 -0.000976562c2.66699 54.667 23.667 98.334 63 131.001s90 49 152 49c58.667 0 107 -16 145 -48s57.667 -76 59 -132z" />
    <glyph glyph-name="Ecaron" unicode="&#x11a;" horiz-adv-x="1101" 
d="M365 1759l204 -215l205 215l119 -84l-213 -284h-221l-213 284zM410 1071v-293h524v-231h-524v-305h587v-242h-852v1313h852v-242h-587z" />
    <glyph glyph-name="ecaron" unicode="&#x11b;" horiz-adv-x="1062" 
d="M342 1395l205 -215l205 215l118 -84l-213 -285h-221l-213 285zM850 60c-83.333 -58 -182.335 -87.002 -297.002 -87.002c-95.333 0 -179.666 20.5 -252.999 61.5s-130 98.667 -170 173s-60 159.5 -60 255.5c0 96.667 20 181.834 60 255.501s96.333 130.334 169 170.001
s155.334 59.5 248.001 59.5c90 0 169.5 -18.667 238.5 -56s122.667 -89.5 161 -156.5s57.5 -142.833 57.5 -227.5c0 -34 -3.66699 -73.667 -11 -119h-671c2.66699 -62.667 25.167 -113.167 67.5 -151.5s96.833 -57.5 163.5 -57.5c49.333 0 92 10 128 30s61.667 47 77 81h248
c-20.667 -96 -72.667 -173 -156 -231zM742.998 558.998c-1.33301 56 -20.999 100.001 -58.999 132.001s-86.333 48 -145 48c-61.333 0 -111.833 -16.333 -151.5 -49s-60.834 -76.334 -63.501 -131.001h419z" />
    <glyph glyph-name="Gcircumflex" unicode="&#x11c;" horiz-adv-x="1472" 
d="M643 1772h221l211 -285l-117 -82l-204 215l-205 -215l-119 82zM1405 719l-0.00195312 -131c0 -121.333 -28.333 -228.5 -85 -321.5s-135.167 -165.167 -235.5 -216.5s-214.833 -77 -343.5 -77c-134 0 -251.667 28 -353 84s-179.666 134.833 -234.999 236.5
s-83 219.5 -83 353.5c0 136.667 28.667 257.167 86 361.5s137.833 185.5 241.5 243.5s222.5 87 356.5 87c108 0 206.333 -19 295 -57s161.667 -91.5 219 -160.5s94 -148.5 110 -238.5h-282c-23.333 66.667 -66.5 118.5 -129.5 155.5s-135.833 55.5 -218.5 55.5
c-124 0 -222 -40.333 -294 -121s-108 -188 -108 -322s35.833 -239.167 107.5 -315.5s169.834 -114.5 294.501 -114.5c98 0 180.5 23.5 247.5 70.5s107.833 113.833 122.5 200.5h-387v227h674z" />
    <glyph glyph-name="gcircumflex" unicode="&#x11d;" horiz-adv-x="1210" 
d="M539 1368h221l211 -250l-117 -72l-205 189l-205 -189l-118 72zM1061 918v-917.999c0 -91.333 -20.167 -171.5 -60.5 -240.5s-98 -122.333 -173 -160s-163.833 -56.5 -266.5 -56.5c-134 0 -245 35.167 -333 105.5s-138 164.833 -150 283.5h252
c9.33301 -54.667 35.166 -95.834 77.499 -123.501s94.166 -41.5 155.499 -41.5c76.667 0 136.167 20 178.5 60s63.5 94.333 63.5 163v153c-28.667 -39.333 -69 -70.666 -121 -93.999s-110.667 -35 -176 -35c-84.667 0 -160.167 19.5 -226.5 58.5
s-118.166 93.333 -155.499 163s-56 149.5 -56 239.5c0 91.333 19 173.166 57 245.499s90.5 128.333 157.5 168s142.833 59.5 227.5 59.5c66.667 0 126.334 -12.667 179.001 -38s92.667 -59 120 -101l14 109h236zM730.5 305.501c44.333 46.333 66.499 104.831 66.499 175.498
c0 72.667 -22.167 131.834 -66.5 177.501s-101.5 68.5 -171.5 68.5c-68 0 -123.167 -23.167 -165.5 -69.5s-63.5 -105.166 -63.5 -176.499c0 -72.667 21.833 -131.667 65.5 -177s98.834 -68 165.501 -68c68.667 0 125.167 23.167 169.5 69.5z" />
    <glyph glyph-name="Gbreve" unicode="&#x11e;" horiz-adv-x="1472" 
d="M988 1498c-62 -54 -139.332 -81 -231.999 -81c-96.667 0 -175.834 28 -237.501 84s-95.167 129.667 -100.5 221h176c4 -42 20.667 -75.333 50 -100s66.666 -37 111.999 -37s81.833 12.333 109.5 37s42.834 58 45.501 100h179c-6 -95.333 -40 -170 -102 -224zM1405 719
l-0.00195312 -131c0 -121.333 -28.333 -228.5 -85 -321.5s-135.167 -165.167 -235.5 -216.5s-214.833 -77 -343.5 -77c-134 0 -251.667 28 -353 84s-179.666 134.833 -234.999 236.5s-83 219.5 -83 353.5c0 136.667 28.667 257.167 86 361.5s137.833 185.5 241.5 243.5
s222.5 87 356.5 87c108 0 206.333 -19 295 -57s161.667 -91.5 219 -160.5s94 -148.5 110 -238.5h-282c-23.333 66.667 -66.5 118.5 -129.5 155.5s-135.833 55.5 -218.5 55.5c-124 0 -222 -40.333 -294 -121s-108 -188 -108 -322s35.833 -239.167 107.5 -315.5
s169.834 -114.5 294.501 -114.5c98 0 180.5 23.5 247.5 70.5s107.833 113.833 122.5 200.5h-387v227h674z" />
    <glyph glyph-name="gbreve" unicode="&#x11f;" horiz-adv-x="1169" 
d="M746.5 1107c-62.333 -54 -139.832 -81 -232.499 -81c-96.667 0 -175.834 28 -237.501 84s-95.167 129.667 -100.5 221h176c4 -42 20.667 -75.333 50 -100s66.666 -37 111.999 -37s82 12.333 110 37s43.333 58 46 100h178c-5.33301 -95.333 -39.166 -170 -101.499 -224z
M1061 918v-917.999c0 -91.333 -20.167 -171.5 -60.5 -240.5s-98 -122.333 -173 -160s-163.833 -56.5 -266.5 -56.5c-134 0 -245 35.167 -333 105.5s-138 164.833 -150 283.5h252c9.33301 -54.667 35.166 -95.834 77.499 -123.501s94.166 -41.5 155.499 -41.5
c76.667 0 136.167 20 178.5 60s63.5 94.333 63.5 163v153c-28.667 -39.333 -69 -70.666 -121 -93.999s-110.667 -35 -176 -35c-84.667 0 -160.167 19.5 -226.5 58.5s-118.166 93.333 -155.499 163s-56 149.5 -56 239.5c0 91.333 19 173.166 57 245.499
s90.5 128.333 157.5 168s142.833 59.5 227.5 59.5c66.667 0 126.334 -12.667 179.001 -38s92.667 -59 120 -101l14 109h236zM730.501 305.501c44.333 46.333 66.499 104.831 66.499 175.498c0 72.667 -22.167 131.834 -66.5 177.501s-101.5 68.5 -171.5 68.5
c-68 0 -123.167 -23.167 -165.5 -69.5s-63.5 -105.166 -63.5 -176.499c0 -72.667 21.833 -131.667 65.5 -177s98.834 -68 165.501 -68c68.667 0 125.167 23.167 169.5 69.5z" />
    <glyph glyph-name="Gdotaccent" unicode="&#x120;" horiz-adv-x="1472" 
d="M660.5 1458c-25 24.667 -37.5 54.668 -37.5 90.001c0 38 12.5 69 37.5 93s56.167 36 93.5 36c36.667 0 67 -11.833 91 -35.5s36 -54.834 36 -93.501c0 -35.333 -12.333 -65.333 -37 -90s-54.667 -37 -90 -37c-37.333 0 -68.5 12.333 -93.5 37zM1405 719.001
l-0.00195312 -131c0 -121.333 -28.333 -228.5 -85 -321.5s-135.167 -165.167 -235.5 -216.5s-214.833 -77 -343.5 -77c-134 0 -251.667 28 -353 84s-179.666 134.833 -234.999 236.5s-83 219.5 -83 353.5c0 136.667 28.667 257.167 86 361.5s137.833 185.5 241.5 243.5
s222.5 87 356.5 87c108 0 206.333 -19 295 -57s161.667 -91.5 219 -160.5s94 -148.5 110 -238.5h-282c-23.333 66.667 -66.5 118.5 -129.5 155.5s-135.833 55.5 -218.5 55.5c-124 0 -222 -40.333 -294 -121s-108 -188 -108 -322s35.833 -239.167 107.5 -315.5
s169.834 -114.5 294.501 -114.5c98 0 180.5 23.5 247.5 70.5s107.833 113.833 122.5 200.5h-387v227h674z" />
    <glyph glyph-name="gdotaccent" unicode="&#x121;" horiz-adv-x="1169" 
d="M419 1067c-25.333 24.667 -38 54.667 -38 90c0 38 12.667 69 38 93s56.333 36 93 36s67 -12 91 -36s36 -55 36 -93c0 -35.333 -12.333 -65.333 -37 -90s-54.667 -37 -90 -37c-36.667 0 -67.667 12.333 -93 37zM1061 918v-917.999c0 -91.333 -20.167 -171.5 -60.5 -240.5
s-98 -122.333 -173 -160s-163.833 -56.5 -266.5 -56.5c-134 0 -245 35.167 -333 105.5s-138 164.833 -150 283.5h252c9.33301 -54.667 35.166 -95.834 77.499 -123.501s94.166 -41.5 155.499 -41.5c76.667 0 136.167 20 178.5 60s63.5 94.333 63.5 163v153
c-28.667 -39.333 -69 -70.666 -121 -93.999s-110.667 -35 -176 -35c-84.667 0 -160.167 19.5 -226.5 58.5s-118.166 93.333 -155.499 163s-56 149.5 -56 239.5c0 91.333 19 173.166 57 245.499s90.5 128.333 157.5 168s142.833 59.5 227.5 59.5
c66.667 0 126.334 -12.667 179.001 -38s92.667 -59 120 -101l14 109h236zM730.5 305.501c44.333 46.333 66.499 104.831 66.499 175.498c0 72.667 -22.167 131.834 -66.5 177.501s-101.5 68.5 -171.5 68.5c-68 0 -123.167 -23.167 -165.5 -69.5
s-63.5 -105.166 -63.5 -176.499c0 -72.667 21.833 -131.667 65.5 -177s98.834 -68 165.501 -68c68.667 0 125.167 23.167 169.5 69.5z" />
    <glyph glyph-name="uni0122" unicode="&#x122;" horiz-adv-x="1472" 
d="M874.5 -127c24.333 -28.667 36.501 -66.333 36.501 -113c0 -69.333 -21.5 -126.833 -64.5 -172.5s-103.167 -69.834 -180.5 -72.501v55c45.333 5.33301 79.5 19.333 102.5 42s35.833 50.334 38.5 83.001c-16.667 -6.66699 -32.334 -10 -47.001 -10
c-31.333 0 -57 10.5 -77 31.5s-30 47.167 -30 78.5c0 35.333 12 64.333 36 87s54.333 34 91 34c38.667 0 70.167 -14.333 94.5 -43zM1405 719.001l-0.00195312 -131c0 -121.333 -28.333 -228.5 -85 -321.5s-135.167 -165.167 -235.5 -216.5s-214.833 -77 -343.5 -77
c-134 0 -251.667 28 -353 84s-179.666 134.833 -234.999 236.5s-83 219.5 -83 353.5c0 136.667 28.667 257.167 86 361.5s137.833 185.5 241.5 243.5s222.5 87 356.5 87c108 0 206.333 -19 295 -57s161.667 -91.5 219 -160.5s94 -148.5 110 -238.5h-282
c-23.333 66.667 -66.5 118.5 -129.5 155.5s-135.833 55.5 -218.5 55.5c-124 0 -222 -40.333 -294 -121s-108 -188 -108 -322s35.833 -239.167 107.5 -315.5s169.834 -114.5 294.501 -114.5c98 0 180.5 23.5 247.5 70.5s107.833 113.833 122.5 200.5h-387v227h674z" />
    <glyph glyph-name="uni0123" unicode="&#x123;" horiz-adv-x="1169" 
d="M436 1104l312 334l126 -129l-362 -283zM1061 918v-917.999c0 -91.333 -20.167 -171.5 -60.5 -240.5s-98 -122.333 -173 -160s-163.833 -56.5 -266.5 -56.5c-134 0 -245 35.167 -333 105.5s-138 164.833 -150 283.5h252c9.33301 -54.667 35.166 -95.834 77.499 -123.501
s94.166 -41.5 155.499 -41.5c76.667 0 136.167 20 178.5 60s63.5 94.333 63.5 163v153c-28.667 -39.333 -69 -70.666 -121 -93.999s-110.667 -35 -176 -35c-84.667 0 -160.167 19.5 -226.5 58.5s-118.166 93.333 -155.499 163s-56 149.5 -56 239.5
c0 91.333 19 173.166 57 245.499s90.5 128.333 157.5 168s142.833 59.5 227.5 59.5c66.667 0 126.334 -12.667 179.001 -38s92.667 -59 120 -101l14 109h236zM730.5 305.501c44.333 46.333 66.499 104.831 66.499 175.498c0 72.667 -22.167 131.834 -66.5 177.501
s-101.5 68.5 -171.5 68.5c-68 0 -123.167 -23.167 -165.5 -69.5s-63.5 -105.166 -63.5 -176.499c0 -72.667 21.833 -131.667 65.5 -177s98.834 -68 165.501 -68c68.667 0 125.167 23.167 169.5 69.5z" />
    <glyph glyph-name="Hbar" unicode="&#x126;" horiz-adv-x="1357" 
d="M1365 1140v-204h-1341v204h1341zM145 1313h267v-535h549v535h268v-1313h-268v547h-549v-547h-267v1313z" />
    <glyph glyph-name="hbar" unicode="&#x127;" horiz-adv-x="1101" 
d="M632 1040h-618v183h618v-183zM119 1405l256 -0.000976562v-586c27.333 40.667 65.666 72.334 114.999 95.001c50 22.667 103.667 34 161 34c108 0 191.667 -33.667 251 -101s89 -160 89 -278v-569h-254v510c0 80.667 -17.667 135.667 -53 165s-73.666 44 -114.999 44
c-48 0 -92.667 -14.333 -134 -43s-62 -80.667 -62 -156v-520h-254v1405z" />
    <glyph glyph-name="Itilde" unicode="&#x128;" horiz-adv-x="540" 
d="M-25 1466c0 62.667 15.501 112.5 46.501 149.5s71.5 55.5 121.5 55.5c27.333 0 51.666 -4.33301 72.999 -13s48.333 -22.667 81 -42c20.667 -12 38.167 -21.5 52.5 -28.5s27.5 -10.5 39.5 -10.5c24.667 0 41.5 7.5 50.5 22.5s12.833 38.167 11.5 69.5h124
c4 -22 6.33301 -43.667 7 -65c0 -58.667 -15.833 -106.167 -47.5 -142.5s-73.167 -54.5 -124.5 -54.5c-27.333 0 -53.333 5.16699 -78 15.5s-52 24.166 -82 41.499c-15.333 9.33301 -30.833 17.5 -46.5 24.5s-28.834 10.5 -39.501 10.5
c-24.667 0 -41.167 -10.167 -49.5 -30.5s-11.166 -44.833 -8.49902 -73.5h-124c-4.66699 26.667 -7 50.334 -7 71.001zM145.001 0v1313h267v-1313h-267z" />
    <glyph glyph-name="itilde" unicode="&#x129;" horiz-adv-x="493" 
d="M-55 1118c0 62.667 15.3301 112.5 45.9971 149.5s71.334 55.5 122.001 55.5c27.333 0 51.5 -4.5 72.5 -13.5s47.833 -22.833 80.5 -41.5c20.667 -12 38.167 -21.5 52.5 -28.5s27.5 -10.5 39.5 -10.5c24.667 0 41.5 7.5 50.5 22.5s12.833 38.167 11.5 69.5h125
c4 -22 6 -44 6 -66c0 -58.667 -15.667 -106 -47 -142s-73 -54 -125 -54c-27.333 0 -53.333 5.16699 -78 15.5s-52 24.166 -82 41.499c-15.333 9.33301 -30.666 17.5 -45.999 24.5s-28.666 10.5 -39.999 10.5c-24.667 0 -41 -10.167 -49 -30.5s-10.667 -44.833 -8 -73.5h-125
c-4 26.667 -6 50.334 -6 71.001zM374.997 918v-918h-256v918h256z" />
    <glyph glyph-name="Imacron" unicode="&#x12a;" horiz-adv-x="540" 
d="M557 1577v-172h-557v172h557zM145 0v1313h267v-1313h-267z" />
    <glyph glyph-name="imacron" unicode="&#x12b;" horiz-adv-x="493" 
d="M526 1229v-172h-557v172h557zM375 918v-918h-256v918h256z" />
    <glyph glyph-name="Iogonek" unicode="&#x12e;" horiz-adv-x="540" 
d="M414 8c-38 -22 -66.668 -46.1689 -86.001 -72.502s-29 -51.166 -29 -74.499c0 -19.333 6.83301 -35.166 20.5 -47.499s32.834 -18.5 57.501 -18.5c18 0 39 4 63 12v-133c-40.667 -13.333 -80 -20 -118 -20c-57.333 0 -102.833 15 -136.5 45s-50.5 67.667 -50.5 113
c0 35.333 11.333 70.333 34 105s55.667 65 99 91h146zM144.999 -0.00195312v1313h267v-1313h-267z" />
    <glyph glyph-name="iogonek" unicode="&#x12f;" horiz-adv-x="493" 
d="M375 0c-38 -22 -66.668 -46.333 -86.001 -73s-29 -51.334 -29 -74.001c0 -19.333 6.83301 -35.166 20.5 -47.499s32.834 -18.5 57.501 -18.5c18 0 39 4 63 12v-133c-40.667 -13.333 -80 -20 -118 -20c-57.333 0 -102.833 15 -136.5 45s-50.5 67.333 -50.5 112
c0 35.333 11.333 70.5 34 105.5s55.667 65.5 99 91.5h146zM154.999 1083.5c-25.333 24.333 -38 54.5 -38 90.5c0 38 12.667 69 38 93s56.333 36 93 36s67 -12 91 -36s36 -55 36 -93c0 -35.333 -12.333 -65.333 -37 -90s-54.667 -37 -90 -37
c-36.667 0 -67.667 12.167 -93 36.5zM374.999 918v-918h-256v918h256z" />
    <glyph glyph-name="Idotaccent" unicode="&#x130;" horiz-adv-x="540" 
d="M185 1431.5c-25.333 24.333 -38 54.5 -38 90.5c0 38 12.667 69 38 93s56.666 36 93.999 36c36.667 0 67 -12 91 -36s36 -55 36 -93c0 -35.333 -12.333 -65.333 -37 -90s-54.667 -37 -90 -37c-37.333 0 -68.666 12.167 -93.999 36.5zM145 0v1313h267v-1313h-267z" />
    <glyph glyph-name="dotlessi" unicode="&#x131;" horiz-adv-x="493" 
d="M375 918v-918h-256v918h256z" />
    <glyph glyph-name="Jcircumflex" unicode="&#x134;" horiz-adv-x="1056" 
d="M487 1747h222l211 -285l-117 -82l-205 215l-205 -215l-119 82zM922 383c0 -125.333 -40.668 -225.002 -122.001 -299.002s-189 -111 -323 -111c-131.333 1.33301 -236.166 39.333 -314.499 114s-117.5 173.334 -117.5 296.001v72h256v-62
c0 -57.333 16 -101.666 48 -132.999s74.667 -47 128 -47c57.333 0 101.333 16 132 48s46 76 46 132v678h-395v242h662v-930z" />
    <glyph glyph-name="jcircumflex" unicode="&#x135;" horiz-adv-x="544" 
d="M170 1397h221l211 -285l-117 -82l-204 215l-205 -215l-119 82zM152 918h254v-1352h-254v1352z" />
    <glyph glyph-name="uni0136" unicode="&#x136;" horiz-adv-x="1275" 
d="M770 -106.5c24.667 -29 37.001 -66.5 37.001 -112.5c0 -69.333 -21.5 -127 -64.5 -173s-103.5 -70.333 -181.5 -73v55c45.333 5.33301 79.5 19.333 102.5 42s35.833 50.334 38.5 83.001c-16.667 -6.66699 -32.334 -10 -47.001 -10c-31.333 0 -56.833 10.667 -76.5 32
s-29.5 47.666 -29.5 78.999c0 35.333 12 64.333 36 87s54.333 34 91 34c38 0 69.333 -14.5 94 -43.5zM801.001 748l452 -748h-321l-314 520l-206 -258v-266h-267v1317h267v-639l510 639h331z" />
    <glyph glyph-name="uni0137" unicode="&#x137;" horiz-adv-x="1052" 
d="M627 -106.5c24.667 -29 36.999 -66.5 36.999 -112.5c0 -69.333 -21.5 -127 -64.5 -173s-103.5 -70.333 -181.5 -73v55c45.333 5.33301 79.5 19.333 102.5 42s35.833 50.334 38.5 83.001c-16.667 -6.66699 -32.334 -10 -47.001 -10c-31.333 0 -56.833 10.667 -76.5 32
s-29.5 47.666 -29.5 78.999c0 35.333 11.833 64.333 35.5 87s53.834 34 90.501 34c38.667 0 70.334 -14.5 95.001 -43.5zM697.999 578l312 -578h-289l-203 389l-143 -147v-242h-256v1405h256v-850l338 363h313z" />
    <glyph glyph-name="Lacute" unicode="&#x139;" horiz-adv-x="999" 
d="M203 1466l311 334l127 -127l-362 -284zM952 240v-240h-807v1313h269v-1073h538z" />
    <glyph glyph-name="lacute" unicode="&#x13a;" horiz-adv-x="493" 
d="M172 1563l311 333l127 -129l-362 -282zM119 1405h256v-1405h-256v1405z" />
    <glyph glyph-name="uni013B" unicode="&#x13b;" horiz-adv-x="999" 
d="M618.5 -106.5c24.333 -29 36.501 -66.5 36.501 -112.5c0 -69.333 -21.5 -127 -64.5 -173s-103.167 -70.333 -180.5 -73v55c45.333 5.33301 79.5 19.333 102.5 42s35.833 50.334 38.5 83.001c-16.667 -6.66699 -32.334 -10 -47.001 -10c-31.333 0 -57 10.667 -77 32
s-30 47.666 -30 78.999c0 35.333 12 64.333 36 87s54.333 34 91 34c38.667 0 70.167 -14.5 94.5 -43.5zM952.001 240v-240h-807v1313h269v-1073h538z" />
    <glyph glyph-name="uni013C" unicode="&#x13c;" horiz-adv-x="493" 
d="M344 -106.5c24.667 -29 37.001 -66.5 37.001 -112.5c0 -69.333 -21.5 -127 -64.5 -173s-103.5 -70.333 -181.5 -73v55c45.333 5.33301 79.5 19.333 102.5 42s35.833 50.334 38.5 83.001c-16.667 -6.66699 -32.334 -10 -47.001 -10c-31.333 0 -56.833 10.667 -76.5 32
s-29.5 47.666 -29.5 78.999c0 35.333 12 64.333 36 87s54.333 34 91 34c38 0 69.333 -14.5 94 -43.5zM119.001 1405h256v-1405h-256v1405z" />
    <glyph glyph-name="Lcaron" unicode="&#x13d;" horiz-adv-x="1040" 
d="M799 1298c24.667 -28.667 37.001 -65.999 37.001 -111.999c0 -69.333 -21.5 -127 -64.5 -173s-103.5 -70.333 -181.5 -73v55c45.333 5.33301 79.5 19.333 102.5 42s35.833 50.334 38.5 83.001c-16.667 -6.66699 -32.334 -10 -47.001 -10
c-31.333 0 -56.833 10.667 -76.5 32s-29.5 47.666 -29.5 78.999c0 35.333 11.833 64.166 35.5 86.499s54.167 33.5 91.5 33.5c38 0 69.333 -14.333 94 -43zM952.001 240.001v-240h-807v1313h269v-1073h538z" />
    <glyph glyph-name="lcaron" unicode="&#x13e;" horiz-adv-x="493" 
d="M119 1405h256v-1405h-256v1405z" />
    <glyph glyph-name="Ldot" unicode="&#x13f;" horiz-adv-x="1040" 
d="M645.5 637c-27 26.667 -40.5 57 -40.5 91c0 35.333 13.333 66.333 40 93s58 40 94 40c34.667 0 65.167 -13.167 91.5 -39.5s39.5 -57.5 39.5 -93.5c0 -34.667 -13 -65.167 -39 -91.5s-56.667 -39.5 -92 -39.5s-66.5 13.333 -93.5 40zM952 240v-240h-807v1313h269v-1073
h538z" />
    <glyph glyph-name="ldot" unicode="&#x140;" horiz-adv-x="839" 
d="M577 542.5c-27.333 27 -41 58.167 -41 93.5c0 36 13.5 67.667 40.5 95s59.167 41 96.5 41c35.333 0 66.5 -13.5 93.5 -40.5s40.5 -58.833 40.5 -95.5c0 -35.333 -13.333 -66.5 -40 -93.5s-58 -40.5 -94 -40.5c-36.667 0 -68.667 13.5 -96 40.5zM119 1405h256v-1405h-256
v1405z" />
    <glyph glyph-name="Lslash" unicode="&#x141;" horiz-adv-x="999" 
d="M952 240v-240h-807v608l-139 -67v202l139 68v502h269v-375l217 104v-202l-217 -105v-495h538z" />
    <glyph glyph-name="lslash" unicode="&#x142;" horiz-adv-x="538" 
d="M500 803l-103 -49v-754h-256v631l-102 -49v182l102 49v592h256v-471l103 49v-180z" />
    <glyph glyph-name="Nacute" unicode="&#x143;" horiz-adv-x="1374" 
d="M621 1497l311 334l127 -127l-363 -285zM1231 1313v-1313h-248l-573 852v-852h-265v1313h248l576 -858v858h262z" />
    <glyph glyph-name="nacute" unicode="&#x144;" horiz-adv-x="1093" 
d="M471 1102l311 334l127 -127l-362 -285zM893 845.5c61.333 -68.333 92 -160.5 92 -276.5v-569h-256v510c0 139.333 -56 209 -168 209c-61.333 0 -108 -18.167 -140 -54.5s-48 -84.5 -48 -144.5v-520h-254v918h213l16 -107c28.667 42 69 75.333 121 100s108.667 37 170 37
c108 0 192.667 -34.167 254 -102.5z" />
    <glyph glyph-name="uni0145" unicode="&#x145;" horiz-adv-x="1374" 
d="M786.5 -106.5c24.333 -29 36.501 -66.5 36.501 -112.5c0 -69.333 -21.5 -127 -64.5 -173s-103.167 -70.333 -180.5 -73v55c45.333 5.33301 79.5 19.333 102.5 42s35.833 50.334 38.5 83.001c-16.667 -6.66699 -32.334 -10 -47.001 -10c-31.333 0 -57 10.667 -77 32
s-30 47.666 -30 78.999c0 35.333 12 64.333 36 87s54.333 34 91 34c38.667 0 70.167 -14.5 94.5 -43.5zM1231 1313v-1313h-248l-573 852v-852h-265v1313h248l576 -858v858h262z" />
    <glyph glyph-name="uni0146" unicode="&#x146;" horiz-adv-x="1093" 
d="M647 -106.5c24.667 -29 37 -66.5 37 -112.5c0 -69.333 -21.5 -127 -64.5 -173s-103.5 -70.333 -181.5 -73v55c45.333 5.33301 79.5 19.333 102.5 42s36.167 50.334 39.5 83.001c-16.667 -6.66699 -32.667 -10 -48 -10c-31.333 0 -56.833 10.667 -76.5 32
s-29.5 47.666 -29.5 78.999c0 35.333 12 64.333 36 87s54.333 34 91 34c38 0 69.333 -14.5 94 -43.5zM893 845.5c61.333 -68.333 92 -160.5 92 -276.5v-569h-256v510c0 139.333 -56 209 -168 209c-61.333 0 -108 -18.167 -140 -54.5s-48 -84.5 -48 -144.5v-520h-254v918h213
l16 -107c28.667 42 69 75.333 121 100s108.667 37 170 37c108 0 192.667 -34.167 254 -102.5z" />
    <glyph glyph-name="Ncaron" unicode="&#x147;" horiz-adv-x="1374" 
d="M492 1790l204 -215l205 215l119 -84l-213 -285h-221l-213 285zM1231 1313v-1313h-248l-573 852v-852h-265v1313h248l576 -858v858h262z" />
    <glyph glyph-name="ncaron" unicode="&#x148;" horiz-adv-x="1093" 
d="M342 1395l205 -215l205 215l118 -84l-213 -285h-221l-213 285zM893 845.5c61.333 -68.333 92 -160.5 92 -276.5v-569h-256v510c0 139.333 -56 209 -168 209c-61.333 0 -108 -18.167 -140 -54.5s-48 -84.5 -48 -144.5v-520h-254v918h213l16 -107
c28.667 42 69 75.333 121 100s108.667 37 170 37c108 0 192.667 -34.167 254 -102.5z" />
    <glyph glyph-name="Eng" unicode="&#x14a;" horiz-adv-x="1419" 
d="M145 1313h263.001l606 -891v891h262v-1428c0 -106.667 -33.5 -184.5 -100.5 -233.5s-147.5 -73.5 -241.5 -73.5c-40.667 0 -78.334 4 -113.001 12v199h92c82 0 123 45.667 123 137v74h-22l-606 887v-887h-263v1313z" />
    <glyph glyph-name="eng" unicode="&#x14b;" horiz-adv-x="1103" 
d="M119 918h235.001l21 -103c28.667 40.667 68.167 72.667 118.5 96s104.166 35 161.499 35c106.667 0 190 -34.167 250 -102.5s90 -160.5 90 -276.5v-637c0 -104 -28.667 -178.667 -86 -224s-124.666 -68 -201.999 -68c-40.667 0 -77.667 5.33301 -111 16v196
c19.333 -2.66699 33 -4 41 -4c68 0 102 37 102 111v549c0 82 -17 137.667 -51 167s-73 44 -117 44c-50.667 0 -96.334 -14.333 -137.001 -43s-61 -80.667 -61 -156v-518h-254v918z" />
    <glyph glyph-name="Omacron" unicode="&#x14c;" horiz-adv-x="1538" 
d="M1047 1604v-172h-558v172h558zM1378 301c-60 -104 -143.167 -184.665 -249.5 -241.998s-226.5 -86 -360.5 -86s-253.833 28.667 -359.5 86s-188.5 137.666 -248.5 240.999s-90 221.666 -90 354.999c0 132.667 30 250.834 90 354.501s142.833 184.5 248.5 242.5
s225.5 87 359.5 87s254.167 -28.667 360.5 -86s189.5 -137.833 249.5 -241.5s90 -221.834 90 -354.501c0 -133.333 -30 -252 -90 -356zM1132.5 883.502c-35.667 66.333 -85.1699 117.666 -148.503 153.999s-134.666 54.5 -213.999 54.5c-80.667 0 -152.667 -18.5 -216 -55.5
s-113.166 -88.333 -149.499 -154s-54.5 -141.5 -54.5 -227.5s17.833 -161.667 53.5 -227s85.167 -116.166 148.5 -152.499s135.333 -54.5 216 -54.5s152.334 18.5 215.001 55.5s112.167 88.5 148.5 154.5s54.5 141.333 54.5 226s-17.833 160.167 -53.5 226.5z" />
    <glyph glyph-name="omacron" unicode="&#x14d;" horiz-adv-x="1153" 
d="M854 1212v-172h-557v172h557zM133.5 712.5c42.333 73.667 102.001 131.332 179.001 172.999s164.5 62.5 262.5 62.5s185.667 -20.833 263 -62.5s137.166 -99.334 179.499 -173.001s63.5 -157.5 63.5 -251.5s-21.167 -178 -63.5 -252s-102 -131.833 -179 -173.5
s-164.833 -62.5 -263.5 -62.5c-98 0 -185.167 20.833 -261.5 62.5s-136 99.334 -179 173.001s-64.5 157.834 -64.5 252.501c0 94 21.167 177.833 63.5 251.5zM398.501 273.498c45.667 -49.667 104.499 -74.5 176.499 -74.5c72.667 0 131.834 24.833 177.501 74.5
s68.5 112.167 68.5 187.5c0 76.667 -22.5 139.167 -67.5 187.5s-104.5 72.5 -178.5 72.5c-72.667 0 -131.667 -24.333 -177 -73s-68 -111 -68 -187c0 -75.333 22.833 -137.833 68.5 -187.5z" />
    <glyph glyph-name="Ohungarumlaut" unicode="&#x150;" horiz-adv-x="1538" 
d="M502 1493l311 334l127 -127l-362 -285zM883 1493l311 334l123 -127l-361 -285zM1378 301c-60 -104 -143.167 -184.665 -249.5 -241.998s-226.5 -86 -360.5 -86s-253.833 28.667 -359.5 86s-188.5 137.666 -248.5 240.999s-90 221.666 -90 354.999
c0 132.667 30 250.834 90 354.501s142.833 184.5 248.5 242.5s225.5 87 359.5 87s254.167 -28.667 360.5 -86s189.5 -137.833 249.5 -241.5s90 -221.834 90 -354.501c0 -133.333 -30 -252 -90 -356zM1132.5 883.502c-35.667 66.333 -85.1699 117.666 -148.503 153.999
s-134.666 54.5 -213.999 54.5c-80.667 0 -152.667 -18.5 -216 -55.5s-113.166 -88.333 -149.499 -154s-54.5 -141.5 -54.5 -227.5s17.833 -161.667 53.5 -227s85.167 -116.166 148.5 -152.499s135.333 -54.5 216 -54.5s152.334 18.5 215.001 55.5s112.167 88.5 148.5 154.5
s54.5 141.333 54.5 226s-17.833 160.167 -53.5 226.5z" />
    <glyph glyph-name="ohungarumlaut" unicode="&#x151;" horiz-adv-x="1153" 
d="M309 1102l312 334l127 -127l-363 -285zM690 1102l311 334l123 -127l-360 -285zM133.5 712.5c42.333 73.667 102.001 131.332 179.001 172.999s164.5 62.5 262.5 62.5s185.667 -20.833 263 -62.5s137.166 -99.334 179.499 -173.001s63.5 -157.5 63.5 -251.5
s-21.167 -178 -63.5 -252s-102 -131.833 -179 -173.5s-164.833 -62.5 -263.5 -62.5c-98 0 -185.167 20.833 -261.5 62.5s-136 99.334 -179 173.001s-64.5 157.834 -64.5 252.501c0 94 21.167 177.833 63.5 251.5zM398.501 273.498
c45.667 -49.667 104.499 -74.5 176.499 -74.5c72.667 0 131.834 24.833 177.501 74.5s68.5 112.167 68.5 187.5c0 76.667 -22.5 139.167 -67.5 187.5s-104.5 72.5 -178.5 72.5c-72.667 0 -131.667 -24.333 -177 -73s-68 -111 -68 -187
c0 -75.333 22.833 -137.833 68.5 -187.5z" />
    <glyph glyph-name="OE" unicode="&#x152;" horiz-adv-x="2269" 
d="M1540 1133v-316h559v-237h-559v-330h625v-250h-889v160c-52 -57.333 -120 -102.5 -204 -135.5s-175 -49.5 -273 -49.5c-147.333 0 -276 30.5 -386 91.5s-194.667 145.333 -254 253s-89 229.834 -89 366.501c0 139.333 30.333 263.666 91 372.999s146 195 256 257
s236 93 378 93c104 0 198.167 -16 282.5 -48s150.5 -75.333 198.5 -130v153l889 -2v-249h-625zM1048.5 293c69.667 38 124 91.5029 163 160.503s58.5 148.5 58.5 238.5s-19.5 169.833 -58.5 239.5s-93.333 123.667 -163 162s-148.834 57.5 -237.501 57.5
c-90 0 -170.167 -19.167 -240.5 -57.5s-125 -92.333 -164 -162s-58.5 -148.834 -58.5 -237.501s19.5 -167.834 58.5 -237.501s93.667 -123.834 164 -162.501s150.5 -58 240.5 -58c88.667 0 167.834 19 237.501 57z" />
    <glyph glyph-name="oe" unicode="&#x153;" horiz-adv-x="1908" 
d="M1685.5 60c-83 -58 -181.833 -87.002 -296.5 -87.002c-95.333 0 -179.666 20.5 -252.999 61.5s-130.166 98.667 -170.499 173s-60.5 159.5 -60.5 255.5c0 96.667 20.167 181.834 60.5 255.501s96.666 130.334 168.999 170.001s154.833 59.5 247.5 59.5
c90 0 169.5 -18.667 238.5 -56s122.667 -89.5 161 -156.5s57.5 -142.833 57.5 -227.5c0 -34 -3.33301 -73.667 -10 -119h-672c2.66699 -62.667 25.167 -113.167 67.5 -151.5s97.166 -57.5 164.499 -57.5c49.333 0 92 10 128 30s61.333 47 76 81h248
c-20.667 -96 -72.5 -173 -155.5 -231zM1579 558.998c-1.33301 56 -21.166 100.001 -59.499 132.001s-86.833 48 -145.5 48c-61.333 0 -111.833 -16.333 -151.5 -49s-60.834 -76.334 -63.501 -131.001h420zM133.5 712.499c42.333 73.667 102.001 131.332 179.001 172.999
s164.5 62.5 262.5 62.5s185.667 -20.833 263 -62.5s137.166 -99.334 179.499 -173.001s63.5 -157.5 63.5 -251.5s-21.167 -178 -63.5 -252s-102 -131.833 -179 -173.5s-164.833 -62.5 -263.5 -62.5c-98 0 -185.167 20.833 -261.5 62.5s-136 99.334 -179 173.001
s-64.5 157.834 -64.5 252.501c0 94 21.167 177.833 63.5 251.5zM398.501 273.497c45.667 -49.667 104.499 -74.5 176.499 -74.5c72.667 0 131.834 24.833 177.501 74.5s68.5 112.167 68.5 187.5c0 76.667 -22.5 139.167 -67.5 187.5s-104.5 72.5 -178.5 72.5
c-72.667 0 -131.667 -24.333 -177 -73s-68 -111 -68 -187c0 -75.333 22.833 -137.833 68.5 -187.5z" />
    <glyph glyph-name="Racute" unicode="&#x154;" horiz-adv-x="1253" 
d="M487 1468l312 334l127 -127l-363 -284zM145 1313l523 -0.000976562c166.667 0 292.167 -35.833 376.5 -107.5s126.5 -175.167 126.5 -310.5c0 -90 -20 -167.167 -60 -231.5s-97.667 -112.166 -173 -143.499l244 -520h-299l-211 475h-260v-475h-267v1313zM668 706.999
c75.333 0 131.333 17.332 168 51.999s55 79.334 55 134.001c0 56 -18.5 101.333 -55.5 136s-92.833 52 -167.5 52h-256v-374h256z" />
    <glyph glyph-name="racute" unicode="&#x155;" horiz-adv-x="708" 
d="M162 1071l311 334l127 -127l-362 -285zM678 918l0.000976562 -220c-10.667 1.33301 -27 2 -49 2c-82 0 -144.833 -22.167 -188.5 -66.5s-65.5 -106.833 -65.5 -187.5v-446h-256v918h231l21 -132c13.333 46.667 40.166 82 80.499 106s87.833 36 142.5 36
c35.333 0 63.333 -3.33301 84 -10z" />
    <glyph glyph-name="uni0156" unicode="&#x156;" horiz-adv-x="1253" 
d="M743.5 -104c24.333 -28.667 36.501 -66.333 36.501 -113c0 -69.333 -21.5 -127 -64.5 -173s-103.167 -70.333 -180.5 -73v55c45.333 5.33301 79.5 19.333 102.5 42s35.833 50.334 38.5 83.001c-16.667 -6.66699 -32.334 -10 -47.001 -10c-31.333 0 -57 10.667 -77 32
s-30 47.666 -30 78.999c0 35.333 12 64.333 36 87s54.333 34 91 34c38.667 0 70.167 -14.333 94.5 -43zM145.001 1313l523 -0.000976562c166.667 0 292.167 -35.833 376.5 -107.5s126.5 -175.167 126.5 -310.5c0 -90 -20 -167.167 -60 -231.5
s-97.667 -112.166 -173 -143.499l244 -520h-299l-211 475h-260v-475h-267v1313zM668.001 707c75.333 0 131.333 17.332 168 51.999s55 79.334 55 134.001c0 56 -18.5 101.333 -55.5 136s-92.833 52 -167.5 52h-256v-374h256z" />
    <glyph glyph-name="uni0157" unicode="&#x157;" horiz-adv-x="708" 
d="M344 -106.5c24.667 -29 37.001 -66.5 37.001 -112.5c0 -69.333 -21.5 -127 -64.5 -173s-103.5 -70.333 -181.5 -73v55c45.333 5.33301 79.5 19.333 102.5 42s35.833 50.334 38.5 83.001c-16.667 -6.66699 -32.334 -10 -47.001 -10c-31.333 0 -56.833 10.667 -76.5 32
s-29.5 47.666 -29.5 78.999c0 35.333 12 64.333 36 87s54.333 34 91 34c38 0 69.333 -14.5 94 -43.5zM678.001 918l0.000976562 -220c-10.667 1.33301 -27 2 -49 2c-82 0 -144.833 -22.167 -188.5 -66.5s-65.5 -106.833 -65.5 -187.5v-446h-256v918h231l21 -132
c13.333 46.667 40.166 82 80.499 106s87.833 36 142.5 36c35.333 0 63.333 -3.33301 84 -10z" />
    <glyph glyph-name="Rcaron" unicode="&#x158;" horiz-adv-x="1253" 
d="M358 1761l205 -215l205 215l119 -84l-213 -284h-221l-213 284zM145 1313l523 -0.000976562c166.667 0 292.167 -35.833 376.5 -107.5s126.5 -175.167 126.5 -310.5c0 -90 -20 -167.167 -60 -231.5s-97.667 -112.166 -173 -143.499l244 -520h-299l-211 475h-260v-475h-267
v1313zM668 706.999c75.333 0 131.333 17.332 168 51.999s55 79.334 55 134.001c0 56 -18.5 101.333 -55.5 136s-92.833 52 -167.5 52h-256v-374h256z" />
    <glyph glyph-name="rcaron" unicode="&#x159;" horiz-adv-x="708" 
d="M33 1364l205 -215l204 215l119 -84l-213 -285h-221l-213 285zM678 918l0.000976562 -220c-10.667 1.33301 -27 2 -49 2c-82 0 -144.833 -22.167 -188.5 -66.5s-65.5 -106.833 -65.5 -187.5v-446h-256v918h231l21 -132c13.333 46.667 40.166 82 80.499 106
s87.833 36 142.5 36c35.333 0 63.333 -3.33301 84 -10z" />
    <glyph glyph-name="Sacute" unicode="&#x15a;" horiz-adv-x="1167" 
d="M506 1493l311 334l127 -127l-362 -285zM161.5 1147c39.667 61.333 96.002 108.668 169.002 142.001s157.5 50 253.5 50c94 0 176.833 -16.333 248.5 -49s128 -78.667 169 -138s61.5 -128.666 61.5 -207.999h-275c-1.33301 52 -22 93.333 -62 124s-92.333 46 -157 46
c-58.667 0 -105.334 -13.667 -140.001 -41s-52 -63.333 -52 -108c0 -45.333 15 -78.5 45 -99.5s72.333 -37.833 127 -50.5l211 -51c106.667 -23.333 189.667 -67.333 249 -132s89 -145.667 89 -243c0 -84.667 -20.833 -158.334 -62.5 -221.001
s-100.834 -110.834 -177.501 -144.501s-165.334 -50.5 -266.001 -50.5c-151.333 0 -274.166 36.667 -368.499 110s-145.5 173.333 -153.5 300h274c2.66699 -57.333 26.5 -102.333 71.5 -135s104.5 -49 178.5 -49c69.333 0 123.833 14.333 163.5 43s59.5 68 59.5 118
c0 42 -13.333 74 -40 96s-63 39.333 -109 52l-217 53c-114.667 26 -201.5 70.833 -260.5 134.5s-88.5 142.5 -88.5 236.5c0 82 19.833 153.667 59.5 215z" />
    <glyph glyph-name="sacute" unicode="&#x15b;" horiz-adv-x="931" 
d="M391 1102l311 334l127 -127l-362 -285zM188.5 55c-72.333 54.667 -111.833 127.668 -118.5 219.001h252c1.33301 -35.333 15.666 -62.833 42.999 -82.5s62 -29.5 104 -29.5c39.333 0 70.666 7.83301 93.999 23.5s35 37.834 35 66.501s-8.83301 49.167 -26.5 61.5
s-41.5 21.833 -71.5 28.5l-152 35c-87.333 20.667 -151.833 54.167 -193.5 100.5s-62.5 102.833 -62.5 169.5c0 90 34.5 162.667 103.5 218s159.5 83 271.5 83c109.333 0 198.5 -27.333 267.5 -82s104.833 -126.334 107.5 -215.001h-250
c-1.33301 32.667 -13.666 58.667 -36.999 78s-54.666 29 -93.999 29c-34 0 -61.333 -7.5 -82 -22.5s-31 -36.167 -31 -63.5c0 -26 8.16699 -44.5 24.5 -55.5s41.833 -20.5 76.5 -28.5l176 -41c80.667 -19.333 140 -52.5 178 -99.5s57 -103.167 57 -168.5
c0 -92.667 -35.5 -166.834 -106.5 -222.501s-165.167 -83.5 -282.5 -83.5c-116 0 -210.167 27.333 -282.5 82z" />
    <glyph glyph-name="Scircumflex" unicode="&#x15c;" horiz-adv-x="1167" 
d="M471 1772h221l211 -285l-117 -82l-204 215l-205 -215l-119 82zM161.5 1147c39.667 61.333 96.002 108.668 169.002 142.001s157.5 50 253.5 50c94 0 176.833 -16.333 248.5 -49s128 -78.667 169 -138s61.5 -128.666 61.5 -207.999h-275c-1.33301 52 -22 93.333 -62 124
s-92.333 46 -157 46c-58.667 0 -105.334 -13.667 -140.001 -41s-52 -63.333 -52 -108c0 -45.333 15 -78.5 45 -99.5s72.333 -37.833 127 -50.5l211 -51c106.667 -23.333 189.667 -67.333 249 -132s89 -145.667 89 -243c0 -84.667 -20.833 -158.334 -62.5 -221.001
s-100.834 -110.834 -177.501 -144.501s-165.334 -50.5 -266.001 -50.5c-151.333 0 -274.166 36.667 -368.499 110s-145.5 173.333 -153.5 300h274c2.66699 -57.333 26.5 -102.333 71.5 -135s104.5 -49 178.5 -49c69.333 0 123.833 14.333 163.5 43s59.5 68 59.5 118
c0 42 -13.333 74 -40 96s-63 39.333 -109 52l-217 53c-114.667 26 -201.5 70.833 -260.5 134.5s-88.5 142.5 -88.5 236.5c0 82 19.833 153.667 59.5 215z" />
    <glyph glyph-name="scircumflex" unicode="&#x15d;" horiz-adv-x="931" 
d="M356 1380h222l210 -284l-116 -82l-205 215l-205 -215l-119 82zM188.5 55c-72.333 54.667 -111.833 127.668 -118.5 219.001h252c1.33301 -35.333 15.666 -62.833 42.999 -82.5s62 -29.5 104 -29.5c39.333 0 70.666 7.83301 93.999 23.5s35 37.834 35 66.501
s-8.83301 49.167 -26.5 61.5s-41.5 21.833 -71.5 28.5l-152 35c-87.333 20.667 -151.833 54.167 -193.5 100.5s-62.5 102.833 -62.5 169.5c0 90 34.5 162.667 103.5 218s159.5 83 271.5 83c109.333 0 198.5 -27.333 267.5 -82s104.833 -126.334 107.5 -215.001h-250
c-1.33301 32.667 -13.666 58.667 -36.999 78s-54.666 29 -93.999 29c-34 0 -61.333 -7.5 -82 -22.5s-31 -36.167 -31 -63.5c0 -26 8.16699 -44.5 24.5 -55.5s41.833 -20.5 76.5 -28.5l176 -41c80.667 -19.333 140 -52.5 178 -99.5s57 -103.167 57 -168.5
c0 -92.667 -35.5 -166.834 -106.5 -222.501s-165.167 -83.5 -282.5 -83.5c-116 0 -210.167 27.333 -282.5 82z" />
    <glyph glyph-name="Scedilla" unicode="&#x15e;" horiz-adv-x="1167" 
d="M618 -92c48 0 90.832 -15 128.499 -45s56.5 -75.667 56.5 -137c0 -66.667 -24.667 -118.5 -74 -155.5s-108.666 -55.5 -177.999 -55.5c-60 0 -113.333 13.667 -160 41v131c13.333 -13.333 32 -24.5 56 -33.5s48.333 -13.5 73 -13.5c32.667 0 60 7.5 82 22.5
s33 38.167 33 69.5c0 27.333 -9.5 48.5 -28.5 63.5s-43.833 22.5 -74.5 22.5c-15.333 0 -31 -2 -47 -6l-55 59l145 215h93v-72l-76 -108c5.33301 1.33301 14 2 26 2zM161.499 1147c-39.667 -61.333 -59.499 -133.001 -59.499 -215.001c0 -94 29.5 -172.833 88.5 -236.5
s145.833 -108.5 260.5 -134.5l217 -53c46.667 -12 83.167 -29 109.5 -51s39.5 -54.333 39.5 -97c0 -50.667 -19.833 -90.167 -59.5 -118.5s-94.167 -42.5 -163.5 -42.5c-74 0 -133.5 16.333 -178.5 49s-68.833 77.667 -71.5 135h-274c8 -126.667 59.167 -226.667 153.5 -300
s217.166 -110 368.499 -110c101.333 0 190.166 16.833 266.499 50.5s135.333 81.834 177 144.501s62.5 136.334 62.5 221.001c0 96.667 -29.667 177.5 -89 242.5s-142.333 109.167 -249 132.5l-211 51c-54.667 12 -97 28.667 -127 50s-45 54.666 -45 99.999
s17.333 81.5 52 108.5s81.334 40.5 140.001 40.5c64 0 116.167 -15.333 156.5 -46s61.166 -72 62.499 -124h275c0 79.333 -20.5 148.666 -61.5 207.999s-97.333 105.333 -169 138s-154.5 49 -248.5 49c-95.333 0 -179.666 -16.667 -252.999 -50
s-129.833 -80.666 -169.5 -141.999z" />
    <glyph glyph-name="scedilla" unicode="&#x15f;" horiz-adv-x="931" 
d="M496 -82c48 0 90.666 -15 127.999 -45s56 -75.667 56 -137c0 -66.667 -24.667 -118.5 -74 -155.5s-108.666 -55.5 -177.999 -55.5c-60 0 -113.333 13.667 -160 41v131c13.333 -13.333 32 -24.5 56 -33.5s48.333 -13.5 73 -13.5c32.667 0 60 7.5 82 22.5
s33 38.167 33 69.5c0 27.333 -9.5 48.5 -28.5 63.5s-43.5 22.5 -73.5 22.5c-15.333 0 -31.333 -2 -48 -6l-55 59l146 215h92v-71l-76 -109c6 1.33301 15 2 27 2zM188.499 55c72.333 -54.667 166.5 -81.999 282.5 -81.999c117.333 0 211.5 27.667 282.5 83
s106.5 129.666 106.5 222.999c0 65.333 -19.167 121.5 -57.5 168.5s-97.5 80.167 -177.5 99.5l-176 41c-34 8 -59.333 17.5 -76 28.5s-25 29.5 -25 55.5c0 27.333 10.333 48.5 31 63.5s48 22.5 82 22.5c39.333 0 70.666 -9.66699 93.999 -29s35.666 -45.333 36.999 -78h250
c-2.66699 88.667 -38.5 160.334 -107.5 215.001s-158.167 82 -267.5 82c-112 0 -202.5 -27.667 -271.5 -83s-103.5 -128 -103.5 -218c0 -66.667 20.833 -123.167 62.5 -169.5s106.167 -79.833 193.5 -100.5l152 -35c30 -6.66699 53.833 -16.167 71.5 -28.5
s26.5 -32.833 26.5 -61.5s-11.667 -50.834 -35 -66.501s-54.666 -23.5 -93.999 -23.5c-42 0 -76.667 9.83301 -104 29.5s-41.666 47.167 -42.999 82.5h-252c6.66699 -91.333 46.167 -164.333 118.5 -219z" />
    <glyph glyph-name="Scaron" unicode="&#x160;" horiz-adv-x="1167" 
d="M377 1786l205 -215l204 215l119 -84l-213 -285h-221l-213 285zM161.5 1147c39.667 61.333 96.002 108.668 169.002 142.001s157.5 50 253.5 50c94 0 176.833 -16.333 248.5 -49s128 -78.667 169 -138s61.5 -128.666 61.5 -207.999h-275c-1.33301 52 -22 93.333 -62 124
s-92.333 46 -157 46c-58.667 0 -105.334 -13.667 -140.001 -41s-52 -63.333 -52 -108c0 -45.333 15 -78.5 45 -99.5s72.333 -37.833 127 -50.5l211 -51c106.667 -23.333 189.667 -67.333 249 -132s89 -145.667 89 -243c0 -84.667 -20.833 -158.334 -62.5 -221.001
s-100.834 -110.834 -177.501 -144.501s-165.334 -50.5 -266.001 -50.5c-151.333 0 -274.166 36.667 -368.499 110s-145.5 173.333 -153.5 300h274c2.66699 -57.333 26.5 -102.333 71.5 -135s104.5 -49 178.5 -49c69.333 0 123.833 14.333 163.5 43s59.5 68 59.5 118
c0 42 -13.333 74 -40 96s-63 39.333 -109 52l-217 53c-114.667 26 -201.5 70.833 -260.5 134.5s-88.5 142.5 -88.5 236.5c0 82 19.833 153.667 59.5 215z" />
    <glyph glyph-name="scaron" unicode="&#x161;" horiz-adv-x="931" 
d="M262 1395l205 -215l205 215l119 -84l-213 -285h-222l-213 285zM188.5 55c-72.333 54.667 -111.833 127.668 -118.5 219.001h252c1.33301 -35.333 15.666 -62.833 42.999 -82.5s62 -29.5 104 -29.5c39.333 0 70.666 7.83301 93.999 23.5s35 37.834 35 66.501
s-8.83301 49.167 -26.5 61.5s-41.5 21.833 -71.5 28.5l-152 35c-87.333 20.667 -151.833 54.167 -193.5 100.5s-62.5 102.833 -62.5 169.5c0 90 34.5 162.667 103.5 218s159.5 83 271.5 83c109.333 0 198.5 -27.333 267.5 -82s104.833 -126.334 107.5 -215.001h-250
c-1.33301 32.667 -13.666 58.667 -36.999 78s-54.666 29 -93.999 29c-34 0 -61.333 -7.5 -82 -22.5s-31 -36.167 -31 -63.5c0 -26 8.16699 -44.5 24.5 -55.5s41.833 -20.5 76.5 -28.5l176 -41c80.667 -19.333 140 -52.5 178 -99.5s57 -103.167 57 -168.5
c0 -92.667 -35.5 -166.834 -106.5 -222.501s-165.167 -83.5 -282.5 -83.5c-116 0 -210.167 27.333 -282.5 82z" />
    <glyph glyph-name="uni0162" unicode="&#x162;" horiz-adv-x="1124" 
d="M641 -106c48 0 90.666 -15.168 127.999 -45.501s56 -76.166 56 -137.499c0 -66.667 -24.5 -118.5 -73.5 -155.5s-108.5 -55.5 -178.5 -55.5c-60 0 -113 13.667 -159 41v131c13.333 -13.333 32 -24.5 56 -33.5s48.333 -13.5 73 -13.5c32.667 0 59.834 7.5 81.501 22.5
s32.5 38.167 32.5 69.5c0 27.333 -9.5 48.5 -28.5 63.5s-43.5 22.5 -73.5 22.5c-15.333 0 -31 -2 -47 -6l-55 60l145 215h92v-72l-76 -109c6 2 15 3 27 3zM1092 1071h-396v-1071h-266v1071h-397v242h1059v-242z" />
    <glyph glyph-name="uni0163" unicode="&#x163;" horiz-adv-x="665" 
d="M412 -106c48 0 90.667 -15.168 128 -45.501s56 -76.166 56 -137.499c0 -66.667 -24.5 -118.5 -73.5 -155.5s-108.5 -55.5 -178.5 -55.5c-60 0 -113.333 13.667 -160 41v131c13.333 -13.333 32 -24.5 56 -33.5s48.333 -13.5 73 -13.5c32.667 0 60 7.5 82 22.5
s33 38.167 33 69.5c0 27.333 -9.5 48.5 -28.5 63.5s-43.5 22.5 -73.5 22.5c-15.333 0 -31 -2 -47 -6l-56 60l146 215h92v-72l-76 -109c6 2 15 3 27 3zM633 708.999h-174v-709h-254v709h-172v209h172v239h254v-239h174v-209z" />
    <glyph glyph-name="Tcaron" unicode="&#x164;" horiz-adv-x="1124" 
d="M356 1759l205 -215l205 215l119 -84l-213 -284h-221l-213 284zM1092 1071h-396v-1071h-266v1071h-397v242h1059v-242z" />
    <glyph glyph-name="tcaron" unicode="&#x165;" horiz-adv-x="665" 
d="M717 1393l-43 -389h-131v389h174zM459 918h174v-216h-174v-702h-254v702h-172v216h172v239h254v-239z" />
    <glyph glyph-name="Tbar" unicode="&#x166;" horiz-adv-x="1124" 
d="M1014 807v-227h-871v227h871zM1092 1071h-396v-1071h-266v1071h-397v242h1059v-242z" />
    <glyph glyph-name="tbar" unicode="&#x167;" horiz-adv-x="665" 
d="M634 364h-602v190h602v-190zM633 709h-174v-709h-254v709h-172v209h172v239h254v-239h174v-209z" />
    <glyph glyph-name="Utilde" unicode="&#x168;" horiz-adv-x="1384" 
d="M389 1466c0 62.667 15.3301 112.5 45.9971 149.5s71.334 55.5 122.001 55.5c27.333 0 51.666 -4.33301 72.999 -13s48.333 -22.667 81 -42c20.667 -12 38 -21.5 52 -28.5s27.333 -10.5 40 -10.5c24.667 0 41.334 7.5 50.001 22.5s12.334 38.167 11.001 69.5h125
c4 -22 6 -43.667 6 -65c0 -58.667 -15.667 -106.167 -47 -142.5s-73 -54.5 -125 -54.5c-27.333 0 -53.166 5.16699 -77.499 15.5s-51.5 24.166 -81.5 41.499c-15.333 9.33301 -30.833 17.5 -46.5 24.5s-28.834 10.5 -39.501 10.5c-24.667 0 -41.167 -10.167 -49.5 -30.5
s-11.166 -44.833 -8.49902 -73.5h-125c-4 26.667 -6 50.334 -6 71.001zM134.997 1313h266v-821c0 -94 27 -163.667 81 -209s124 -68 210 -68c91.333 0 163 23.5 215 70.5s78 115.833 78 206.5v821h266v-832c0 -108 -23.833 -200.167 -71.5 -276.5s-113.5 -134 -197.5 -173
s-180.667 -58.5 -290 -58.5c-169.333 0 -304.5 44.833 -405.5 134.5s-151.5 214.167 -151.5 373.5v832z" />
    <glyph glyph-name="utilde" unicode="&#x169;" horiz-adv-x="1075" 
d="M236 1073c0 62.667 15.335 112.501 46.002 149.501s71 55.5 121 55.5c27.333 0 51.666 -4.5 72.999 -13.5s48.333 -22.833 81 -41.5c20.667 -12 38.167 -21.5 52.5 -28.5s27.5 -10.5 39.5 -10.5c24.667 0 41.5 7.5 50.5 22.5s12.833 38.167 11.5 69.5h125
c4 -22 6 -44 6 -66c0 -58.667 -15.667 -106 -47 -142s-73 -54 -125 -54c-27.333 0 -53.333 5 -78 15s-52 24 -82 42c-15.333 9.33301 -30.833 17.5 -46.5 24.5s-28.834 10.5 -39.501 10.5c-24.667 0 -41.167 -10.333 -49.5 -31s-10.833 -45.334 -7.5 -74.001h-125
c-4 27.333 -6 51.333 -6 72zM965.002 918.001l-0.00195312 -918.001h-211l-17 109c-32.667 -45.333 -73.167 -79.333 -121.5 -102s-103.166 -34 -164.499 -34c-109.333 0 -193.666 32.833 -252.999 98.5s-89 153.834 -89 264.501v582h256v-541
c0 -65.333 14.667 -112 44 -140s71.333 -42 126 -42s97.667 17.667 129 53s47 82.333 47 141v529h254z" />
    <glyph glyph-name="Umacron" unicode="&#x16a;" horiz-adv-x="1384" 
d="M971 1577v-172h-557v172h557zM135 1313h266v-821c0 -94 27 -163.667 81 -209s124 -68 210 -68c91.333 0 163 23.5 215 70.5s78 115.833 78 206.5v821h266v-832c0 -108 -23.833 -200.167 -71.5 -276.5s-113.5 -134 -197.5 -173s-180.667 -58.5 -290 -58.5
c-169.333 0 -304.5 44.833 -405.5 134.5s-151.5 214.167 -151.5 373.5v832z" />
    <glyph glyph-name="umacron" unicode="&#x16b;" horiz-adv-x="1075" 
d="M817 1184v-172h-557v172h557zM965 918l-0.00195312 -918.001h-211l-17 109c-32.667 -45.333 -73.167 -79.333 -121.5 -102s-103.166 -34 -164.499 -34c-109.333 0 -193.666 32.833 -252.999 98.5s-89 153.834 -89 264.501v582h256v-541c0 -65.333 14.667 -112 44 -140
s71.333 -42 126 -42s97.667 17.667 129 53s47 82.333 47 141v529h254z" />
    <glyph glyph-name="Uring" unicode="&#x16e;" horiz-adv-x="1384" 
d="M499.5 1433.5c-47.667 49 -71.501 107.166 -71.501 174.499c0 68 23.833 126.167 71.5 174.5s111.834 72.5 192.501 72.5c52 0 98.167 -11.5 138.5 -34.5s71.333 -53.667 93 -92s32.5 -78.5 32.5 -120.5c0 -44 -10.5 -84.667 -31.5 -122s-51.667 -67.666 -92 -90.999
s-87.166 -35 -140.499 -35c-80.667 0 -144.834 24.5 -192.501 73.5zM764.999 1536c20 20.667 29.998 46.002 29.998 76.002c0 27.333 -10 51.166 -30 71.499s-44.333 30.5 -73 30.5c-27.333 0 -51.166 -9.83301 -71.499 -29.5s-30.5 -43.834 -30.5 -72.501
c0 -30 9.83301 -55.333 29.5 -76s43.834 -31 72.501 -31s53 10.333 73 31zM134.997 1313h266v-821c0 -94 27 -163.667 81 -209s124 -68 210 -68c91.333 0 163 23.5 215 70.5s78 115.833 78 206.5v821h266v-832c0 -108 -23.833 -200.167 -71.5 -276.5
s-113.5 -134 -197.5 -173s-180.667 -58.5 -290 -58.5c-169.333 0 -304.5 44.833 -405.5 134.5s-151.5 214.167 -151.5 373.5v832z" />
    <glyph glyph-name="uring" unicode="&#x16f;" horiz-adv-x="1075" 
d="M346 1040.5c-48 49 -72.001 106.833 -72.001 173.5c0 68 24 126.333 72 175s112.333 73 193 73c52 0 98 -11.5 138 -34.5s71 -53.667 93 -92s33 -78.833 33 -121.5c0 -44 -10.667 -84.667 -32 -122s-52.166 -67.5 -92.499 -90.5s-86.833 -34.5 -139.5 -34.5
c-80.667 0 -145 24.5 -193 73.5zM611.499 1143c19.667 20.667 29.5 46.002 29.5 76.002c0 27.333 -9.83301 51.166 -29.5 71.499s-43.834 30.5 -72.501 30.5c-27.333 0 -51.333 -9.83301 -72 -29.5s-31 -43.834 -31 -72.501c0 -30 10 -55.333 30 -76s44.333 -31 73 -31
s52.834 10.333 72.501 31zM964.999 918.002l-0.00195312 -918.001h-211l-17 109c-32.667 -45.333 -73.167 -79.333 -121.5 -102s-103.166 -34 -164.499 -34c-109.333 0 -193.666 32.833 -252.999 98.5s-89 153.834 -89 264.501v582h256v-541c0 -65.333 14.667 -112 44 -140
s71.333 -42 126 -42s97.667 17.667 129 53s47 82.333 47 141v529h254z" />
    <glyph glyph-name="Uhungarumlaut" unicode="&#x170;" horiz-adv-x="1384" 
d="M426 1468l311 334l127 -129l-362 -282zM807 1468l311 334l123 -129l-360 -282zM135 1313h266v-821c0 -94 27 -163.667 81 -209s124 -68 210 -68c91.333 0 163 23.5 215 70.5s78 115.833 78 206.5v821h266v-832c0 -108 -23.833 -200.167 -71.5 -276.5
s-113.5 -134 -197.5 -173s-180.667 -58.5 -290 -58.5c-169.333 0 -304.5 44.833 -405.5 134.5s-151.5 214.167 -151.5 373.5v832z" />
    <glyph glyph-name="uhungarumlaut" unicode="&#x171;" horiz-adv-x="1075" 
d="M272 1075l312 334l127 -129l-363 -283zM653 1075l312 334l122 -129l-360 -283zM965 918l-0.00195312 -918.001h-211l-17 109c-32.667 -45.333 -73.167 -79.333 -121.5 -102s-103.166 -34 -164.499 -34c-109.333 0 -193.666 32.833 -252.999 98.5s-89 153.834 -89 264.501
v582h256v-541c0 -65.333 14.667 -112 44 -140s71.333 -42 126 -42s97.667 17.667 129 53s47 82.333 47 141v529h254z" />
    <glyph glyph-name="Uogonek" unicode="&#x172;" horiz-adv-x="1384" 
d="M819 -10c-38 -22 -66.5 -46.333 -85.5 -73s-28.5 -51.667 -28.5 -75c0 -19.333 6.66699 -35 20 -47s32.333 -18 57 -18c18 0 39.333 4 64 12v-133c-40.667 -13.333 -80.334 -20.333 -119.001 -21c-57.333 0 -102.666 15.167 -135.999 45.5s-50 67.833 -50 112.5
c0 35.333 11.167 70.5 33.5 105.5s55.5 65.5 99.5 91.5h145zM135 1313h266v-821c0 -94 27 -163.667 81 -209s124 -68 210 -68c91.333 0 163 23.5 215 70.5s78 115.833 78 206.5v821h266v-832c0 -108 -23.833 -200.167 -71.5 -276.5s-113.5 -134 -197.5 -173
s-180.667 -58.5 -290 -58.5c-169.333 0 -304.5 44.833 -405.5 134.5s-151.5 214.167 -151.5 373.5v832z" />
    <glyph glyph-name="uogonek" unicode="&#x173;" horiz-adv-x="1075" 
d="M967 0c-38 -22 -66.668 -46.333 -86.001 -73s-29 -51.334 -29 -74.001c0 -19.333 6.83301 -35.166 20.5 -47.499s32.834 -18.5 57.501 -18.5c18 0 39 4 63 12v-133c-40.667 -13.333 -80.334 -20 -119.001 -20c-57.333 0 -102.666 15 -135.999 45s-50 67.333 -50 112
c0 35.333 11.333 70.5 34 105.5s55.667 65.5 99 91.5h146zM964.999 918l-0.00195312 -918.001h-211l-17 109c-32.667 -45.333 -73.167 -79.333 -121.5 -102s-103.166 -34 -164.499 -34c-109.333 0 -193.666 32.833 -252.999 98.5s-89 153.834 -89 264.501v582h256v-541
c0 -65.333 14.667 -112 44 -140s71.333 -42 126 -42s97.667 17.667 129 53s47 82.333 47 141v529h254z" />
    <glyph glyph-name="Wcircumflex" unicode="&#x174;" horiz-adv-x="1931" 
d="M854 1745h221l213 -285l-119 -82l-204 215l-205 -215l-119 82zM309 1313l141.999 -466.999c34 -113.333 60.5 -208.333 79.5 -285s30.5 -124.334 34.5 -143.001c26 80.667 67.667 220.667 125 420l133 440h289l166 -551l92 -309c0 5.33301 10.333 50 31 134
s48.667 182 84 294l141 467h285l-414 -1313h-258l-80 256l-114.5 375.5c-38.333 129 -64.166 218.833 -77.499 269.5l-85 -293l-106 -352l-80 -256h-258l-413 1313h284z" />
    <glyph glyph-name="wcircumflex" unicode="&#x175;" horiz-adv-x="1542" 
d="M666 1352h221l213 -285l-119 -82l-205 215l-205 -215l-118 82zM307 918l70 -234.002c46.667 -160 77.334 -275.333 92.001 -346l99 333.5c32 106.333 55.667 182.833 71 229.5h268c15.333 -48 39.666 -131.667 72.999 -251s62.333 -228.666 87 -327.999
c22 88.667 54 204.667 96 348l76 248h270l-323 -918h-248c-42 138 -78.5 262.667 -109.5 374s-49.833 182 -56.5 212c-40.667 -157.333 -98 -352.666 -172 -585.999h-260l-307 918h274z" />
    <glyph glyph-name="Ycircumflex" unicode="&#x176;" horiz-adv-x="1245" 
d="M518 1745h221l213 -285l-118 -82l-205 215l-205 -215l-119 82zM328 1313l143.001 -250l104 -187.5c27.333 -49.667 44.666 -82.167 51.999 -97.5c6.66699 15.333 24.667 50.333 54 105l101 180l144 250h299l-467 -793v-520h-269v520l-471 793h310z" />
    <glyph glyph-name="ycircumflex" unicode="&#x177;" horiz-adv-x="1069" 
d="M428 1352h221l213 -285l-119 -82l-204 215l-205 -215l-119 82zM1044 918l-423.001 -1074c-34 -86 -79.167 -155.5 -135.5 -208.5s-139.5 -79.5 -249.5 -79.5c-53.333 0 -111.666 7.33301 -174.999 22l2 207c57.333 -9.33301 100.666 -14 129.999 -14
c64 0 109.333 11.833 136 35.5s49.334 59.5 68.001 107.5l19 51l-393 953h276l236 -642l241 642h268z" />
    <glyph glyph-name="Ydieresis" unicode="&#x178;" horiz-adv-x="1245" 
d="M341 1425.5c-25.333 24.333 -38 54.5 -38 90.5c0 38 12.667 69 38 93s56.333 36 93 36s67 -12 91 -36s36 -55 36 -93c0 -35.333 -12.333 -65.333 -37 -90s-54.667 -37 -90 -37c-36.667 0 -67.667 12.167 -93 36.5zM732 1425.5c-25.333 24.333 -38.002 54.5 -38.002 90.5
c0 38 12.667 69 38 93s56.333 36 93 36s67.334 -12 92.001 -36s37 -55 37 -93c0 -35.333 -12.167 -65.333 -36.5 -90s-55.166 -37 -92.499 -37c-36.667 0 -67.667 12.167 -93 36.5zM327.998 1313l143.001 -250l104 -187.5c27.333 -49.667 44.666 -82.167 51.999 -97.5
c6.66699 15.333 24.667 50.333 54 105l101 180l144 250h299l-467 -793v-520h-269v520l-471 793h310z" />
    <glyph glyph-name="Zacute" unicode="&#x179;" horiz-adv-x="1124" 
d="M492 1466l311 334l127 -127l-363 -284zM1049 1108l-627 -866h622v-242h-968v215l626 856h-614v242h961v-205z" />
    <glyph glyph-name="zacute" unicode="&#x17a;" horiz-adv-x="921" 
d="M385 1073l311 334l127 -127l-362 -285zM84 223l434 471h-434v224h754v-226l-447 -465h447v-227h-754v223z" />
    <glyph glyph-name="Zdotaccent" unicode="&#x17b;" horiz-adv-x="1124" 
d="M474 1431.5c-25.333 24.333 -38 54.5 -38 90.5c0 38 12.667 69 38 93s56.333 36 93 36s67 -12 91 -36s36 -55 36 -93c0 -35.333 -12.167 -65.333 -36.5 -90s-54.5 -37 -90.5 -37c-36.667 0 -67.667 12.167 -93 36.5zM1049 1108l-627 -866h622v-242h-968v215l626 856h-614
v242h961v-205z" />
    <glyph glyph-name="zdotaccent" unicode="&#x17c;" horiz-adv-x="921" 
d="M368 1038c-25.333 24.667 -38 54.668 -38 90.001c0 38 12.667 69 38 93s56.333 36 93 36s67 -11.833 91 -35.5s36 -54.834 36 -93.501c0 -35.333 -12.333 -65.333 -37 -90s-54.667 -37 -90 -37c-36.667 0 -67.667 12.333 -93 37zM84 223.001l434 471h-434v224h754v-226
l-447 -465h447v-227h-754v223z" />
    <glyph glyph-name="Zcaron" unicode="&#x17d;" horiz-adv-x="1124" 
d="M362 1759l205 -215l205 215l119 -84l-213 -284h-221l-213 284zM1049 1108l-627 -866h622v-242h-968v215l626 856h-614v242h961v-205z" />
    <glyph glyph-name="zcaron" unicode="&#x17e;" horiz-adv-x="921" 
d="M256 1366l205 -215l205 215l118 -84l-213 -285h-221l-213 285zM84 223l434 471h-434v224h754v-226l-447 -465h447v-227h-754v223z" />
    <glyph glyph-name="florin" unicode="&#x192;" horiz-adv-x="1296" 
d="M850 1050c-30 -26.667 -49.6709 -69.332 -59.0039 -127.999l-9 -56h348v-188h-378l-56 -348c-19.333 -118.667 -64.666 -203.334 -135.999 -254.001s-168.666 -76 -291.999 -76h-164v223h134c68 0 118.333 15.333 151 46s54.667 83 66 157l41 252h-246v188h276l19 107
c20.667 126.667 66.334 215 137.001 265s170.334 75 299.001 75h149v-223h-135c-66.667 0 -115 -13.333 -145 -40z" />
    <glyph glyph-name="Aringacute" unicode="&#x1fa;" horiz-adv-x="1275" 
d="M579 1662l365 275l103 -148l-406 -217zM446.5 1290.5c47.667 -49 111.835 -73.499 192.502 -73.499c53.333 0 100.166 11.5 140.499 34.5s71 53.333 92 91s31.5 78.167 31.5 121.5c0 42 -10.833 82.167 -32.5 120.5s-52.667 69.166 -93 92.499s-86.5 35 -138.5 35
c-80.667 0 -144.834 -24.167 -192.501 -72.5s-71.5 -106.833 -71.5 -175.5c0 -66.667 23.833 -124.5 71.5 -173.5zM711.501 1392.5c-19.667 -20.333 -43.832 -30.5 -72.499 -30.5s-52.834 10.167 -72.501 30.5s-29.5 45.5 -29.5 75.5c0 28.667 10.167 53 30.5 73
s44.166 30 71.499 30c28.667 0 52.834 -10.333 72.501 -31s29.5 -44.667 29.5 -72c0 -30 -9.83301 -55.167 -29.5 -75.5zM506.003 1313h264l487 -1313h-280l-103 287h-477l-104 -287h-275zM797.003 508.001l-68.001 192c-20.667 56 -39.167 109.333 -55.5 160
s-27.166 85 -32.499 103c-5.33301 -18 -18 -55.667 -38 -113s-38.667 -108 -56 -152l-72 -190h322z" />
    <glyph glyph-name="aringacute" unicode="&#x1fb;" horiz-adv-x="1181" 
d="M573 1163l312 334l127 -127l-363 -285zM336 901c48 -49.333 112.003 -73.999 192.003 -73.999c53.333 0 100.166 11.667 140.499 35s71.166 53.833 92.499 91.5s32 78.167 32 121.5c0 42 -11 82.167 -33 120.5s-53.167 69.166 -93.5 92.499s-86.5 35 -138.5 35
c-80.667 0 -144.834 -24.167 -192.501 -72.5s-71.5 -106.833 -71.5 -175.5c0 -66.667 24 -124.667 72 -174zM601.003 1003.5c-20 -20.333 -44.3311 -30.5 -72.998 -30.5s-52.834 10.167 -72.501 30.5s-29.5 45.5 -29.5 75.5c0 28.667 10.167 53 30.5 73s44.166 30 71.499 30
c28.667 0 53 -10.333 73 -31s30 -44.667 30 -72c0 -30 -10 -55.167 -30 -75.5zM1069 918.001l0.000976562 -918h-244v117c-31.333 -44 -75.666 -79 -132.999 -105s-120 -39 -188 -39c-84.667 0 -159.834 19.833 -225.501 59.5s-116.834 95.667 -153.501 168
s-55 156.5 -55 252.5c0 98 19 184.5 57 259.5s91.833 133 161.5 174s148.834 61.5 237.501 61.5c68 0 128.667 -11.5 182 -34.5s96.666 -56.5 129.999 -100.5l20 105h211zM745.506 275.501c45 47 67.5 109.502 67.5 187.502s-22.167 140.5 -66.5 187.5
s-102.833 70.5 -175.5 70.5c-74 0 -132.667 -23.833 -176 -71.5s-65 -109.834 -65 -186.501s22.167 -138.834 66.5 -186.501s101.833 -71.5 172.5 -71.5c72.667 0 131.5 23.5 176.5 70.5z" />
    <glyph glyph-name="AEacute" unicode="&#x1fc;" horiz-adv-x="1769" 
d="M979 1497l311 334l127 -127l-362 -285zM1061 1063v-279l541 -2v-239l-541 2v-293l604 -2v-250l-604 2v-2h-252v303h-369l-118 -303h-304l543 1313h1104v-252zM809 1063h-72l-207 -531h279v531z" />
    <glyph glyph-name="aeacute" unicode="&#x1fd;" horiz-adv-x="1679" 
d="M752 1118l311 334l127 -127l-363 -285zM1614 287c-23.333 -94 -76.3359 -169.504 -159.003 -226.504s-182 -85.5 -298 -85.5c-84.667 0 -159.667 15.5 -225 46.5s-115.333 73.833 -150 128.5c-32.667 -54.667 -79.667 -97.834 -141 -129.501s-133 -47.5 -215 -47.5
c-108 0 -194 26.667 -258 80s-96 124.333 -96 213s32.333 159.334 97 212.001s155.667 79 273 79h220v37c0 52 -15.5 91.667 -46.5 119s-73.833 41 -128.5 41c-52 0 -94 -11.667 -126 -35s-49.333 -54.666 -52 -93.999h-215c4 96.667 44 174.667 120 234s173.333 89 292 89
c69.333 0 130.333 -11.5 183 -34.5s95.334 -56.5 128.001 -100.5c39.333 44 87.833 77.167 145.5 99.5s120.5 33.5 188.5 33.5c88.667 0 167.834 -18.667 237.501 -56s123.667 -89.166 162 -155.499s57.5 -141.166 57.5 -224.499c0 -27.333 -1.83301 -52.666 -5.5 -75.999
s-6.16699 -38.333 -7.5 -45h-667c1.33301 -58.667 22.833 -107.5 64.5 -146.5s97.834 -58.5 168.501 -58.5c49.333 0 92.833 9.33301 130.5 28s63.167 43.667 76.5 75h246zM991.497 686.996c-38.333 -33.333 -58.834 -76.668 -61.501 -130.001h420
c-1.33301 54.667 -21.5 98.334 -60.5 131.001s-88.5 49 -148.5 49c-61.333 0 -111.166 -16.667 -149.499 -50zM663.996 390.994l-159.998 -0.000976562c-62.667 0 -107.334 -10.833 -134.001 -32.5s-40 -50.5 -40 -86.5c0 -35.333 12.667 -62.5 38 -81.5
s59.666 -28.5 102.999 -28.5c60 0 107.167 17.333 141.5 52s51.5 81.334 51.5 140.001v37z" />
    <glyph glyph-name="Oslashacute" unicode="&#x1fe;" horiz-adv-x="1538" 
d="M723 1540l311 334l127 -127l-362 -285zM1128.5 1255c106.333 -57.333 189.5 -137.831 249.5 -241.498s90 -221.834 90 -354.501c0 -134 -30 -252.833 -90 -356.5s-143.167 -184.167 -249.5 -241.5s-226.5 -86 -360.5 -86s-253.833 28.667 -359.5 86
s-188.5 137.666 -248.5 240.999s-90 221.666 -90 354.999c0 132.667 30 250.834 90 354.501s142.833 184.5 248.5 242.5s225.5 87 359.5 87s254.167 -28.667 360.5 -86zM554 1038.5c-63.333 -37 -113.166 -88.335 -149.499 -154.002s-54.5 -141.5 -54.5 -227.5
c0 -58.667 8.5 -113.167 25.5 -163.5s42.167 -94.166 75.5 -131.499l444 715c-40.667 10.667 -82.334 16.334 -125.001 17.001c-80.667 0 -152.667 -18.5 -216 -55.5zM983 278.5c62.667 37 112.166 88.499 148.499 154.499s54.5 141.333 54.5 226
c0 60 -9.66699 116.333 -29 169s-46 98.334 -80 137.001l-442 -723c40.667 -12 85 -18.333 133 -19c80.667 0 152.334 18.5 215.001 55.5z" />
    <glyph glyph-name="oslashacute" unicode="&#x1ff;" horiz-adv-x="1153" 
d="M500 1102l311 334l127 -127l-363 -285zM182 -19l653 1039l143 -86l-655 -1040zM133.5 712.5c42.333 73.667 102.001 131.332 179.001 172.999s164.5 62.5 262.5 62.5s185.667 -20.833 263 -62.5s137.166 -99.334 179.499 -173.001s63.5 -157.5 63.5 -251.5
s-21.167 -178 -63.5 -252s-102 -131.833 -179 -173.5s-164.833 -62.5 -263.5 -62.5c-98 0 -185.167 20.833 -261.5 62.5s-136 99.334 -179 173.001s-64.5 157.834 -64.5 252.501c0 94 21.167 177.833 63.5 251.5zM398.501 273.498
c45.667 -49.667 104.499 -74.5 176.499 -74.5c72.667 0 131.834 24.833 177.501 74.5s68.5 112.167 68.5 187.5c0 76.667 -22.5 139.167 -67.5 187.5s-104.5 72.5 -178.5 72.5c-72.667 0 -131.667 -24.333 -177 -73s-68 -111 -68 -187
c0 -75.333 22.833 -137.833 68.5 -187.5z" />
    <glyph glyph-name="uni0218" unicode="&#x218;" horiz-adv-x="1167" 
d="M678 -143c24.667 -28.667 37.001 -66.3311 37.001 -112.998c0 -69.333 -21.5 -127 -64.5 -173s-103.5 -70.333 -181.5 -73v56c45.333 5.33301 79.5 19.166 102.5 41.499s35.833 49.833 38.5 82.5c-16.667 -6.66699 -32.334 -10 -47.001 -10
c-31.333 0 -56.833 10.667 -76.5 32s-29.5 47.666 -29.5 78.999c0 35.333 11.833 64.333 35.5 87s54.167 34 91.5 34c38 0 69.333 -14.333 94 -43zM161.501 1147c39.667 61.333 96.002 108.668 169.002 142.001s157.5 50 253.5 50c94 0 176.833 -16.333 248.5 -49
s128 -78.667 169 -138s61.5 -128.666 61.5 -207.999h-275c-1.33301 52 -22 93.333 -62 124s-92.333 46 -157 46c-58.667 0 -105.334 -13.667 -140.001 -41s-52 -63.333 -52 -108c0 -45.333 15 -78.5 45 -99.5s72.333 -37.833 127 -50.5l211 -51
c106.667 -23.333 189.667 -67.333 249 -132s89 -145.667 89 -243c0 -84.667 -20.833 -158.334 -62.5 -221.001s-100.834 -110.834 -177.501 -144.501s-165.334 -50.5 -266.001 -50.5c-151.333 0 -274.166 36.667 -368.499 110s-145.5 173.333 -153.5 300h274
c2.66699 -57.333 26.5 -102.333 71.5 -135s104.5 -49 178.5 -49c69.333 0 123.833 14.333 163.5 43s59.5 68 59.5 118c0 42 -13.333 74 -40 96s-63 39.333 -109 52l-217 53c-114.667 26 -201.5 70.833 -260.5 134.5s-88.5 142.5 -88.5 236.5c0 82 19.833 153.667 59.5 215z
" />
    <glyph glyph-name="uni0219" unicode="&#x219;" horiz-adv-x="923" 
d="M588 -133c24.667 -28.667 37.001 -66.332 37.001 -112.999c0 -69.333 -21.5 -126.833 -64.5 -172.5s-103.5 -70.167 -181.5 -73.5v56c45.333 5.33301 79.5 19.333 102.5 42s35.833 50.334 38.5 83.001c-16.667 -6.66699 -32.334 -10.334 -47.001 -11.001
c-31.333 0 -56.833 10.667 -76.5 32s-29.5 47.666 -29.5 78.999c0 35.333 11.833 64.333 35.5 87s54.167 34 91.5 34c38 0 69.333 -14.333 94 -43zM188.501 55.002c-72.333 54.667 -111.833 127.668 -118.5 219.001h252c1.33301 -35.333 15.666 -62.833 42.999 -82.5
s62 -29.5 104 -29.5c39.333 0 70.666 7.83301 93.999 23.5s35 37.834 35 66.501s-8.83301 49.167 -26.5 61.5s-41.5 21.833 -71.5 28.5l-152 35c-87.333 20.667 -151.833 54.167 -193.5 100.5s-62.5 102.833 -62.5 169.5c0 90 34.5 162.667 103.5 218s159.5 83 271.5 83
c109.333 0 198.5 -27.333 267.5 -82s104.833 -126.334 107.5 -215.001h-250c-1.33301 32.667 -13.666 58.667 -36.999 78s-54.666 29 -93.999 29c-34 0 -61.333 -7.5 -82 -22.5s-31 -36.167 -31 -63.5c0 -26 8.16699 -44.5 24.5 -55.5s41.833 -20.5 76.5 -28.5l176 -41
c80.667 -19.333 140 -52.5 178 -99.5s57 -103.167 57 -168.5c0 -92.667 -35.5 -166.834 -106.5 -222.501s-165.167 -83.5 -282.5 -83.5c-116 0 -210.167 27.333 -282.5 82z" />
    <glyph glyph-name="uni021A" unicode="&#x21a;" horiz-adv-x="1124" 
d="M657.5 -158c24.333 -28.667 36.501 -66.001 36.501 -112.001c0 -69.333 -21.5 -127 -64.5 -173s-103.167 -70.333 -180.5 -73v55c45.333 5.33301 79.5 19.333 102.5 42s35.833 50.334 38.5 83.001c-16.667 -6.66699 -32.334 -10 -47.001 -10c-31.333 0 -57 10.5 -77 31.5
s-30 47.167 -30 78.5c0 35.333 12 64.333 36 87s54.333 34 91 34c38.667 0 70.167 -14.333 94.5 -43zM1092 1071h-396v-1071h-266v1071h-397v242h1059v-242z" />
    <glyph glyph-name="uni021B" unicode="&#x21b;" horiz-adv-x="677" 
d="M432 -106.5c24.667 -29 37 -66.5 37 -112.5c0 -69.333 -21.5 -127 -64.5 -173s-103.5 -70.333 -181.5 -73v55c45.333 5.33301 79.5 19.333 102.5 42s36.167 50.334 39.5 83.001c-16.667 -6.66699 -32.667 -10 -48 -10c-31.333 0 -56.833 10.667 -76.5 32
s-29.5 47.666 -29.5 78.999c0 35.333 12 64.333 36 87s54.333 34 91 34c38 0 69.333 -14.5 94 -43.5zM633 709h-174v-709h-254v709h-172v209h172v239h254v-239h174v-209z" />
    <glyph glyph-name="uni0237" unicode="&#x237;" horiz-adv-x="544" 
d="M152 918h254v-1352h-254v1352z" />
    <glyph glyph-name="uni0243" unicode="&#x243;" horiz-adv-x="1228" 
d="M1087.5 551c39.667 -56 59.5 -123 59.5 -201c0 -112 -41 -198.333 -123 -259s-193.333 -91 -334 -91h-545v324h-125v157h125v832h545c138 0 246.333 -32.833 325 -98.5s118 -151.167 118 -256.5c0 -72.667 -18.5 -134.167 -55.5 -184.5s-87.5 -85.5 -151.5 -105.5
c68 -22 121.833 -61 161.5 -117zM406 1087v-319h272c61.333 0 108.333 15.333 141 46s49 68 49 112c0 46.667 -16 85.167 -48 115.5s-79.333 45.5 -142 45.5h-272zM834.5 273.5c35 32.333 52.5 74.833 52.5 127.5c0 52 -17.833 93.333 -53.5 124s-81.5 46 -137.5 46h-290
v-90h184v-157h-184v-99h290c57.333 0 103.5 16.167 138.5 48.5z" />
    <glyph glyph-name="circumflex" unicode="&#x2c6;" horiz-adv-x="890" 
d="M334 1761h221l213 -284l-119 -82l-205 215l-204 -215l-119 82z" />
    <glyph glyph-name="caron" unicode="&#x2c7;" horiz-adv-x="890" 
d="M240 1776l204 -215l205 215l119 -84l-213 -285h-221l-213 285z" />
    <glyph glyph-name="breve" unicode="&#x2d8;" horiz-adv-x="978" 
d="M724 1488c-62 -54 -139.332 -81 -231.999 -81c-96.667 0 -175.834 28 -237.501 84s-95.167 129.667 -100.5 221h176c4 -42 20.667 -75.333 50 -100s66.666 -37 111.999 -37s81.833 12.333 109.5 37s42.834 58 45.501 100h178c-5.33301 -95.333 -39 -170 -101 -224z" />
    <glyph glyph-name="dotaccent" unicode="&#x2d9;" horiz-adv-x="417" 
d="M114 1442c-25.333 24.667 -38 54.667 -38 90c0 38 12.667 69 38 93s56.333 36 93 36s67 -12 91 -36s36 -55 36 -93c0 -35.333 -12.333 -65.333 -37 -90s-54.667 -37 -90 -37c-36.667 0 -67.667 12.333 -93 37z" />
    <glyph glyph-name="ring" unicode="&#x2da;" horiz-adv-x="743" 
d="M178 1429.5c-48 49 -72 107.167 -72 174.5c0 68 24 126.167 72 174.5s112.333 72.5 193 72.5c52 0 98 -11.5 138 -34.5s71 -53.667 93 -92s33 -78.5 33 -120.5c0 -44 -10.667 -84.833 -32 -122.5s-52 -68 -92 -91s-86.667 -34.5 -140 -34.5
c-80.667 0 -145 24.5 -193 73.5zM443.5 1532c19.667 20.667 29.5 46.002 29.5 76.002c0 27.333 -9.83301 51.166 -29.5 71.499s-43.834 30.5 -72.501 30.5c-27.333 0 -51.333 -9.83301 -72 -29.5s-31 -43.834 -31 -72.501c0 -30 10 -55.333 30 -76s44.333 -31 73 -31
s52.834 10.333 72.501 31z" />
    <glyph glyph-name="ogonek" unicode="&#x2db;" horiz-adv-x="542" 
d="M422 0c-38 -22 -66.667 -46.333 -86 -73s-29 -51.334 -29 -74.001c0 -19.333 6.83301 -35.166 20.5 -47.499s32.834 -18.5 57.501 -18.5c18 0 39.333 4 64 12v-133c-40.667 -13.333 -80.334 -20 -119.001 -20c-57.333 0 -102.833 15 -136.5 45s-50.5 67.333 -50.5 112
c0 35.333 11.333 70.5 34 105.5s55.667 65.5 99 91.5h146z" />
    <glyph glyph-name="tilde" unicode="&#x2dc;" horiz-adv-x="974" 
d="M178 1483c0 62.667 15.3301 112.501 45.9971 149.501s71.334 55.5 122.001 55.5c27.333 0 51.666 -4.5 72.999 -13.5s48.333 -23.167 81 -42.5c20.667 -12 38 -21.5 52 -28.5s27.333 -10.5 40 -10.5c24.667 0 41.334 7.5 50.001 22.5s12.334 38.5 11.001 70.5h125
c4 -22 6 -44 6 -66c0 -58.667 -15.667 -106.167 -47 -142.5s-73 -54.5 -125 -54.5c-27.333 0 -53.166 5.16699 -77.499 15.5s-51.5 24.5 -81.5 42.5c-15.333 9.33301 -30.833 17.5 -46.5 24.5s-28.834 10.5 -39.501 10.5c-24.667 0 -41.167 -10.333 -49.5 -31
s-11.166 -45.334 -8.49902 -74.001h-125c-4 27.333 -6 51.333 -6 72z" />
    <glyph glyph-name="hungarumlaut" unicode="&#x2dd;" horiz-adv-x="1048" 
d="M209 1485l311 334l127 -129l-362 -283zM590 1485l311 334l123 -129l-360 -283z" />
    <glyph glyph-name="gravecomb" unicode="&#x300;" 
d="M-571 1690l127 127l311 -334l-76 -78z" />
    <glyph glyph-name="acutecomb" unicode="&#x301;" 
d="M-430 1483l311 334l127 -127l-362 -285z" />
    <glyph glyph-name="uni0302" unicode="&#x302;" 
d="M-555 1761h221l211 -284l-117 -82l-204 215l-205 -215l-119 82z" />
    <glyph glyph-name="tildecomb" unicode="&#x303;" 
d="M-797 1483c0 62.667 15.333 112.501 46 149.501s71.334 55.5 122.001 55.5c27.333 0 51.666 -4.5 72.999 -13.5s48.333 -23.167 81 -42.5c20.667 -12 38.167 -21.5 52.5 -28.5s27.5 -10.5 39.5 -10.5c24.667 0 41.5 7.5 50.5 22.5s12.5 38.5 10.5 70.5h125
c4 -22 6.33301 -44 7 -66c0 -58.667 -15.833 -106.167 -47.5 -142.5s-73.167 -54.5 -124.5 -54.5c-27.333 0 -53.333 5.16699 -78 15.5s-52 24.5 -82 42.5c-15.333 9.33301 -30.833 17.5 -46.5 24.5s-28.834 10.5 -39.501 10.5c-24.667 0 -41.167 -10.333 -49.5 -31
s-11.166 -45.334 -8.49902 -74.001h-125c-4 27.333 -6 51.333 -6 72z" />
    <glyph glyph-name="uni0304" unicode="&#x304;" 
d="M-139 1593v-172h-557v172h557z" />
    <glyph glyph-name="uni0306" unicode="&#x306;" 
d="M-255 1488c-62 -54 -139.332 -81 -231.999 -81c-96.667 0 -175.834 28 -237.501 84s-95.167 129.667 -100.5 221h176c4 -42 20.667 -75.333 50 -100s66.666 -37 111.999 -37s81.833 12.333 109.5 37s42.834 58 45.501 100h178c-5.33301 -95.333 -39 -170 -101 -224z" />
    <glyph glyph-name="uni0307" unicode="&#x307;" 
d="M-320.5 1448c-25 24.667 -37.5 54.667 -37.5 90c0 38 12.5 69 37.5 93s56.167 36 93.5 36c36.667 0 67 -12 91 -36s36 -55 36 -93c0 -35.333 -12.333 -65.333 -37 -90s-54.667 -37 -90 -37c-37.333 0 -68.5 12.333 -93.5 37z" />
    <glyph glyph-name="uni0308" unicode="&#x308;" 
d="M-703.5 1448c-25 24.667 -37.5 54.667 -37.5 90c0 38 12.5 69 37.5 93s56.167 36 93.5 36c36.667 0 67 -12 91 -36s36 -55 36 -93c0 -35.333 -12.333 -65.333 -37 -90s-54.667 -37 -90 -37c-37.333 0 -68.5 12.333 -93.5 37zM-312 1448c-25.333 24.667 -38 54.667 -38 90
c0 38 12.667 69 38 93s56.333 36 93 36s67.334 -12 92.001 -36s37 -55 37 -93c0 -35.333 -12.333 -65.333 -37 -90s-55.334 -37 -92.001 -37s-67.667 12.333 -93 37z" />
    <glyph glyph-name="uni030A" unicode="&#x30a;" 
d="M-565.5 1450c-47.667 49.333 -71.501 107.332 -71.501 173.999c0 68 23.833 126.333 71.5 175s111.834 73 192.501 73c52 0 98.167 -11.667 138.5 -35s71.333 -54 93 -92s32.5 -78.333 32.5 -121c0 -44 -10.5 -84.667 -31.5 -122s-51.667 -67.666 -92 -90.999
s-87.166 -35 -140.499 -35c-80.667 0 -144.834 24.667 -192.501 74zM-300.001 1552.5c20 20.333 29.998 45.5 29.998 75.5c0 27.333 -10 51.333 -30 72s-44.333 31 -73 31c-27.333 0 -51.166 -10 -71.499 -30s-30.5 -44.333 -30.5 -73c0 -30 9.83301 -55.167 29.5 -75.5
s43.834 -30.5 72.501 -30.5s53 10.167 73 30.5z" />
    <glyph glyph-name="uni030B" unicode="&#x30b;" 
d="M-829 1483l311 334l127 -127l-363 -285zM-449 1483l312 334l123 -127l-361 -285z" />
    <glyph glyph-name="uni030C" unicode="&#x30c;" 
d="M-649 1776l205 -215l204 215l119 -84l-213 -285h-221l-213 285z" />
    <glyph glyph-name="uni0312" unicode="&#x312;" 
d="M-103.5 1599.5c19.667 -20.333 29.5 -46.167 29.5 -77.5c0 -35.333 -11.5 -64.333 -34.5 -87s-53.833 -34 -92.5 -34c-39.333 0 -71 14.333 -95 43s-36 66 -36 112c0 69.333 21.5 127 64.5 173s103.5 69.667 181.5 71v-55c-45.333 -5.33301 -79.833 -20 -103.5 -44
s-36.167 -51.667 -37.5 -83c10.667 8 27 12 49 12c30 0 54.833 -10.167 74.5 -30.5z" />
    <glyph glyph-name="uni0326" unicode="&#x326;" 
d="M-110.5 -61c24.333 -28.667 36.501 -66.333 36.501 -113c0 -69.333 -21.5 -127 -64.5 -173s-103.167 -70.333 -180.5 -73v55c45.333 5.33301 79.5 19.333 102.5 42s35.833 50.334 38.5 83.001c-16.667 -6.66699 -32.334 -10 -47.001 -10c-31.333 0 -57 10.667 -77 32
s-30 47.666 -30 78.999c0 35.333 12 64.333 36 87s54.333 34 91 34c38.667 0 70.167 -14.333 94.5 -43z" />
    <glyph glyph-name="uni0327" unicode="&#x327;" 
d="M-270 -109c48 0 90.667 -15 128 -45s56 -75.667 56 -137c0 -66.667 -24.5 -118.5 -73.5 -155.5s-108.5 -55.5 -178.5 -55.5c-60 0 -113.333 13.667 -160 41v131c13.333 -13.333 32 -24.5 56 -33.5s48.333 -13.5 73 -13.5c32.667 0 60 7.5 82 22.5s33 38.167 33 69.5
c0 27.333 -9.5 48.5 -28.5 63.5s-43.5 22.5 -73.5 22.5c-15.333 0 -31 -2 -47 -6l-56 60l146 215h92v-72l-76 -109c6 1.33301 15 2 27 2z" />
    <glyph glyph-name="uni0338" unicode="&#x338;" 
d="M-1153 -129l758 1206l166 -100l-760 -1206z" />
    <glyph glyph-name="uni03A9" unicode="&#x3a9;" horiz-adv-x="1579" 
d="M1401 403.5c-53.333 -89 -128.333 -159.168 -225 -210.501h276v-193h-561v258c91.333 27.333 165.333 77.5 222 150.5s85 158.833 85 257.5c0 114.667 -37.167 206 -111.5 274s-172.166 102 -293.499 102c-80.667 0 -152.167 -16.333 -214.5 -49
s-110.833 -78 -145.5 -136s-52 -124.667 -52 -200c0 -95.333 27.667 -179.5 83 -252.5s126.666 -121.833 213.999 -146.5v-258h-565v193h286c-98 52 -172.667 122.333 -224 211s-77 188 -77 298c0 118.667 29.333 224.834 88 318.501s140.667 166.834 246 219.501
s224 79 356 79c134 0 253.667 -26 359 -78s187.333 -124.333 246 -217s88 -198.334 88 -317.001c0 -113.333 -26.667 -214.5 -80 -303.5z" />
    <glyph glyph-name="pi" unicode="&#x3c0;" horiz-adv-x="1267" 
d="M47 1081h1081v-207h-161v-542c0 -53.333 9.16699 -88.833 27.5 -106.5s51.5 -26.5 99.5 -26.5h34v-199c-48 -9.33301 -91.667 -14 -131 -14c-110.667 0 -185.667 27.333 -225 82s-59 135 -59 241v565h-260v-874h-252v874h-154v207z" />
    <glyph glyph-name="uni0E3F" unicode="&#xe3f;" horiz-adv-x="1216" 
d="M1085.5 539.5c41 -52.333 61.501 -117.502 61.501 -195.502c0 -109.333 -41 -194 -123 -254s-193.333 -90 -334 -90h-37v-209h-141v209h-367v1313h367v190h141v-190h37c138 0 246.333 -32.833 325 -98.5s118 -152.5 118 -260.5c0 -76.667 -18.833 -140.167 -56.5 -190.5
s-89.834 -87.166 -156.501 -110.499c69.333 -23.333 124.5 -61.166 165.5 -113.499zM406.001 1087v-335h272c61.333 0 108.333 16.333 141 49s49 71.667 49 117c0 44 -16.333 83.167 -49 117.5s-79.667 51.5 -141 51.5h-272zM834.501 268.998
c35 29.333 52.5 68.667 52.5 118c0 50.667 -18.167 91.667 -54.5 123s-81.833 47 -136.5 47h-290v-332h290c57.333 0 103.5 14.667 138.5 44z" />
    <glyph glyph-name="Wgrave" unicode="&#x1e80;" horiz-adv-x="1931" 
d="M602 1673l127 127l311 -334l-75 -77zM309 1313l141.999 -466.999c34 -113.333 60.5 -208.333 79.5 -285s30.5 -124.334 34.5 -143.001c26 80.667 67.667 220.667 125 420l133 440h289l166 -551l92 -309c0 5.33301 10.333 50 31 134s48.667 182 84 294l141 467h285
l-414 -1313h-258l-80 256l-114.5 375.5c-38.333 129 -64.166 218.833 -77.499 269.5l-85 -293l-106 -352l-80 -256h-258l-413 1313h284z" />
    <glyph glyph-name="wgrave" unicode="&#x1e81;" horiz-adv-x="1542" 
d="M414 1280l127 127l311 -334l-76 -78zM307 918l70 -234.002c46.667 -160 77.334 -275.333 92.001 -346l99 333.5c32 106.333 55.667 182.833 71 229.5h268c15.333 -48 39.666 -131.667 72.999 -251s62.333 -228.666 87 -327.999c22 88.667 54 204.667 96 348l76 248h270
l-323 -918h-248c-42 138 -78.5 262.667 -109.5 374s-49.833 182 -56.5 212c-40.667 -157.333 -98 -352.666 -172 -585.999h-260l-307 918h274z" />
    <glyph glyph-name="Wacute" unicode="&#x1e82;" horiz-adv-x="1931" 
d="M889 1468l311 334l127 -129l-362 -282zM309 1313l141.999 -466.999c34 -113.333 60.5 -208.333 79.5 -285s30.5 -124.334 34.5 -143.001c26 80.667 67.667 220.667 125 420l133 440h289l166 -551l92 -309c0 5.33301 10.333 50 31 134s48.667 182 84 294l141 467h285
l-414 -1313h-258l-80 256l-114.5 375.5c-38.333 129 -64.166 218.833 -77.499 269.5l-85 -293l-106 -352l-80 -256h-258l-413 1313h284z" />
    <glyph glyph-name="wacute" unicode="&#x1e83;" horiz-adv-x="1542" 
d="M700 1075l312 334l127 -129l-363 -283zM307 918l70 -234.002c46.667 -160 77.334 -275.333 92.001 -346l99 333.5c32 106.333 55.667 182.833 71 229.5h268c15.333 -48 39.666 -131.667 72.999 -251s62.333 -228.666 87 -327.999c22 88.667 54 204.667 96 348l76 248h270
l-323 -918h-248c-42 138 -78.5 262.667 -109.5 374s-49.833 182 -56.5 212c-40.667 -157.333 -98 -352.666 -172 -585.999h-260l-307 918h274z" />
    <glyph glyph-name="Wdieresis" unicode="&#x1e84;" horiz-adv-x="1931" 
d="M677 1425.5c-25.333 24.333 -38 54.5 -38 90.5c0 38 12.667 69 38 93s56.333 36 93 36s67 -12 91 -36s36 -55 36 -93c0 -35.333 -12.333 -65.333 -37 -90s-54.667 -37 -90 -37c-36.667 0 -67.667 12.167 -93 36.5zM1068 1425.5c-25.333 24.333 -38.002 54.5 -38.002 90.5
c0 38 12.667 69 38 93s56.333 36 93 36s67.334 -12 92.001 -36s37 -55 37 -93c0 -35.333 -12.167 -65.333 -36.5 -90s-55.166 -37 -92.499 -37c-36.667 0 -67.667 12.167 -93 36.5zM308.998 1313l141.999 -466.999c34 -113.333 60.5 -208.333 79.5 -285
s30.5 -124.334 34.5 -143.001c26 80.667 67.667 220.667 125 420l133 440h289l166 -551l92 -309c0 5.33301 10.333 50 31 134s48.667 182 84 294l141 467h285l-414 -1313h-258l-80 256l-114.5 375.5c-38.333 129 -64.166 218.833 -77.499 269.5l-85 -293l-106 -352l-80 -256
h-258l-413 1313h284z" />
    <glyph glyph-name="wdieresis" unicode="&#x1e85;" horiz-adv-x="1542" 
d="M488.5 1032c-25 24.667 -37.5 54.668 -37.5 90.001c0 38 12.5 69 37.5 93s56.167 36 93.5 36c36.667 0 67 -11.833 91 -35.5s36 -54.834 36 -93.501c0 -35.333 -12.333 -65.333 -37 -90s-54.667 -37 -90 -37c-37.333 0 -68.5 12.333 -93.5 37zM880 1032
c-25.333 24.667 -38 54.668 -38 90.001c0 38 12.667 69 38 93s56.333 36 93 36s67.334 -11.833 92.001 -35.5s37 -54.834 37 -93.501c0 -35.333 -12.333 -65.333 -37 -90s-55.334 -37 -92.001 -37s-67.667 12.333 -93 37zM307 918.002l70 -234.002
c46.667 -160 77.334 -275.333 92.001 -346l99 333.5c32 106.333 55.667 182.833 71 229.5h268c15.333 -48 39.666 -131.667 72.999 -251s62.333 -228.666 87 -327.999c22 88.667 54 204.667 96 348l76 248h270l-323 -918h-248c-42 138 -78.5 262.667 -109.5 374
s-49.833 182 -56.5 212c-40.667 -157.333 -98 -352.666 -172 -585.999h-260l-307 918h274z" />
    <glyph glyph-name="Ygrave" unicode="&#x1ef2;" horiz-adv-x="1245" 
d="M266 1673l127 127l312 -334l-76 -77zM328 1313l143.001 -250l104 -187.5c27.333 -49.667 44.666 -82.167 51.999 -97.5c6.66699 15.333 24.667 50.333 54 105l101 180l144 250h299l-467 -793v-520h-269v520l-471 793h310z" />
    <glyph glyph-name="ygrave" unicode="&#x1ef3;" horiz-adv-x="1069" 
d="M176 1280l127 127l311 -334l-75 -78zM1044 918l-423.001 -1074c-34 -86 -79.167 -155.5 -135.5 -208.5s-139.5 -79.5 -249.5 -79.5c-53.333 0 -111.666 7.33301 -174.999 22l2 207c57.333 -9.33301 100.666 -14 129.999 -14c64 0 109.333 11.833 136 35.5
s49.334 59.5 68.001 107.5l19 51l-393 953h276l236 -642l241 642h268z" />
    <glyph glyph-name="endash" unicode="&#x2013;" horiz-adv-x="1863" 
d="M1720 606v-227h-1577v227h1577z" />
    <glyph glyph-name="emdash" unicode="&#x2014;" horiz-adv-x="2308" 
d="M2165 606v-227h-2022v227h2022z" />
    <glyph glyph-name="quoteleft" unicode="&#x2018;" horiz-adv-x="505" 
d="M377 1019c26 -25.333 39 -58.333 39 -99c0 -44 -14.667 -80.333 -44 -109s-67.333 -43 -114 -43c-50.667 0 -91.667 18.5 -123 55.5s-47 86.167 -47 147.5c0 86 29 158.333 87 217s136.333 92.667 235 102v-73c-58.667 -6.66699 -104.5 -26.167 -137.5 -58.5
s-48.833 -69.5 -47.5 -111.5c18 6.66699 36.667 10 56 10c38 0 70 -12.667 96 -38z" />
    <glyph glyph-name="quoteright" unicode="&#x2019;" horiz-adv-x="505" 
d="M371 1255.5c31.333 -37 46.998 -86.167 46.998 -147.5c0 -86 -28.667 -158.333 -86 -217s-135.333 -93 -234 -103v72c58.667 8 104.167 28.167 136.5 60.5s47.833 69.5 46.5 111.5c-18 -6.66699 -36 -10 -54 -10c-39.333 0 -71.666 12.333 -96.999 37s-38 58 -38 100
c0 44 14.333 80.333 43 109s66.334 43 113.001 43c50.667 0 91.667 -18.5 123 -55.5z" />
    <glyph glyph-name="quotesinglbase" unicode="&#x201a;" horiz-adv-x="530" 
d="M373 248l-223 -506h-134l93 506h264z" />
    <glyph glyph-name="quotedblleft" unicode="&#x201c;" horiz-adv-x="905" 
d="M377 1020c26 -26 39 -59.332 39 -99.999c0 -44 -14.667 -80.333 -44 -109s-68 -43 -116 -43c-49.333 0 -89.666 18.167 -120.999 54.5s-47 85.166 -47 146.499c0 86 28.667 158.667 86 218s134.666 93.666 231.999 102.999v-73c-56 -8 -100.167 -27.167 -132.5 -57.5
s-48.5 -67.166 -48.5 -110.499c18 6.66699 36.667 10 56 10c38 0 70 -13 96 -39zM780 1020c26 -26 39.001 -59.333 39.001 -100c0 -44 -14.667 -80.333 -44 -109s-67 -43 -113 -43c-50.667 0 -91.667 18.5 -123 55.5s-47 85.5 -47 145.5c0 87.333 29.333 160.333 88 219
s135.667 92.667 231 102v-73c-56 -6.66699 -100.333 -25.5 -133 -56.5s-49 -68.833 -49 -113.5c19.333 8 37.666 12 54.999 12c38 0 70 -13 96 -39z" />
    <glyph glyph-name="quotedblright" unicode="&#x201d;" horiz-adv-x="909" 
d="M371 1255.5c31.333 -37 46.998 -86.167 46.998 -147.5c0 -86 -28.667 -158.333 -86 -217s-135.333 -93 -234 -103v72c58.667 8 104.167 28.167 136.5 60.5s47.833 69.5 46.5 111.5c-18 -6.66699 -36 -10 -54 -10c-39.333 0 -71.666 12.333 -96.999 37s-38 58 -38 100
c0 44 14.333 80.333 43 109s66.334 43 113.001 43c50.667 0 91.667 -18.5 123 -55.5zM773.998 1255.5c31.333 -37 47.001 -86.167 47.001 -147.5c0 -86 -29.667 -158.333 -89 -217s-136 -93 -230 -103v72c58.667 8 104 28.167 136 60.5s47.333 69.5 46 111.5
c-18 -6.66699 -36.333 -10 -55 -10c-36.667 0 -68.334 12.667 -95.001 38s-40 58.333 -40 99c0 44 14.667 80.333 44 109s67 43 113 43c50.667 0 91.667 -18.5 123 -55.5z" />
    <glyph glyph-name="quotedblbase" unicode="&#x201e;" horiz-adv-x="956" 
d="M457 248l-207 -506h-219l176 506h250zM852 248l-248 -506h-217l215 506h250z" />
    <glyph glyph-name="dagger" unicode="&#x2020;" horiz-adv-x="835" 
d="M748 549h-252v-295h-154v295h-254v139h254v625h154v-625h252v-139z" />
    <glyph glyph-name="daggerdbl" unicode="&#x2021;" horiz-adv-x="778" 
d="M676 545h-211v-262h-152v262h-211v145h211v217h-211v142h211v264h152v-264h209v-142h-209v-217h211v-145z" />
    <glyph glyph-name="bullet" unicode="&#x2022;" horiz-adv-x="1058" 
d="M335 234.5c-59.333 33.667 -106.166 79.5 -140.499 137.5s-51.5 121.667 -51.5 191c0 70.667 17.167 135.5 51.5 194.5s81.166 105.5 140.499 139.5s125 51 197 51c72.667 0 138 -17 196 -51s103.667 -80.333 137 -139s50 -123.667 50 -195
c0 -69.333 -16.667 -133 -50 -191s-79 -103.833 -137 -137.5s-123.333 -50.5 -196 -50.5c-72 0 -137.667 16.833 -197 50.5z" />
    <glyph glyph-name="ellipsis" unicode="&#x2026;" horiz-adv-x="1538" 
d="M161 14c-30.667 31.333 -46 68.333 -46 111c0 42 15.333 79.167 46 111.5s67.667 48.5 111 48.5c42 0 79.167 -16.167 111.5 -48.5s48.5 -69.5 48.5 -111.5s-16 -78.833 -48 -110.5s-69.333 -47.5 -112 -47.5c-43.333 0 -80.333 15.667 -111 47zM656 14
c-30.667 31.333 -46 68.333 -46 111c0 42 15.333 79.167 46 111.5s68 48.5 112 48.5c42 0 79.167 -16.167 111.5 -48.5s48.5 -69.5 48.5 -111.5s-16.167 -78.833 -48.5 -110.5s-69.5 -47.5 -111.5 -47.5c-44 0 -81.333 15.667 -112 47zM1150 14
c-32 31.333 -48 68.333 -48 111c0 42 16 79.167 48 111.5s69.333 48.5 112 48.5c42 0 79.333 -16.167 112 -48.5s49 -69.5 49 -111.5s-16.333 -78.833 -49 -110.5s-70 -47.5 -112 -47.5c-42.667 0 -80 15.667 -112 47z" />
    <glyph glyph-name="perthousand" unicode="&#x2030;" horiz-adv-x="2291" 
d="M126 1222.5c26.667 46.333 63.501 83.5 110.501 111.5s100.5 42 160.5 42c61.333 0 116 -14 164 -42s85 -65.167 111 -111.5s39 -96.166 39 -149.499s-12.667 -102.833 -38 -148.5s-61.166 -82.167 -107.499 -109.5s-100.5 -41 -162.5 -41
c-62.667 0 -117.834 13.667 -165.501 41s-84.834 63.833 -111.501 109.5s-40 95.167 -40 148.5s13.333 103.166 40 149.499zM188.001 0l1033 1360h190l-1034 -1360h-189zM301.001 977c26 -26 58.667 -39.001 98 -39.001c40.667 0 73.5 13.333 98.5 40
s37.5 58.334 37.5 95.001s-12.333 68.667 -37 96s-57.667 41 -99 41c-40.667 0 -74 -13.333 -100 -40s-39 -59 -39 -97c1.33301 -38 15 -70 41 -96zM900.001 417.499c26.667 46.333 63.834 83.501 111.501 111.501s102.5 42 164.5 42c61.333 0 115.5 -13.667 162.5 -41
s83.833 -64.166 110.5 -110.499s40 -96.833 40 -151.5c0 -53.333 -13 -102.833 -39 -148.5s-62.5 -81.834 -109.5 -108.501s-101.167 -40 -162.5 -40s-116.333 13.667 -165 41s-86.334 63.5 -113.001 108.5s-40 94.167 -40 147.5s13.333 103.166 40 149.499zM1617 417.5
c26.667 46.333 63.832 83.5 111.499 111.5s102.167 42 163.5 42s116 -14 164 -42s85 -65.167 111 -111.5s39 -96.166 39 -149.499s-13 -102.5 -39 -147.5s-62.5 -81.167 -109.5 -108.5s-101.5 -41 -163.5 -41c-61.333 0 -116.166 13.667 -164.499 41
s-85.833 63.5 -112.5 108.5s-40 94.167 -40 147.5s13.333 103.166 40 149.499zM1075 174c26 -26 59.666 -39 100.999 -39c40.667 0 73.334 13.333 98.001 40s37 57.667 37 93c0 38 -12.667 70.5 -38 97.5s-58.333 40.5 -99 40.5s-74.167 -13.333 -100.5 -40
s-38.833 -58.667 -37.5 -96c0 -38 13 -70 39 -96zM1795 173c25.333 -25.333 58.333 -38.002 99 -38.002s73.167 13 97.5 39s36.5 57.333 36.5 94s-12.333 68.834 -37 96.501s-57.667 41.5 -99 41.5c-40.667 0 -73.667 -13.333 -99 -40s-37.333 -58.667 -36 -96
c0 -39.333 12.667 -71.666 38 -96.999z" />
    <glyph glyph-name="minute" unicode="&#x2032;" horiz-adv-x="405" 
d="M105.5 1269c25 26.667 57.501 40 97.501 40c39.333 0 71.666 -13.333 96.999 -40s38 -60.667 38 -102c0 -13.333 -2 -26.333 -6 -39l-92 -446h-76l-90 442c-4 20.667 -6 35 -6 43c0 41.333 12.5 75.333 37.5 102z" />
    <glyph glyph-name="guilsinglleft" unicode="&#x2039;" horiz-adv-x="679" 
d="M418 459l213 -383h-279l-217 383l217 383h279z" />
    <glyph glyph-name="guilsinglright" unicode="&#x203a;" horiz-adv-x="681" 
d="M547 459l-217 -383h-281l215 383l-215 383h281z" />
    </font>
</defs>
</svg>
